<svg width="300" height="277" viewBox="0 0 300 277" fill="none" xmlns="http://www.w3.org/2000/svg">
<path d="M17.869 270.82H73.9988C75.4375 270.818 76.817 270.246 77.8343 269.228C78.8517 268.211 79.424 266.832 79.4255 265.393V225.022C79.424 223.583 78.8517 222.203 77.8343 221.186C76.817 220.168 75.4375 219.596 73.9988 219.595H54.9375C54.3048 219.597 53.6884 219.395 53.1806 219.018C52.6729 218.641 52.3011 218.109 52.1214 217.502L34.7633 159.921C34.067 157.572 32.6277 155.512 30.6615 154.052C28.6951 152.59 26.308 151.806 23.8582 151.817H5.52887C4.6824 151.817 3.84768 152.016 3.09147 152.395C2.33527 152.776 1.67853 153.328 1.17374 154.008C0.668956 154.687 0.330134 155.476 0.184353 156.309C0.0385728 157.143 0.0898781 158 0.334168 158.81L18.2428 218.219C18.5747 219.338 19.2605 220.318 20.1974 221.014C21.1342 221.712 22.2716 222.084 23.4387 222.079H42.5C43.2801 222.08 44.0279 222.391 44.5795 222.942C45.1311 223.494 45.4414 224.242 45.4423 225.022V265.393C45.4414 266.173 45.1311 266.921 44.5795 267.472C44.0278 268.024 43.28 268.333 42.5 268.334H17.8606L17.869 270.82ZM73.9988 222.079C74.7789 222.08 75.5267 222.391 76.0783 222.942C76.6299 223.494 76.9402 224.242 76.9412 225.022V265.393C76.9402 266.173 76.6299 266.921 76.0783 267.472C75.5266 268.024 74.7788 268.333 73.9988 268.334H47.0637C47.6317 267.458 47.9331 266.436 47.9315 265.393V225.022C47.93 223.583 47.3577 222.203 46.3403 221.186C45.323 220.168 43.9436 219.596 42.5049 219.595H23.4436C22.8109 219.597 22.1943 219.395 21.6862 219.018C21.1783 218.641 20.8064 218.109 20.6262 217.502L2.71758 158.093C2.58558 157.654 2.55795 157.19 2.63687 156.738C2.71579 156.287 2.89909 155.861 3.17216 155.492C3.44522 155.124 3.80048 154.825 4.20966 154.619C4.61881 154.412 5.07057 154.304 5.52887 154.303H23.8582C25.7734 154.294 27.6395 154.907 29.1768 156.049C30.7141 157.191 31.8397 158.8 32.3847 160.637L49.7428 218.219C50.0742 219.338 50.7598 220.318 51.6966 221.016C52.6332 221.712 53.7705 222.084 54.9375 222.079H73.9988Z" fill="#8BBAE8"/>
<path d="M39.2548 193.762H14.9038C13.944 193.762 13.0097 193.453 12.2396 192.88C11.4696 192.308 10.905 191.501 10.6297 190.582L2.44585 163.462C2.31967 163.037 2.29398 162.59 2.37079 162.154C2.44761 161.719 2.62483 161.306 2.88842 160.952C3.15201 160.596 3.49472 160.308 3.8894 160.108C4.28406 159.907 4.71983 159.803 5.1622 159.8H29.53C30.4893 159.802 31.4226 160.112 32.1923 160.685C32.9619 161.257 33.5269 162.062 33.8041 162.981L41.9771 190.099C42.1057 190.523 42.1331 190.972 42.0569 191.41C41.9807 191.846 41.8032 192.26 41.5385 192.615C41.2739 192.972 40.9294 193.261 40.5328 193.46C40.1363 193.66 39.6985 193.763 39.2548 193.762Z" fill="#0E1C56"/>
<path d="M39.256 193.762H18.2223C17.2626 193.763 16.3284 193.453 15.5585 192.881C14.7887 192.308 14.2244 191.501 13.9495 190.582L5.76081 163.462C5.63462 163.037 5.60891 162.59 5.68574 162.154C5.76255 161.719 5.93979 161.306 6.20337 160.952C6.46696 160.596 6.80967 160.308 7.20433 160.108C7.59901 159.907 8.03479 159.803 8.47716 159.8H29.5108C30.4721 159.802 31.4078 160.112 32.1802 160.684C32.9525 161.256 33.5208 162.061 33.8017 162.981L41.9748 190.099C42.103 190.523 42.1302 190.971 42.0541 191.409C41.978 191.845 41.8008 192.258 41.5367 192.614C41.2723 192.97 40.9285 193.26 40.5326 193.459C40.1365 193.657 39.6994 193.762 39.256 193.762Z" fill="#1B65F8"/>
<path d="M77.3246 220.046H25.4015V210.927C25.4015 210.82 25.4442 210.716 25.5201 210.641C25.5961 210.565 25.6991 210.522 25.8065 210.522H76.9195C77.027 210.522 77.13 210.565 77.206 210.641C77.2819 210.716 77.3246 210.82 77.3246 210.927V220.046Z" fill="#1B65F8"/>
<path d="M23.2475 222.113H79.4735C79.5738 222.113 79.655 222.031 79.655 221.931V216.733C79.655 216.633 79.5738 216.552 79.4735 216.552H23.2475C23.1473 216.552 23.066 216.633 23.066 216.733V221.931C23.066 222.031 23.1473 222.113 23.2475 222.113Z" fill="#0E1C56"/>
<path d="M17.869 272.385H42.5084C43.9471 272.383 45.3264 271.811 46.3438 270.795C47.3611 269.777 47.9335 268.398 47.9351 266.959V226.587C47.9335 225.148 47.3613 223.768 46.3438 222.751C45.3265 221.733 43.9471 221.161 42.5084 221.16H23.4435C22.8108 221.162 22.1942 220.96 21.6863 220.583C21.1782 220.206 20.8063 219.674 20.6262 219.067L2.7175 159.659C2.58517 159.219 2.55743 158.755 2.6365 158.303C2.71556 157.851 2.89927 157.424 3.1729 157.055C3.44653 156.688 3.8025 156.388 4.21239 156.182C4.62229 155.976 5.07476 155.868 5.53362 155.868H23.8581C24.1809 155.858 24.4871 155.722 24.7119 155.49C24.9366 155.258 25.0622 154.948 25.0622 154.625C25.0622 154.303 24.9366 153.993 24.7119 153.761C24.4871 153.529 24.1809 153.393 23.8581 153.383H5.52881C4.68223 153.383 3.84739 153.582 3.09104 153.962C2.33471 154.341 1.67784 154.894 1.17301 155.573C0.668172 156.254 0.329378 157.041 0.183708 157.875C0.0380374 158.709 0.089539 159.566 0.334095 160.376L18.2428 219.784C18.5746 220.903 19.2604 221.883 20.1973 222.579C21.1341 223.276 22.2715 223.649 23.4387 223.644H42.5C43.2799 223.645 44.0276 223.956 44.579 224.507C45.1306 225.059 45.4409 225.807 45.4423 226.587V266.959C45.4409 267.739 45.1306 268.487 44.579 269.037C44.0275 269.589 43.2798 269.899 42.5 269.9H17.8605C17.6942 269.896 17.5284 269.923 17.3732 269.983C17.218 270.043 17.0764 270.135 16.9568 270.25C16.8373 270.365 16.7423 270.505 16.6775 270.658C16.6126 270.811 16.579 270.976 16.579 271.143C16.579 271.309 16.6126 271.474 16.6775 271.627C16.7423 271.78 16.8373 271.92 16.9568 272.035C17.0764 272.15 17.218 272.242 17.3732 272.302C17.5284 272.362 17.6942 272.389 17.8605 272.385H17.869Z" fill="#DAEBFF"/>
<path d="M88.244 166.294C88.4843 166.474 91.2956 166.833 93.4483 165.093C95.6009 163.352 96.9182 162.78 97.8161 163.338C98.7139 163.895 102.183 166.447 102.183 166.447C102.183 166.447 88.7824 172.032 88.2404 171.434C87.6983 170.835 88.244 166.294 88.244 166.294Z" fill="#E86456"/>
<path d="M89.0516 169.405C89.0516 169.405 94.137 166.922 95.4218 165.547C96.7067 164.172 98.8028 164.258 99.4158 164.903C100.029 165.547 92.9987 171.109 91.6225 171.199C90.2463 171.29 89.0516 169.405 89.0516 169.405Z" fill="#D15046"/>
<path d="M117.46 255.703C116.373 256.573 114.816 257.145 113.35 257.528C112.694 257.696 112.057 257.826 111.484 257.925C110.162 258.153 109.201 258.215 109.201 258.215C92.1515 242.78 89.2873 210.298 89.2873 210.298C89.2873 210.298 68.1864 209.961 51.9316 207.504C48.9087 207.048 46.0542 206.517 43.5337 205.903C39.8078 204.995 36.803 203.899 35.0806 202.58C27.9821 197.153 30.1684 187.836 31.5037 183.929C31.8919 182.798 32.208 182.126 32.208 182.126C32.208 182.126 21.2164 174.499 63.2176 185.087C67.4832 186.162 71.3198 187.165 74.7729 188.091C91.0505 192.488 98.7897 195.344 102.466 197.054C103.433 197.502 104.267 198.192 104.89 199.058C105.513 199.922 105.902 200.931 106.022 201.99C107.671 216.543 117.46 255.703 117.46 255.703Z" fill="#081849"/>
<path opacity="0.37" d="M113.35 257.528C112.693 257.696 112.056 257.826 111.484 257.925C110.162 258.153 109.201 258.215 109.201 258.215C92.1514 242.78 89.2872 210.298 89.2872 210.298C89.2872 210.298 68.1863 209.962 51.9315 207.504L37.1478 183.738L67.7464 190.612C67.7464 190.612 98.4351 196.445 100.679 202.367C102.669 207.603 111.362 248.197 113.35 257.528Z" fill="#00091E"/>
<path d="M111.721 258.879C108.736 261.344 105.231 261.483 103.505 261.363C103.142 261.342 102.781 261.299 102.423 261.234C85.375 245.799 83.8269 214.571 83.8269 214.571C83.8269 214.571 79.3173 214.499 72.8618 214.179C66.6118 213.869 58.5288 213.327 50.9555 212.392C41.6322 211.239 33.0745 209.493 29.6226 206.853C26.738 204.643 25.3798 201.79 24.8846 198.921C23.8029 192.698 26.75 186.398 26.75 186.398C26.75 186.398 21.7019 182.895 31.512 183.933C34.3221 184.231 38.3497 184.894 44.0613 186.126C47.8413 186.94 52.3546 187.999 57.7536 189.358C61.2836 190.249 64.5204 191.089 67.4892 191.882C84.5733 196.441 92.7716 199.41 96.7067 201.198C97.7552 201.674 98.663 202.412 99.3423 203.343C100.022 204.272 100.449 205.362 100.584 206.505C102.071 219.203 109.478 249.742 111.487 257.93C111.637 258.54 111.698 258.788 111.721 258.879Z" fill="#0E1C56"/>
<path d="M92.2236 129.694C92.1707 129.891 92.0301 130.054 91.7596 130.22C90.2801 131.115 88.1262 130.22 88.1262 130.22C88.1262 130.22 88.1262 130.237 88.1106 130.273C87.9051 130.971 85.6178 138.416 82.0253 137.219C80.6695 136.767 79.2608 135.99 77.9676 135.243C75.6563 133.912 73.6755 132.677 72.8714 133.539C72.1502 134.313 70.3474 138.362 68.9627 141.656C67.9375 144.083 67.1286 146.103 67.1286 146.103C67.1286 146.103 54.9255 135.066 57.4375 133.002C57.6965 132.796 57.9697 132.607 58.2548 132.439C59.2332 131.853 60.5793 131.257 61.9988 130.6C64.5637 129.409 68.0385 127.97 68.9039 126.022C69.0996 125.595 69.1536 125.117 69.0577 124.657C67.4676 116.983 78.4676 111.463 80.4616 110.53C80.6599 110.437 80.7692 110.391 80.7692 110.391L81.0962 110.428L91.2681 111.558C91.2681 111.558 91.8402 113.063 92.1094 115.524C92.3559 117.758 92.2843 120.016 91.8967 122.23C91.0132 127.284 92.4652 128.815 92.2236 129.694Z" fill="#F87B67"/>
<path opacity="0.64" d="M92.107 115.529C89.9435 114.283 82.7776 110.804 79.375 116.851C79.375 116.851 77.6706 119.096 77.1779 122.5C77.1779 122.5 76.28 120.031 73.5877 120.216C71.4555 120.358 71.143 126.272 69.4278 126.474C69.2199 126.499 69.0444 126.332 68.9014 126.022C69.0972 125.595 69.1512 125.117 69.0552 124.658C67.4651 116.983 78.4651 111.463 80.4591 110.53L81.0937 110.428L91.2656 111.558C91.2656 111.558 91.8377 113.063 92.107 115.529Z" fill="#E54F48"/>
<path opacity="0.64" d="M77.965 135.243C75.6537 133.912 73.673 132.677 72.8689 133.538C72.1477 134.313 70.3449 138.362 68.9602 141.656C65.9098 140.993 59.8064 138.874 58.2523 132.436C59.2307 131.851 60.5768 131.255 61.9963 130.597C61.9993 131.685 62.1202 132.769 62.3569 133.832C62.9062 136.276 63.9939 137.317 65.8977 137.077C67.9999 136.816 70.298 131.482 70.1826 131.052C70.1766 131.06 77.3773 132.968 77.965 135.243Z" fill="#E54F48"/>
<path d="M70.2968 138.563C70.2968 138.563 66.5492 139.972 63.7271 137.4C60.905 134.828 61.1418 130.994 61.1418 130.994L57.4351 133.002C57.4351 133.002 62.7872 142.368 66.6478 141.656C70.5084 140.945 69.4122 139.632 69.4122 139.632L70.2968 138.563Z" fill="#E54F48"/>
<path d="M93.5096 115.011C91.8011 113.47 89.6729 112.473 87.3959 112.145C85.1187 111.818 82.7956 112.175 80.7223 113.172C76.9086 115.011 77.1791 122.505 77.1791 122.505C77.1791 122.505 76.5493 122.37 75.8329 120.395C75.1166 118.421 73.5889 119.139 73.5889 119.139C71.5012 119.887 70.8846 121.998 70.7043 123.219C70.5798 124.109 70.2973 124.97 69.8702 125.761C68.4086 128.405 67.3125 127.541 67.3125 127.541C67.3125 127.541 66.6298 124.648 65.8942 121.299C65.5481 119.713 65.1875 118.024 64.887 116.492C63.9435 111.736 68.0264 106.756 74.6755 104.691C76.1225 104.222 77.6511 104.058 79.1646 104.21C83.1743 104.635 85.8726 107.258 88.1262 107.56C91.131 107.963 97.6827 106.034 100.913 108.189C101.146 108.34 101.341 108.542 101.484 108.779C103.125 111.518 97.0721 118.202 93.5096 115.011Z" fill="#1F2A83"/>
<path d="M93.5097 115.011C91.8013 113.47 89.673 112.473 87.396 112.145C85.1188 111.818 82.7958 112.175 80.7224 113.172C76.9087 115.011 77.1791 122.505 77.1791 122.505C77.1791 122.505 76.5493 122.37 75.833 120.395C75.1166 118.421 73.589 119.139 73.589 119.139C71.5013 119.887 70.8847 121.998 70.7044 123.219C70.5799 124.109 70.2974 124.97 69.8703 125.761C68.4087 128.405 67.3126 127.541 67.3126 127.541C67.3126 127.541 66.6299 124.648 65.8943 121.299C68.9892 120.773 74.363 119.198 77.1359 114.518C81.1719 107.698 89.6467 111.377 93.9628 113.665C98.2789 115.952 101.488 108.782 101.488 108.782C103.125 111.518 97.0722 118.202 93.5097 115.011Z" fill="#051956"/>
<path opacity="0.64" d="M92.2211 129.696C92.1682 129.893 92.0276 130.056 91.7572 130.222C90.2776 131.118 88.1238 130.222 88.1238 130.222C88.1238 130.222 88.1238 130.239 88.1081 130.275L87.4663 129.693C90.8341 130.435 92.1658 129.725 92.2211 129.696Z" fill="#E54F48"/>
<path d="M70.0961 139.018C70.0961 139.018 70.9855 142.156 71.7932 151.037C72.6009 159.918 73.155 165.663 74.6778 165.573C76.2007 165.483 89.1442 164.858 89.8485 165.573V171.674C89.8485 171.674 66.5937 174.367 64.2608 170.239C61.9278 166.112 67.9495 138.843 70.0961 139.018Z" fill="#F99911"/>
<path d="M69.0638 144.471C69.0638 144.471 68.2933 164.292 70.8955 165.246C73.4977 166.201 84.9808 167.706 85.6118 169.162C86.2429 170.619 86.2405 172.537 86.2405 172.537C86.2405 172.537 71.7332 171.943 68.2188 169.52C64.7044 167.097 69.0638 144.471 69.0638 144.471Z" fill="#ED8100"/>
<path d="M106.737 172.728H101.642L98.7572 171.526C98.7572 171.526 94.5096 175.788 91.4531 175.733C88.3966 175.678 86.6454 174.883 83.9771 174.996C83.6891 175.023 83.3998 174.964 83.1442 174.829C81.8221 174.06 83.3545 170.919 83.3545 170.919C83.3545 170.919 89.5264 171.427 94.2283 167.578C94.2283 167.578 97.3654 163.988 99.4219 164.905C101.478 165.822 105.611 168.767 106.742 169.9C107.873 171.034 106.737 172.728 106.737 172.728Z" fill="#F87B67"/>
<path opacity="0.64" d="M104.9 172.755H101.824L98.7716 171.483C98.7716 171.483 94.4951 175.983 91.0264 175.731C87.8028 175.498 86.2103 174.939 83.399 175.058C83.0204 175.073 82.494 175.099 82.2788 174.971C82.5805 174.469 83.5805 173.849 86.8221 174.37C91.8497 175.175 96.3809 172.215 97.9999 170.825C99.1922 169.792 103.005 171.7 104.9 172.755Z" fill="#E54F48"/>
<path opacity="0.29" d="M88.4832 217.263C87.9459 211.254 85.6118 212.149 85.6118 212.149C71.619 214.109 48.9099 208.964 48.6022 208.894C46.845 208.255 45.1971 207.572 43.7068 206.851C35.357 202.831 41.8822 197.579 45.232 196.382C55.4892 192.719 61.875 194.268 67.4868 191.875C72.1923 189.865 74.7729 188.09 74.7729 188.09C71.3197 187.158 67.4832 186.155 63.2176 185.085C21.2212 174.498 32.208 182.125 32.208 182.125C32.208 182.125 31.8918 182.802 31.5036 183.928C21.6947 182.891 26.7416 186.393 26.7416 186.393C26.7416 186.393 20.4604 199.855 29.6142 206.852C33.0649 209.496 41.625 211.238 50.9471 212.389L51.1791 212.417L52.2608 212.546L52.6214 212.588L53.5709 212.695L53.9471 212.737L55.0157 212.85L55.4015 212.889C55.762 212.928 56.1358 212.964 56.5024 213L56.8834 213.037C57.2584 213.075 57.6334 213.109 58.0084 213.144L58.3245 213.173L59.5169 213.28L59.6827 213.294L60.8762 213.395L61.0301 213.407C61.4568 213.442 61.8798 213.477 62.3029 213.51L62.464 213.522L63.7392 213.619L63.8594 213.627L65.1731 213.721C67.4568 213.88 69.6358 214.01 71.6563 214.117H71.6659C72.0685 214.138 72.464 214.157 72.8534 214.177C79.3089 214.496 83.8185 214.568 83.8185 214.568C83.8185 214.568 85.3666 245.797 102.415 261.232C102.772 261.297 103.134 261.34 103.496 261.36C96.7236 255.119 89.0217 223.274 88.4832 217.263Z" fill="#00091E"/>
<path opacity="0.37" d="M60.1827 190.715C60.1827 190.715 38.4123 194.292 32.7597 193.84C29.1395 193.553 26.3895 196.65 24.8811 198.916C23.7993 192.694 26.7464 186.393 26.7464 186.393C26.7464 186.393 21.6984 182.891 31.5085 183.928C34.3186 184.226 38.3462 184.889 44.0577 186.121L60.1827 190.715Z" fill="#00091E"/>
<path d="M69.8185 176.345C68.8329 178.23 72.5108 187.023 72.5108 187.023C62.4711 192.161 45.6045 192.286 35.4747 191.198C34.1069 191.052 32.8629 190.883 31.7752 190.702C22.6237 189.177 23.6093 182.804 23.6093 182.804C26.2115 150.053 36.7103 136.049 48.1069 132.464C59.5036 128.879 60.7512 131.177 60.7512 131.177C61.3713 141.913 69.8737 139.536 69.8737 139.536C68.2175 145.531 68.1117 166.025 68.1117 166.025C68.1117 166.025 72.2451 166.474 76.7319 167.107C79.5373 167.524 82.2616 168.371 84.8088 169.619L85.6153 176.35L69.8185 176.345Z" fill="#FFB100"/>
<path opacity="0.52" d="M69.8185 176.345C68.8329 178.23 72.5108 187.023 72.5108 187.023C62.4711 192.161 45.6045 192.286 35.4747 191.198C45.3702 189.361 41.5973 170.129 41.5973 170.129L46.0336 171.886C50.4304 173.627 55.0983 174.585 59.8257 174.716L85.5012 175.43L85.6118 176.345H69.8185Z" fill="#F99911"/>
<path opacity="0.52" d="M49.6298 139.643C49.7543 139.651 49.8764 139.681 49.9903 139.733C49.8798 139.702 49.7596 139.673 49.6298 139.643Z" fill="#F99911"/>
<path opacity="0.52" d="M68.2188 159.655L68.1286 164.91L68.1082 166.025L55.2825 164.944C55.2825 164.944 53.8402 161.175 53.3979 150.407C53.25 146.849 52.7885 144.465 52.2356 142.87C51.4604 140.63 50.5061 139.945 49.9952 139.733C52.3318 140.393 52.5469 141.844 57.0962 151.935C61.8666 162.525 68.2188 159.655 68.2188 159.655Z" fill="#F99911"/>
<path opacity="0.52" d="M55.2885 164.948C55.2885 164.948 52.8954 164.679 51.399 165.217C49.9026 165.756 54.1538 159.43 54.1779 159.607C54.2019 159.784 54.863 164.08 55.2885 164.948Z" fill="#F99911"/>
<path opacity="0.58" d="M39.6635 151.159C39.6635 151.159 42.655 176.046 46.9615 176.344H49.3546V181.13C49.3546 181.13 43.4772 182.262 41.5925 170.129C39.7079 157.995 39.6635 151.159 39.6635 151.159Z" fill="#ED8100"/>
<path d="M68.1286 164.91L68.1082 166.025L55.2825 164.943C55.2825 164.943 53.8402 161.175 53.3979 150.407C53.25 146.849 52.7885 144.465 52.2356 142.87C52.3005 142.953 54.4063 145.712 55.8209 160.727C55.8209 160.727 55.6563 163.797 58.9243 164.326C61.1623 164.693 65.5733 164.847 68.1286 164.91Z" fill="#ED8100"/>
<path fill-rule="evenodd" clip-rule="evenodd" d="M146.569 175.983H97.6503C97.239 175.981 96.8454 175.816 96.5546 175.525C96.2639 175.234 96.0997 174.84 96.0974 174.429C96.0999 174.018 96.2644 173.625 96.5551 173.334C96.8457 173.043 97.2392 172.879 97.6503 172.876H146.569C146.98 172.879 147.374 173.043 147.665 173.333C147.956 173.624 148.12 174.018 148.123 174.429C148.12 174.84 147.956 175.234 147.665 175.525C147.374 175.816 146.98 175.981 146.569 175.983Z" fill="#141A33"/>
<path fill-rule="evenodd" clip-rule="evenodd" d="M146.568 175.983H97.6502C97.5197 176.064 97.3699 176.108 97.2164 176.112C97.063 176.115 96.9113 176.078 96.7771 176.004C96.643 175.929 96.5312 175.82 96.4535 175.687C96.3756 175.555 96.3346 175.404 96.3346 175.25C96.3346 175.097 96.3756 174.946 96.4535 174.814C96.5312 174.681 96.643 174.572 96.7771 174.498C96.9113 174.423 97.063 174.386 97.2164 174.389C97.3699 174.393 97.5197 174.437 97.6502 174.518H146.568C146.7 174.437 146.849 174.393 147.002 174.389C147.156 174.386 147.308 174.423 147.441 174.498C147.576 174.572 147.687 174.681 147.766 174.814C147.843 174.946 147.885 175.097 147.885 175.25C147.885 175.404 147.843 175.555 147.766 175.687C147.687 175.82 147.576 175.929 147.441 176.004C147.308 176.078 147.156 176.115 147.002 176.112C146.849 176.108 146.7 176.064 146.568 175.983Z" fill="#030822"/>
<path fill-rule="evenodd" clip-rule="evenodd" d="M147.776 172.876H108.654C107.536 172.876 106.731 171.96 106.871 170.843L109.99 145.5C110.127 144.382 111.155 143.468 112.274 143.468H151.399C151.656 143.462 151.912 143.513 152.148 143.617C152.383 143.72 152.594 143.875 152.764 144.068C152.934 144.262 153.059 144.49 153.131 144.738C153.203 144.986 153.221 145.245 153.182 145.5L150.057 170.843C149.922 171.96 148.894 172.876 147.776 172.876Z" fill="#030822"/>
<path fill-rule="evenodd" clip-rule="evenodd" d="M147.776 172.876H109.805C108.687 172.876 107.882 171.96 108.023 170.843L111.148 145.5C111.285 144.382 112.312 143.468 113.431 143.468H151.403C151.66 143.462 151.916 143.513 152.152 143.617C152.387 143.72 152.597 143.875 152.768 144.068C152.938 144.262 153.063 144.49 153.135 144.738C153.207 144.986 153.225 145.245 153.185 145.5L150.06 170.843C149.922 171.96 148.894 172.876 147.776 172.876Z" fill="#0E1C56"/>
<path opacity="0.26" fill-rule="evenodd" clip-rule="evenodd" d="M145.708 172.876H141.8L110.959 146.987L111.142 145.5C111.2 145.059 111.386 144.645 111.677 144.309L145.708 172.876ZM116.114 143.468L149.757 171.713C149.917 171.448 150.02 171.153 150.059 170.846L150.54 166.906L122.623 143.469L116.114 143.468Z" fill="white"/>
<path fill-rule="evenodd" clip-rule="evenodd" d="M106.542 175.983H97.6477C97.2364 175.981 96.8427 175.816 96.5521 175.525C96.2613 175.234 96.097 174.84 96.0948 174.429C96.0974 174.018 96.2618 173.625 96.5524 173.334C96.8432 173.043 97.2367 172.879 97.6477 172.876H106.542C106.953 172.879 107.347 173.043 107.638 173.333C107.929 173.624 108.094 174.018 108.096 174.429C108.094 174.84 107.929 175.234 107.638 175.525C107.348 175.816 106.953 175.981 106.542 175.983Z" fill="#0E1C56"/>
<path d="M147.346 172.099H106.641C106.212 172.099 105.864 172.446 105.864 172.875C105.864 173.304 106.212 173.652 106.641 173.652H147.346C147.775 173.652 148.123 173.304 148.123 172.875C148.123 172.446 147.775 172.099 147.346 172.099Z" fill="#00000F"/>
<path fill-rule="evenodd" clip-rule="evenodd" d="M131.401 154.266C129.238 154.266 127.315 156.014 127.095 158.172C126.875 160.329 128.443 162.078 130.601 162.078C132.758 162.078 134.687 160.329 134.907 158.172C135.127 156.014 133.559 154.266 131.401 154.266Z" fill="white"/>
<path d="M54.4399 276.575H49.2404L71.3245 182.307H78.6935L54.4399 276.575Z" fill="#000E3A"/>
<path d="M238.933 276.575H244.131L222.048 182.307H214.68L238.933 276.575Z" fill="#000E3A"/>
<path d="M244.131 176.406H49.2404V182.502H244.131V176.406Z" fill="#DAEBFF"/>
<g style="mix-blend-mode:multiply" opacity="0.5">
<g style="mix-blend-mode:multiply" opacity="0.5">
<path d="M244.131 180.594H49.2404V182.502H244.131V180.594Z" fill="#9E9E9E"/>
</g>
</g>
<g opacity="0.49">
<path opacity="0.49" d="M53.024 110.316C51.8534 109.275 50.379 108.638 48.8184 108.498C47.2579 108.359 45.694 108.725 44.3574 109.543C43.021 110.361 41.9829 111.586 41.3965 113.039C40.81 114.492 40.7061 116.095 41.1003 117.611C41.4946 119.128 42.3659 120.477 43.5857 121.46C44.8055 122.444 46.3092 123.008 47.8746 123.072C49.4401 123.135 50.9844 122.694 52.2796 121.811C53.5748 120.93 54.5521 119.655 55.0673 118.176L57.2308 118.91L58.0373 118.005L55.4736 115.721C55.4671 114.699 55.2457 113.689 54.8237 112.758C54.4017 111.827 53.7885 110.995 53.024 110.316Z" fill="#6F79C9"/>
<path opacity="0.49" d="M52.2175 111.221C51.0468 110.18 49.5724 109.543 48.012 109.403C46.4514 109.264 44.8875 109.63 43.551 110.448C42.2145 111.266 41.1764 112.491 40.59 113.944C40.0034 115.397 39.8996 117 40.2938 118.516C40.6881 120.033 41.5595 121.382 42.7793 122.365C43.999 123.349 45.5027 123.913 47.0681 123.977C48.6336 124.04 50.178 123.599 51.473 122.716C52.7682 121.835 53.7455 120.56 54.2608 119.081L57.2295 118.91L54.6658 116.626C54.6596 115.604 54.4383 114.594 54.0165 113.663C53.5947 112.732 52.9818 111.9 52.2175 111.221Z" fill="#0E1C56"/>
<path opacity="0.49" d="M44.3508 120.433C44.0859 120.434 43.8215 120.407 43.5624 120.352V119.172L43.8232 119.225C43.9221 119.245 44.0228 119.254 44.1237 119.254C44.3745 119.254 44.554 119.178 44.6621 119.026C44.7703 118.875 44.824 118.616 44.8232 118.25V113.048H46.3497V118.119C46.3497 118.879 46.183 119.456 45.8497 119.847C45.5164 120.239 45.0167 120.434 44.3508 120.433Z" fill="white"/>
<path opacity="0.49" d="M50.8413 117.329C50.8413 117.796 50.6811 118.148 50.3605 118.387C50.0401 118.626 49.5837 118.746 48.9915 118.748C48.7103 118.751 48.429 118.733 48.1502 118.696C47.9007 118.659 47.6557 118.595 47.4194 118.506V117.304C47.671 117.408 47.9312 117.49 48.1971 117.548C48.4404 117.61 48.6901 117.643 48.941 117.648C49.2668 117.648 49.429 117.573 49.429 117.424C49.4261 117.381 49.4121 117.34 49.3883 117.304C49.3644 117.268 49.3317 117.238 49.2932 117.219C49.0367 117.084 48.7713 116.967 48.4987 116.868C48.0997 116.703 47.8197 116.517 47.6574 116.308C47.4912 116.077 47.4066 115.798 47.417 115.514C47.4097 115.33 47.4487 115.147 47.5306 114.982C47.6126 114.816 47.7347 114.674 47.8858 114.569C48.1983 114.343 48.639 114.23 49.2079 114.23C49.4803 114.228 49.752 114.26 50.0168 114.325C50.2865 114.393 50.5495 114.485 50.8028 114.6L50.3954 115.569C50.19 115.476 49.9778 115.399 49.7608 115.339C49.5838 115.284 49.4003 115.252 49.2151 115.245C48.9747 115.245 48.8461 115.305 48.8461 115.426C48.8486 115.466 48.8618 115.505 48.8844 115.539C48.907 115.572 48.9382 115.599 48.9747 115.617C49.2166 115.737 49.465 115.844 49.7187 115.938C49.9623 116.028 50.192 116.153 50.4014 116.307C50.5444 116.419 50.6579 116.565 50.7319 116.731C50.8087 116.921 50.846 117.124 50.8413 117.329Z" fill="white"/>
</g>
<path d="M93.8847 87.3798H84.3823C84.0249 87.3798 83.6823 87.5217 83.4295 87.7744C83.1769 88.0271 83.0349 88.3698 83.0349 88.7271V94.4182C83.0349 94.7755 83.1769 95.1182 83.4295 95.3709C83.6823 95.6236 84.0249 95.7655 84.3823 95.7655L83.8029 98.4422H84.8198L87.7152 95.7655H93.8847C94.0617 95.7657 94.2371 95.7309 94.4007 95.6634C94.5642 95.5957 94.7129 95.4964 94.8382 95.3713C94.9634 95.2462 95.0628 95.0976 95.1306 94.934C95.1984 94.7705 95.2332 94.5952 95.2332 94.4182V88.7319C95.2338 88.5545 95.1995 88.3787 95.1319 88.2145C95.0645 88.0504 94.9652 87.9013 94.8398 87.7757C94.7146 87.6501 94.5657 87.5504 94.4017 87.4824C94.2379 87.4145 94.0621 87.3796 93.8847 87.3798Z" fill="#009945"/>
<path d="M92.869 87.3798H83.3654C83.0081 87.3798 82.6654 87.5217 82.4127 87.7744C82.16 88.0271 82.0181 88.3698 82.0181 88.7271V94.4182C82.0181 94.7755 82.16 95.1182 82.4127 95.3709C82.6654 95.6236 83.0081 95.7655 83.3654 95.7655H83.8029V98.4422L86.6983 95.7655H92.869C93.2263 95.7655 93.5691 95.6236 93.8217 95.3709C94.0744 95.1182 94.2163 94.7755 94.2163 94.4182V88.7319C94.2169 88.5546 94.1826 88.3788 94.1151 88.2149C94.0477 88.0508 93.9485 87.9018 93.8234 87.776C93.6982 87.6504 93.5495 87.5508 93.3857 87.4828C93.222 87.4147 93.0464 87.3798 92.869 87.3798Z" fill="#00D569"/>
<path d="M85.9892 93.0818H85.5649V91.9171H84.375V93.0818H83.9519V90.4977H84.375V91.5541H85.5661V90.4977H85.9904L85.9892 93.0818Z" fill="white"/>
<path d="M87.5625 93.0817H87.1394V90.8653H86.3798V90.5048H88.3221V90.8653H87.5625V93.0817Z" fill="white"/>
<path d="M89.8353 93.0817L89.0865 90.9183H89.0721C89.0929 91.2388 89.103 91.5393 89.1022 91.8197V93.0769H88.7188V90.4928H89.3137L90.0349 92.5481H90.0445L90.7837 90.4928H91.3846V93.0769H90.9784V91.8041C90.9784 91.6755 90.9784 91.5072 90.988 91.3017C90.9976 91.0962 91 90.97 91.0048 90.9267H90.9856L90.2103 93.0817H89.8353Z" fill="white"/>
<path d="M92.0588 93.0818V90.4977H92.4819V92.7188H93.5757V93.0794L92.0588 93.0818Z" fill="white"/>
<g opacity="0.65">
<path opacity="0.65" d="M78.8162 85.5361C78.816 84.4174 78.4933 83.3226 77.8867 82.3827C77.2801 81.4428 76.4152 80.6979 75.396 80.237C74.3766 79.7762 73.2461 79.6191 72.1397 79.7845C71.0334 79.95 69.9983 80.431 69.1584 81.17C68.3185 81.9088 67.7094 82.8743 67.4044 83.9505C67.0994 85.0267 67.1111 86.1682 67.4383 87.2379C67.7655 88.3076 68.3942 89.2602 69.2491 89.9816C70.104 90.7031 71.149 91.1626 72.2585 91.3053L73.0397 93.7885H73.9472L74.7296 91.0926C75.9144 90.7233 76.9499 89.985 77.6852 88.9854C78.4204 87.9856 78.8166 86.7771 78.8162 85.5361Z" fill="#C12A1F"/>
<path opacity="0.65" d="M77.9087 85.5361C77.9086 84.4174 77.5859 83.3226 76.9793 82.3827C76.3727 81.4428 75.5079 80.6979 74.4885 80.237C73.4692 79.7762 72.3387 79.6191 71.2323 79.7845C70.1259 79.95 69.0908 80.431 68.2509 81.17C67.411 81.9088 66.802 82.8743 66.4969 83.9505C66.1919 85.0267 66.2037 86.1682 66.5308 87.2379C66.858 88.3076 67.4868 89.2602 68.3418 89.9816C69.1967 90.7031 70.2415 91.1626 71.351 91.3053L73.0337 93.7885L73.8162 91.0926C75.002 90.7244 76.039 89.9864 76.7753 88.9867C77.5117 87.9869 77.9089 86.7778 77.9087 85.5361Z" fill="#ED442E"/>
<path opacity="0.65" d="M70.619 84.774C70.6279 84.9197 70.6055 85.0656 70.5535 85.202C70.5016 85.3384 70.4209 85.4621 70.3173 85.5649C70.1154 85.75 69.8365 85.8437 69.4603 85.8437H69.2308V86.8557H68.4062V83.8041H69.4627C69.8474 83.8041 70.1366 83.8882 70.3305 84.0565C70.4289 84.1471 70.5058 84.2585 70.5557 84.3827C70.6055 84.5068 70.6272 84.6405 70.619 84.774ZM69.2284 85.1706H69.3786C69.4868 85.176 69.5929 85.1389 69.6743 85.0673C69.7114 85.0294 69.7404 84.9842 69.7593 84.9346C69.778 84.8848 69.7863 84.8318 69.7837 84.7788C69.7837 84.5721 69.6695 84.4699 69.4411 84.4699H69.2308L69.2284 85.1706Z" fill="white"/>
<path opacity="0.65" d="M73.7201 86.8557H72.8919V85.6117H71.9304V86.8557H71.1011V83.8041H71.9304V84.9351H72.8919V83.8041H73.7201V86.8557Z" fill="white"/>
<path opacity="0.65" d="M76.595 84.774C76.6039 84.9197 76.5815 85.0656 76.5296 85.202C76.4776 85.3384 76.397 85.4621 76.2933 85.5649C76.0926 85.75 75.8126 85.8437 75.4364 85.8437H75.2044V86.8557H74.3799V83.8041H75.4364C75.8218 83.8041 76.1115 83.8882 76.3053 84.0565C76.404 84.147 76.4812 84.2584 76.5313 84.3824C76.5814 84.5066 76.6032 84.6404 76.595 84.774ZM75.2044 85.1706H75.3606C75.4689 85.176 75.5749 85.1389 75.6563 85.0673C75.6937 85.0295 75.7229 84.9843 75.7416 84.9347C75.7605 84.8849 75.7687 84.8318 75.7657 84.7788C75.7657 84.5721 75.6455 84.4699 75.4231 84.4699H75.2104L75.2044 85.1706Z" fill="white"/>
</g>
<path d="M61.9195 85.8533C60.5921 84.6835 58.9555 83.9214 57.2059 83.6583C55.4562 83.395 53.6678 83.6421 52.055 84.3697C50.4423 85.0973 49.0735 86.2746 48.1131 87.7605C47.1525 89.2464 46.6409 90.9777 46.6395 92.747C46.6381 94.5163 47.147 96.2485 48.1053 97.7358C49.0634 99.2232 50.4303 100.403 52.0419 101.133C53.6536 101.863 55.4416 102.113 57.1916 101.852C58.9416 101.592 60.5794 100.832 61.9086 99.6646L65.6719 101.334L66.6202 100.252L64.2392 96.5144C65.0401 94.7223 65.2471 92.721 64.8298 90.803C64.4124 88.8849 63.3927 87.1506 61.9195 85.8533Z" fill="#0E1C56"/>
<path d="M60.9711 86.9303C59.6438 85.7609 58.0074 84.9991 56.2581 84.7362C54.5089 84.4733 52.7208 84.7204 51.1084 85.4481C49.496 86.1756 48.1276 87.3528 47.1674 88.8383C46.2071 90.324 45.6955 92.055 45.6942 93.824C45.6928 95.5929 46.2015 97.3248 47.1596 98.8119C48.1175 100.299 49.484 101.478 51.0953 102.208C52.7066 102.938 54.4942 103.188 56.2438 102.928C57.9936 102.668 59.6312 101.909 60.9603 100.742L65.6718 101.334L63.2908 97.5865C64.0907 95.7951 64.2971 93.7948 63.8798 91.8778C63.4625 89.9607 62.4433 88.2272 60.9711 86.9303Z" fill="#1B65F8"/>
<path d="M51.2993 92.601C51.1393 92.5958 50.9806 92.6323 50.8389 92.7065C50.6971 92.7809 50.577 92.8907 50.4904 93.0253C50.2972 93.3089 50.2004 93.6996 50.1995 94.1972C50.1995 95.2317 50.5929 95.7488 51.3798 95.7488C51.6142 95.7492 51.8473 95.7156 52.0721 95.6491C52.3001 95.5809 52.5244 95.5006 52.744 95.4087V96.6347C52.2634 96.8402 51.7449 96.9419 51.2223 96.9327C50.4114 96.9327 49.7893 96.6975 49.3558 96.2272C48.9222 95.7569 48.7059 95.0758 48.7067 94.1839C48.6955 93.6768 48.8034 93.1742 49.0216 92.7164C49.2181 92.3087 49.5332 91.9698 49.9255 91.744C50.3499 91.5094 50.829 91.3921 51.3137 91.4039C51.8905 91.4027 52.46 91.5321 52.9796 91.7825L52.5348 92.9255C52.3399 92.8325 52.1392 92.7522 51.9339 92.6851C51.728 92.6244 51.5139 92.5961 51.2993 92.601Z" fill="white"/>
<path d="M54.8437 94.7007H53.476V93.7151H54.8437V92.3654H55.8329V93.7151H57.2007V94.7007H55.8329V96.0228H54.8437V94.7007Z" fill="white"/>
<path d="M59.1058 94.7007H57.738V93.7151H59.1058V92.3654H60.0962V93.7151H61.464V94.7007H60.0962V96.0228H59.107L59.1058 94.7007Z" fill="white"/>
<path fill-rule="evenodd" clip-rule="evenodd" d="M194.262 172.465H181.24C180.732 172.478 180.25 172.689 179.895 173.052C179.54 173.416 179.341 173.904 179.341 174.411C179.341 174.919 179.54 175.407 179.895 175.772C180.25 176.135 180.732 176.346 181.24 176.358H194.262C194.77 176.346 195.252 176.135 195.607 175.772C195.963 175.407 196.161 174.919 196.161 174.411C196.161 173.904 195.963 173.416 195.607 173.052C195.252 172.689 194.77 172.478 194.262 172.465Z" fill="#00D569"/>
<path fill-rule="evenodd" clip-rule="evenodd" d="M165.133 172.692H181.786C182.242 172.693 182.678 172.875 183 173.197C183.322 173.519 183.505 173.955 183.506 174.411C183.505 174.867 183.323 175.304 183.001 175.626C182.679 175.948 182.242 176.13 181.786 176.131H165.133V172.692Z" fill="white"/>
<path fill-rule="evenodd" clip-rule="evenodd" d="M165.133 172.465C165.102 172.463 165.071 172.468 165.042 172.477C165.012 172.488 164.986 172.504 164.963 172.525C164.94 172.547 164.921 172.572 164.909 172.601C164.897 172.63 164.889 172.661 164.889 172.692C164.889 172.722 164.897 172.754 164.909 172.782C164.921 172.811 164.94 172.837 164.963 172.858C164.986 172.88 165.012 172.895 165.042 172.906C165.071 172.916 165.102 172.921 165.133 172.918H181.786C182.174 172.929 182.544 173.091 182.815 173.37C183.087 173.649 183.238 174.023 183.238 174.411C183.238 174.8 183.087 175.174 182.815 175.453C182.544 175.732 182.174 175.894 181.786 175.905H165.133C165.102 175.903 165.071 175.907 165.042 175.917C165.012 175.928 164.986 175.943 164.963 175.965C164.94 175.987 164.921 176.012 164.909 176.041C164.897 176.07 164.889 176.101 164.889 176.132C164.889 176.162 164.897 176.193 164.909 176.222C164.921 176.251 164.94 176.276 164.963 176.298C164.986 176.32 165.012 176.335 165.042 176.346C165.071 176.356 165.102 176.361 165.133 176.358H181.786C182.294 176.346 182.776 176.135 183.131 175.772C183.487 175.407 183.685 174.919 183.685 174.411C183.685 173.904 183.487 173.416 183.131 173.052C182.776 172.689 182.294 172.478 181.786 172.465H165.133Z" fill="#7DF9B2"/>
<path fill-rule="evenodd" clip-rule="evenodd" d="M193.662 174.411C193.66 173.895 193.454 173.401 193.09 173.037C192.725 172.672 192.231 172.466 191.715 172.465H193.409C193.917 172.478 194.399 172.689 194.753 173.052C195.109 173.416 195.308 173.904 195.308 174.411C195.308 174.919 195.109 175.407 194.753 175.772C194.399 176.135 193.917 176.346 193.409 176.358H191.715C192.231 176.357 192.726 176.151 193.09 175.786C193.455 175.422 193.661 174.927 193.662 174.411Z" fill="#7DF9B2"/>
<path fill-rule="evenodd" clip-rule="evenodd" d="M191.209 174.411C191.207 173.895 191.001 173.401 190.637 173.037C190.272 172.672 189.778 172.466 189.262 172.465H190.956C191.464 172.478 191.946 172.689 192.301 173.052C192.656 173.416 192.855 173.904 192.855 174.411C192.855 174.919 192.656 175.407 192.301 175.772C191.946 176.135 191.464 176.346 190.956 176.358H189.262C189.778 176.357 190.273 176.151 190.637 175.786C191.003 175.422 191.208 174.927 191.209 174.411Z" fill="#7DF9B2"/>
<path fill-rule="evenodd" clip-rule="evenodd" d="M168.557 169.057H179.959C180.411 169.057 180.845 169.236 181.165 169.555C181.484 169.875 181.663 170.309 181.663 170.761C181.663 171.213 181.484 171.647 181.165 171.966C180.845 172.286 180.411 172.465 179.959 172.465H168.557C168.105 172.465 167.671 172.286 167.351 171.966C167.031 171.647 166.852 171.213 166.852 170.761C166.852 170.309 167.031 169.875 167.351 169.555C167.671 169.236 168.105 169.057 168.557 169.057Z" fill="#1B65F8"/>
<path fill-rule="evenodd" clip-rule="evenodd" d="M194.064 169.255H179.481C179.082 169.256 178.7 169.415 178.417 169.697C178.136 169.98 177.977 170.362 177.976 170.761C177.977 171.16 178.136 171.542 178.417 171.824C178.7 172.107 179.082 172.266 179.481 172.267H194.064V169.255Z" fill="white"/>
<path fill-rule="evenodd" clip-rule="evenodd" d="M194.064 169.057C194.117 169.057 194.167 169.077 194.204 169.114C194.242 169.151 194.262 169.202 194.262 169.255C194.262 169.308 194.242 169.358 194.204 169.395C194.167 169.433 194.117 169.453 194.064 169.453H179.481C179.133 169.453 178.802 169.591 178.557 169.837C178.311 170.082 178.173 170.413 178.173 170.761C178.173 171.108 178.311 171.44 178.557 171.685C178.802 171.93 179.133 172.069 179.481 172.069H194.064C194.117 172.069 194.167 172.089 194.204 172.126C194.242 172.163 194.262 172.214 194.262 172.267C194.262 172.32 194.242 172.37 194.204 172.407C194.167 172.445 194.117 172.465 194.064 172.465H179.481C179.029 172.465 178.595 172.286 178.275 171.966C177.956 171.647 177.776 171.213 177.776 170.761C177.776 170.309 177.956 169.875 178.275 169.555C178.595 169.236 179.029 169.057 179.481 169.057H194.064Z" fill="#6E9EEA"/>
<path fill-rule="evenodd" clip-rule="evenodd" d="M169.082 170.761C169.083 170.309 169.263 169.876 169.583 169.557C169.903 169.237 170.335 169.058 170.787 169.057H169.304C168.852 169.057 168.418 169.236 168.099 169.555C167.779 169.875 167.6 170.309 167.6 170.761C167.6 171.213 167.779 171.647 168.099 171.966C168.418 172.286 168.852 172.465 169.304 172.465H170.793C170.341 172.464 169.909 172.285 169.589 171.965C169.269 171.645 169.089 171.213 169.088 170.761H169.082Z" fill="#6E9EEA"/>
<path fill-rule="evenodd" clip-rule="evenodd" d="M171.23 170.761C171.231 170.309 171.411 169.876 171.73 169.557C172.049 169.238 172.482 169.058 172.934 169.057H171.452C171 169.057 170.566 169.236 170.246 169.555C169.927 169.875 169.748 170.309 169.748 170.761C169.748 171.213 169.927 171.647 170.246 171.966C170.566 172.286 171 172.465 171.452 172.465H172.934C172.482 172.464 172.049 172.284 171.73 171.965C171.411 171.645 171.231 171.213 171.23 170.761Z" fill="#6E9EEA"/>
<path fill-rule="evenodd" clip-rule="evenodd" d="M189.635 165.648H181.155C180.703 165.648 180.269 165.827 179.949 166.147C179.63 166.466 179.451 166.9 179.451 167.352C179.451 167.804 179.63 168.238 179.949 168.558C180.269 168.877 180.703 169.056 181.155 169.056H189.635C190.087 169.056 190.52 168.877 190.84 168.558C191.16 168.238 191.339 167.804 191.339 167.352C191.339 166.9 191.16 166.466 190.84 166.147C190.52 165.827 190.087 165.648 189.635 165.648Z" fill="#0E1C56"/>
<path fill-rule="evenodd" clip-rule="evenodd" d="M171.452 165.846H181.633C182.032 165.847 182.415 166.006 182.697 166.288C182.98 166.571 183.138 166.953 183.139 167.352C183.138 167.751 182.98 168.133 182.697 168.416C182.415 168.698 182.032 168.857 181.633 168.858H171.452V165.846Z" fill="white"/>
<path fill-rule="evenodd" clip-rule="evenodd" d="M171.452 165.648C171.399 165.648 171.349 165.668 171.311 165.706C171.274 165.743 171.254 165.793 171.254 165.846C171.254 165.899 171.274 165.95 171.311 165.987C171.349 166.024 171.399 166.044 171.452 166.044H181.633C181.973 166.055 182.296 166.197 182.532 166.441C182.769 166.685 182.901 167.012 182.901 167.351C182.901 167.691 182.769 168.018 182.532 168.262C182.296 168.506 181.973 168.648 181.633 168.659H171.452C171.401 168.662 171.355 168.685 171.321 168.722C171.287 168.758 171.268 168.808 171.268 168.858C171.268 168.907 171.287 168.957 171.321 168.993C171.355 169.03 171.401 169.053 171.452 169.056H181.633C182.085 169.056 182.519 168.877 182.839 168.558C183.158 168.238 183.338 167.804 183.338 167.352C183.338 166.9 183.158 166.466 182.839 166.147C182.519 165.827 182.085 165.648 181.633 165.648H171.452Z" fill="#576FBC"/>
<path fill-rule="evenodd" clip-rule="evenodd" d="M189.109 167.352C189.108 166.9 188.929 166.468 188.609 166.148C188.29 165.828 187.857 165.649 187.405 165.648H188.888C189.34 165.648 189.774 165.827 190.094 166.147C190.413 166.466 190.593 166.9 190.593 167.352C190.593 167.804 190.413 168.238 190.094 168.558C189.774 168.877 189.34 169.056 188.888 169.056H187.405C187.857 169.055 188.29 168.875 188.609 168.556C188.928 168.237 189.108 167.804 189.109 167.352Z" fill="#576FBC"/>
<path fill-rule="evenodd" clip-rule="evenodd" d="M186.962 167.352C186.96 166.9 186.781 166.468 186.462 166.148C186.142 165.828 185.709 165.649 185.257 165.648H186.74C187.192 165.648 187.626 165.827 187.946 166.147C188.266 166.466 188.445 166.9 188.445 167.352C188.445 167.804 188.266 168.238 187.946 168.558C187.626 168.877 187.192 169.056 186.74 169.056H185.257C185.709 169.055 186.142 168.875 186.46 168.556C186.78 168.237 186.96 167.804 186.962 167.352Z" fill="#576FBC"/>
<path d="M299.308 64.4856H160.893C160.557 64.4856 160.284 64.7584 160.284 65.095V145.701C160.284 146.037 160.557 146.31 160.893 146.31H299.308C299.644 146.31 299.917 146.037 299.917 145.701V65.095C299.917 64.7584 299.644 64.4856 299.308 64.4856Z" fill="#D9ECFA"/>
<path d="M295.945 55.6622H164.255C163.203 55.6622 162.194 56.0801 161.451 56.8239C160.707 57.5678 160.288 58.5767 160.288 59.6286V70.2885H299.916V59.6334C299.917 59.1118 299.814 58.5951 299.615 58.113C299.416 57.6309 299.122 57.1929 298.753 56.8239C298.386 56.455 297.947 56.1626 297.465 55.9632C296.983 55.7639 296.466 55.6616 295.945 55.6622Z" fill="#006DFE"/>
<path opacity="0.4" d="M295.945 55.6622H164.255C163.203 55.6622 162.194 56.0801 161.451 56.8239C160.707 57.5678 160.288 58.5767 160.288 59.6286V59.7704C160.288 58.7185 160.707 57.7096 161.451 56.9658C162.194 56.222 163.203 55.8041 164.255 55.8041H295.945C296.996 55.8041 298.006 56.222 298.749 56.9658C299.493 57.7096 299.911 58.7185 299.911 59.7704V59.6286C299.911 58.5767 299.493 57.5678 298.749 56.8239C298.006 56.0801 296.996 55.6622 295.945 55.6622Z" fill="#00E6FF"/>
<path d="M294.073 74.6838H166.439C166.161 74.6838 165.936 74.9087 165.936 75.1862V141.034C165.936 141.311 166.161 141.536 166.439 141.536H294.073C294.351 141.536 294.576 141.311 294.576 141.034V75.1862C294.576 74.9087 294.351 74.6838 294.073 74.6838Z" fill="#0E1C56"/>
<path d="M168.119 65.4796C169.501 65.4796 170.623 64.3587 170.623 62.976C170.623 61.5933 169.501 60.4724 168.119 60.4724C166.737 60.4724 165.615 61.5933 165.615 62.976C165.615 64.3587 166.737 65.4796 168.119 65.4796Z" fill="#1F2A83"/>
<path d="M179.569 65.4796C180.951 65.4796 182.072 64.3587 182.072 62.976C182.072 61.5933 180.951 60.4724 179.569 60.4724C178.186 60.4724 177.065 61.5933 177.065 62.976C177.065 64.3587 178.186 65.4796 179.569 65.4796Z" fill="#FFB100"/>
<path d="M191.017 65.4796C192.399 65.4796 193.52 64.3587 193.52 62.976C193.52 61.5933 192.399 60.4724 191.017 60.4724C189.635 60.4724 188.513 61.5933 188.513 62.976C188.513 64.3587 189.635 65.4796 191.017 65.4796Z" fill="#45D788"/>
<path d="M172.716 85.2729C172.648 85.273 172.579 85.2594 172.516 85.233C172.452 85.2065 172.394 85.1678 172.345 85.119L169.274 82.0481C169.225 81.9994 169.186 81.9416 169.16 81.878C169.133 81.8143 169.12 81.7462 169.12 81.6773C169.12 81.6084 169.133 81.5403 169.16 81.4766C169.186 81.413 169.225 81.3552 169.274 81.3065L172.356 78.2332C172.454 78.1349 172.588 78.0796 172.726 78.0796C172.865 78.0796 172.999 78.1349 173.097 78.2332C173.196 78.3315 173.251 78.4649 173.251 78.604C173.251 78.743 173.196 78.8765 173.097 78.9748L170.394 81.6779L173.089 84.375C173.162 84.4485 173.211 84.5418 173.232 84.6434C173.251 84.745 173.242 84.8503 173.202 84.9459C173.162 85.0416 173.095 85.1235 173.01 85.1812C172.923 85.239 172.822 85.27 172.719 85.2705L172.716 85.2729Z" fill="#00D569"/>
<path d="M180.45 85.2729C180.346 85.2726 180.245 85.2417 180.159 85.184C180.072 85.1265 180.005 85.0446 179.965 84.9488C179.925 84.8532 179.916 84.7477 179.935 84.6461C179.956 84.5444 180.005 84.451 180.078 84.3774L182.778 81.6779L180.075 78.9749C179.983 78.8751 179.933 78.7436 179.936 78.608C179.939 78.4725 179.994 78.3433 180.09 78.2475C180.186 78.1517 180.315 78.0967 180.451 78.0941C180.587 78.0914 180.718 78.1413 180.817 78.2333L183.894 81.3066C183.944 81.3552 183.982 81.413 184.008 81.4766C184.035 81.5403 184.048 81.6085 184.048 81.6773C184.048 81.7462 184.035 81.8144 184.008 81.8781C183.982 81.9416 183.944 81.9995 183.894 82.0481L180.825 85.119C180.775 85.1682 180.716 85.2071 180.653 85.2334C180.588 85.2599 180.519 85.2732 180.45 85.2729Z" fill="#00D569"/>
<path d="M175.284 85.7993C175.222 85.7998 175.161 85.7888 175.103 85.7669C175.038 85.7434 174.98 85.7074 174.928 85.6609C174.877 85.6144 174.837 85.5583 174.808 85.496C174.778 85.4336 174.762 85.366 174.758 85.2973C174.756 85.2284 174.766 85.1597 174.79 85.095L177.23 78.4231C177.251 78.3556 177.286 78.2929 177.332 78.2392C177.379 78.1854 177.435 78.1416 177.499 78.1103C177.562 78.079 177.632 78.061 177.702 78.0572C177.773 78.0535 177.844 78.0641 177.911 78.0885C177.977 78.1128 178.038 78.1504 178.09 78.199C178.142 78.2475 178.183 78.306 178.211 78.3711C178.24 78.436 178.255 78.5061 178.256 78.577C178.256 78.6479 178.243 78.7182 178.215 78.7837L175.776 85.4568C175.739 85.5574 175.672 85.6442 175.584 85.7053C175.495 85.7666 175.391 85.7995 175.284 85.7993Z" fill="#00D569"/>
<path d="M186.785 86.1959C187.263 86.1959 187.651 85.808 187.651 85.3294C187.651 84.8507 187.263 84.4628 186.785 84.4628C186.307 84.4628 185.918 84.8507 185.918 85.3294C185.918 85.808 186.307 86.1959 186.785 86.1959Z" fill="#00D569"/>
<path d="M190.374 86.1959C190.852 86.1959 191.24 85.808 191.24 85.3294C191.24 84.8507 190.852 84.4628 190.374 84.4628C189.895 84.4628 189.507 84.8507 189.507 85.3294C189.507 85.808 189.895 86.1959 190.374 86.1959Z" fill="#00D569"/>
<path d="M193.963 86.1959C194.441 86.1959 194.829 85.808 194.829 85.3294C194.829 84.8507 194.441 84.4628 193.963 84.4628C193.484 84.4628 193.096 84.8507 193.096 85.3294C193.096 85.808 193.484 86.1959 193.963 86.1959Z" fill="#00D569"/>
<path d="M263.582 92.1009H171.19C171.119 92.1043 171.048 92.0933 170.981 92.0685C170.915 92.0436 170.853 92.0055 170.803 91.9565C170.751 91.9074 170.71 91.8484 170.681 91.783C170.654 91.7178 170.639 91.6473 170.639 91.5763C170.639 91.5051 170.654 91.4348 170.681 91.3695C170.71 91.3042 170.751 91.2451 170.803 91.1961C170.853 91.1471 170.915 91.109 170.981 91.0841C171.048 91.0593 171.119 91.0482 171.19 91.0516H263.582C263.653 91.0482 263.724 91.0593 263.791 91.0841C263.857 91.109 263.918 91.1471 263.969 91.1961C264.02 91.2451 264.061 91.3042 264.09 91.3695C264.118 91.4348 264.132 91.5051 264.132 91.5763C264.132 91.6473 264.118 91.7178 264.09 91.783C264.061 91.8484 264.02 91.9074 263.969 91.9565C263.918 92.0055 263.857 92.0436 263.791 92.0685C263.724 92.0933 263.653 92.1043 263.582 92.1009Z" fill="#00D569"/>
<path d="M276.301 92.1009H269.18C269.046 92.0945 268.918 92.0364 268.826 91.9387C268.732 91.8411 268.68 91.7113 268.68 91.5763C268.68 91.4413 268.732 91.3115 268.826 91.2139C268.918 91.1162 269.046 91.0581 269.18 91.0516H276.301C276.371 91.0482 276.442 91.0593 276.51 91.0841C276.576 91.109 276.637 91.1471 276.688 91.1961C276.739 91.2451 276.78 91.3042 276.809 91.3695C276.837 91.4348 276.851 91.5051 276.851 91.5763C276.851 91.6473 276.837 91.7178 276.809 91.783C276.78 91.8484 276.739 91.9074 276.688 91.9565C276.637 92.0055 276.576 92.0436 276.51 92.0685C276.442 92.0933 276.371 92.1043 276.301 92.1009Z" fill="#00D569"/>
<path d="M289.387 92.1009H280.299C280.165 92.0945 280.037 92.0364 279.945 91.9387C279.851 91.8411 279.799 91.7113 279.799 91.5763C279.799 91.4413 279.851 91.3115 279.945 91.2139C280.037 91.1162 280.165 91.0581 280.299 91.0516H289.387C289.458 91.0482 289.529 91.0593 289.596 91.0841C289.662 91.109 289.724 91.1471 289.774 91.1961C289.826 91.2451 289.867 91.3042 289.895 91.3695C289.923 91.4348 289.937 91.5051 289.937 91.5763C289.937 91.6473 289.923 91.7178 289.895 91.783C289.867 91.8484 289.826 91.9074 289.774 91.9565C289.724 92.0055 289.662 92.0436 289.596 92.0685C289.529 92.0933 289.458 92.1043 289.387 92.1009Z" fill="#00D569"/>
<path d="M228.987 99.3714H171.185C171.114 99.3748 171.043 99.3637 170.976 99.3389C170.91 99.3141 170.849 99.276 170.798 99.2269C170.746 99.1779 170.706 99.1189 170.677 99.0535C170.649 98.9882 170.635 98.9178 170.635 98.8468C170.635 98.7757 170.649 98.7053 170.677 98.6399C170.706 98.5747 170.746 98.5156 170.798 98.4666C170.849 98.4176 170.91 98.3795 170.976 98.3546C171.043 98.3298 171.114 98.3188 171.185 98.3221H228.987C229.121 98.3286 229.249 98.3867 229.341 98.4844C229.435 98.582 229.487 98.7118 229.487 98.8468C229.487 98.9817 229.435 99.1115 229.341 99.2091C229.249 99.3069 229.121 99.3649 228.987 99.3714Z" fill="#1B65F8"/>
<path d="M247.946 99.3714H237.587C237.516 99.3748 237.445 99.3637 237.377 99.3389C237.311 99.3141 237.25 99.276 237.2 99.2269C237.148 99.1779 237.107 99.1189 237.078 99.0535C237.05 98.9882 237.036 98.9178 237.036 98.8468C237.036 98.7757 237.05 98.7053 237.078 98.6399C237.107 98.5747 237.148 98.5156 237.2 98.4666C237.25 98.4176 237.311 98.3795 237.377 98.3546C237.445 98.3298 237.516 98.3188 237.587 98.3221H247.946C248.017 98.3188 248.088 98.3298 248.155 98.3546C248.221 98.3795 248.282 98.4176 248.333 98.4666C248.385 98.5156 248.425 98.5747 248.454 98.6399C248.482 98.7053 248.496 98.7757 248.496 98.8468C248.496 98.9178 248.482 98.9882 248.454 99.0535C248.425 99.1189 248.385 99.1779 248.333 99.2269C248.282 99.276 248.221 99.3141 248.155 99.3389C248.088 99.3637 248.017 99.3748 247.946 99.3714Z" fill="#1B65F8"/>
<path d="M247.946 103.552H219.821C219.75 103.555 219.679 103.544 219.612 103.519C219.546 103.494 219.484 103.456 219.434 103.407C219.382 103.358 219.341 103.299 219.313 103.234C219.285 103.169 219.27 103.098 219.27 103.027C219.27 102.956 219.285 102.886 219.313 102.82C219.341 102.755 219.382 102.696 219.434 102.647C219.484 102.598 219.546 102.56 219.612 102.535C219.679 102.51 219.75 102.499 219.821 102.502H247.946C248.017 102.499 248.088 102.51 248.155 102.535C248.221 102.56 248.282 102.598 248.333 102.647C248.385 102.696 248.425 102.755 248.454 102.82C248.482 102.886 248.496 102.956 248.496 103.027C248.496 103.098 248.482 103.169 248.454 103.234C248.425 103.299 248.385 103.358 248.333 103.407C248.282 103.456 248.221 103.494 248.155 103.519C248.088 103.544 248.017 103.555 247.946 103.552Z" fill="#1B65F8"/>
<path d="M215.957 103.552H210.288C210.154 103.545 210.026 103.487 209.934 103.389C209.84 103.292 209.788 103.162 209.788 103.027C209.788 102.892 209.84 102.762 209.934 102.665C210.026 102.567 210.154 102.509 210.288 102.502H215.957C216.091 102.509 216.219 102.567 216.311 102.665C216.405 102.762 216.457 102.892 216.457 103.027C216.457 103.162 216.405 103.292 216.311 103.389C216.219 103.487 216.091 103.545 215.957 103.552Z" fill="#1B65F8"/>
<path d="M205.786 103.552H200.12C199.986 103.545 199.858 103.487 199.766 103.389C199.672 103.292 199.62 103.162 199.62 103.027C199.62 102.892 199.672 102.762 199.766 102.665C199.858 102.567 199.986 102.509 200.12 102.502H205.788C205.859 102.499 205.93 102.51 205.998 102.535C206.064 102.56 206.125 102.598 206.175 102.647C206.227 102.696 206.268 102.755 206.297 102.82C206.325 102.886 206.339 102.956 206.339 103.027C206.339 103.098 206.325 103.169 206.297 103.234C206.268 103.299 206.227 103.358 206.175 103.407C206.125 103.456 206.064 103.494 205.998 103.519C205.93 103.544 205.859 103.555 205.788 103.552H205.786Z" fill="#1B65F8"/>
<path d="M195.615 103.552H189.948C189.877 103.555 189.806 103.544 189.739 103.519C189.673 103.494 189.612 103.456 189.561 103.407C189.51 103.358 189.469 103.299 189.44 103.234C189.412 103.169 189.398 103.098 189.398 103.027C189.398 102.956 189.412 102.886 189.44 102.82C189.469 102.755 189.51 102.696 189.561 102.647C189.612 102.598 189.673 102.56 189.739 102.535C189.806 102.51 189.877 102.499 189.948 102.502H195.615C195.686 102.499 195.757 102.51 195.825 102.535C195.891 102.56 195.952 102.598 196.002 102.647C196.054 102.696 196.095 102.755 196.124 102.82C196.151 102.886 196.166 102.956 196.166 103.027C196.166 103.098 196.151 103.169 196.124 103.234C196.095 103.299 196.054 103.358 196.002 103.407C195.952 103.456 195.891 103.494 195.825 103.519C195.757 103.544 195.686 103.555 195.615 103.552Z" fill="#1B65F8"/>
<path d="M185.446 103.552H179.778C179.707 103.555 179.636 103.544 179.569 103.519C179.502 103.494 179.441 103.456 179.391 103.407C179.339 103.358 179.298 103.299 179.269 103.234C179.242 103.169 179.227 103.098 179.227 103.027C179.227 102.956 179.242 102.886 179.269 102.82C179.298 102.755 179.339 102.696 179.391 102.647C179.441 102.598 179.502 102.56 179.569 102.535C179.636 102.51 179.707 102.499 179.778 102.502H185.446C185.581 102.509 185.708 102.567 185.8 102.665C185.894 102.762 185.946 102.892 185.946 103.027C185.946 103.162 185.894 103.292 185.8 103.389C185.708 103.487 185.581 103.545 185.446 103.552Z" fill="#1B65F8"/>
<path d="M267.428 108.635H179.778C179.707 108.638 179.636 108.627 179.569 108.602C179.502 108.577 179.441 108.539 179.391 108.49C179.339 108.441 179.298 108.382 179.269 108.317C179.242 108.251 179.227 108.181 179.227 108.11C179.227 108.039 179.242 107.968 179.269 107.903C179.298 107.838 179.339 107.779 179.391 107.73C179.441 107.681 179.502 107.643 179.569 107.618C179.636 107.593 179.707 107.582 179.778 107.585H267.428C267.563 107.592 267.69 107.65 267.782 107.748C267.876 107.845 267.928 107.975 267.928 108.11C267.928 108.245 267.876 108.375 267.782 108.472C267.69 108.57 267.563 108.628 267.428 108.635Z" fill="#FFB100"/>
<path d="M173.229 103.552H171.186C171.115 103.555 171.044 103.544 170.977 103.519C170.911 103.494 170.85 103.456 170.799 103.407C170.748 103.358 170.707 103.299 170.678 103.234C170.65 103.169 170.636 103.098 170.636 103.027C170.636 102.956 170.65 102.886 170.678 102.82C170.707 102.755 170.748 102.696 170.799 102.647C170.85 102.598 170.911 102.56 170.977 102.535C171.044 102.51 171.115 102.499 171.186 102.502H173.229C173.3 102.499 173.371 102.51 173.439 102.535C173.505 102.56 173.566 102.598 173.616 102.647C173.668 102.696 173.709 102.755 173.738 102.82C173.765 102.886 173.78 102.956 173.78 103.027C173.78 103.098 173.765 103.169 173.738 103.234C173.709 103.299 173.668 103.358 173.616 103.407C173.566 103.456 173.505 103.494 173.439 103.519C173.371 103.544 173.3 103.555 173.229 103.552Z" fill="#1B65F8"/>
<path d="M173.229 108.635H171.186C171.115 108.638 171.044 108.627 170.977 108.602C170.911 108.577 170.85 108.539 170.799 108.49C170.748 108.441 170.707 108.382 170.678 108.317C170.65 108.251 170.636 108.181 170.636 108.11C170.636 108.039 170.65 107.968 170.678 107.903C170.707 107.838 170.748 107.779 170.799 107.73C170.85 107.681 170.911 107.643 170.977 107.618C171.044 107.593 171.115 107.582 171.186 107.585H173.229C173.3 107.582 173.371 107.593 173.439 107.618C173.505 107.643 173.566 107.681 173.616 107.73C173.668 107.779 173.709 107.838 173.738 107.903C173.765 107.968 173.78 108.039 173.78 108.11C173.78 108.181 173.765 108.251 173.738 108.317C173.709 108.382 173.668 108.441 173.616 108.49C173.566 108.539 173.505 108.577 173.439 108.602C173.371 108.627 173.3 108.638 173.229 108.635Z" fill="#1B65F8"/>
<path d="M173.229 113.718H171.186C171.115 113.721 171.044 113.71 170.977 113.685C170.911 113.66 170.85 113.622 170.799 113.573C170.748 113.524 170.707 113.465 170.678 113.4C170.65 113.334 170.636 113.264 170.636 113.193C170.636 113.122 170.65 113.051 170.678 112.986C170.707 112.921 170.748 112.862 170.799 112.813C170.85 112.764 170.911 112.726 170.977 112.701C171.044 112.676 171.115 112.665 171.186 112.668H173.229C173.3 112.665 173.371 112.676 173.439 112.701C173.505 112.726 173.566 112.764 173.616 112.813C173.668 112.862 173.709 112.921 173.738 112.986C173.765 113.051 173.78 113.122 173.78 113.193C173.78 113.264 173.765 113.334 173.738 113.4C173.709 113.465 173.668 113.524 173.616 113.573C173.566 113.622 173.505 113.66 173.439 113.685C173.371 113.71 173.3 113.721 173.229 113.718Z" fill="#1B65F8"/>
<path d="M173.229 118.8H171.186C171.115 118.804 171.044 118.793 170.977 118.768C170.911 118.743 170.85 118.705 170.799 118.656C170.748 118.607 170.707 118.548 170.678 118.483C170.65 118.417 170.636 118.347 170.636 118.276C170.636 118.205 170.65 118.134 170.678 118.069C170.707 118.004 170.748 117.945 170.799 117.896C170.85 117.847 170.911 117.809 170.977 117.784C171.044 117.759 171.115 117.748 171.186 117.751H173.229C173.3 117.748 173.371 117.759 173.439 117.784C173.505 117.809 173.566 117.847 173.616 117.896C173.668 117.945 173.709 118.004 173.738 118.069C173.765 118.134 173.78 118.205 173.78 118.276C173.78 118.347 173.765 118.417 173.738 118.483C173.709 118.548 173.668 118.607 173.616 118.656C173.566 118.705 173.505 118.743 173.439 118.768C173.371 118.793 173.3 118.804 173.229 118.8Z" fill="#1B65F8"/>
<path d="M284.844 108.635H272.74C272.606 108.628 272.478 108.57 272.386 108.472C272.292 108.375 272.24 108.245 272.24 108.11C272.24 107.975 272.292 107.845 272.386 107.748C272.478 107.65 272.606 107.592 272.74 107.585H284.844C284.978 107.592 285.106 107.65 285.198 107.748C285.292 107.845 285.344 107.975 285.344 108.11C285.344 108.245 285.292 108.375 285.198 108.472C285.106 108.57 284.978 108.628 284.844 108.635Z" fill="#FFB100"/>
<path d="M203.821 113.718H179.567C179.496 113.721 179.425 113.71 179.358 113.685C179.292 113.66 179.231 113.622 179.18 113.573C179.129 113.524 179.088 113.465 179.059 113.4C179.031 113.334 179.017 113.264 179.017 113.193C179.017 113.122 179.031 113.051 179.059 112.986C179.088 112.921 179.129 112.862 179.18 112.813C179.231 112.764 179.292 112.726 179.358 112.701C179.425 112.676 179.496 112.665 179.567 112.668H203.82C203.954 112.675 204.082 112.733 204.174 112.831C204.268 112.928 204.32 113.058 204.32 113.193C204.32 113.328 204.268 113.458 204.174 113.555C204.082 113.653 203.954 113.711 203.82 113.718H203.821Z" fill="#FFB100"/>
<path d="M203.821 118.925H179.567C179.428 118.925 179.295 118.87 179.196 118.772C179.097 118.673 179.042 118.54 179.042 118.4C179.042 118.261 179.097 118.127 179.196 118.029C179.295 117.93 179.428 117.875 179.567 117.875H203.82C203.959 117.875 204.093 117.93 204.191 118.029C204.29 118.127 204.345 118.261 204.345 118.4C204.345 118.54 204.29 118.673 204.191 118.772C204.093 118.87 203.959 118.925 203.82 118.925H203.821Z" fill="#FFB100"/>
<path d="M203.821 124.132H179.567C179.496 124.136 179.425 124.125 179.358 124.1C179.292 124.075 179.231 124.037 179.18 123.988C179.129 123.939 179.088 123.88 179.059 123.815C179.031 123.749 179.017 123.679 179.017 123.608C179.017 123.536 179.031 123.466 179.059 123.4C179.088 123.335 179.129 123.276 179.18 123.227C179.231 123.178 179.292 123.141 179.358 123.115C179.425 123.09 179.496 123.079 179.567 123.083H203.82C203.954 123.089 204.082 123.148 204.174 123.245C204.268 123.343 204.32 123.472 204.32 123.608C204.32 123.743 204.268 123.873 204.174 123.97C204.082 124.067 203.954 124.126 203.82 124.132H203.821Z" fill="#FFB100"/>
<path d="M203.821 129.34H179.567C179.428 129.34 179.295 129.285 179.196 129.186C179.097 129.088 179.042 128.954 179.042 128.815C179.042 128.675 179.097 128.542 179.196 128.444C179.295 128.345 179.428 128.29 179.567 128.29H203.82C203.959 128.29 204.093 128.345 204.191 128.444C204.29 128.542 204.345 128.675 204.345 128.815C204.345 128.954 204.29 129.088 204.191 129.186C204.093 129.285 203.959 129.34 203.82 129.34H203.821Z" fill="#FFB100"/>
<path d="M269.18 129.34H219.821C219.681 129.34 219.548 129.285 219.449 129.186C219.351 129.088 219.296 128.954 219.296 128.815C219.296 128.675 219.351 128.542 219.449 128.444C219.548 128.345 219.681 128.29 219.821 128.29H269.18C269.32 128.29 269.453 128.345 269.552 128.444C269.65 128.542 269.706 128.675 269.706 128.815C269.706 128.954 269.65 129.088 269.552 129.186C269.453 129.285 269.32 129.34 269.18 129.34Z" fill="#ED442E"/>
<path d="M269.18 124.132H249.084C249.013 124.136 248.942 124.125 248.875 124.1C248.809 124.075 248.748 124.037 248.697 123.988C248.645 123.939 248.605 123.88 248.576 123.815C248.548 123.749 248.534 123.679 248.534 123.608C248.534 123.536 248.548 123.466 248.576 123.4C248.605 123.335 248.645 123.276 248.697 123.227C248.748 123.178 248.809 123.141 248.875 123.115C248.942 123.09 249.013 123.079 249.084 123.083H269.18C269.251 123.079 269.322 123.09 269.389 123.115C269.456 123.141 269.517 123.178 269.567 123.227C269.619 123.276 269.66 123.335 269.689 123.4C269.716 123.466 269.731 123.536 269.731 123.608C269.731 123.679 269.716 123.749 269.689 123.815C269.66 123.88 269.619 123.939 269.567 123.988C269.517 124.037 269.456 124.075 269.389 124.1C269.322 124.125 269.251 124.136 269.18 124.132Z" fill="#ED442E"/>
<path d="M269.18 118.8H261.202C261.067 118.794 260.94 118.736 260.847 118.638C260.754 118.541 260.702 118.411 260.702 118.276C260.702 118.141 260.754 118.011 260.847 117.913C260.94 117.816 261.067 117.758 261.202 117.751H269.18C269.251 117.748 269.322 117.759 269.389 117.784C269.455 117.809 269.517 117.847 269.567 117.896C269.619 117.945 269.66 118.004 269.689 118.069C269.716 118.134 269.731 118.205 269.731 118.276C269.731 118.347 269.716 118.417 269.689 118.483C269.66 118.548 269.619 118.607 269.567 118.656C269.517 118.705 269.455 118.743 269.389 118.768C269.322 118.793 269.251 118.804 269.18 118.8Z" fill="#ED442E"/>
<path d="M198.948 120.312L192.632 126.63L193.286 127.284L199.603 120.968L198.948 120.312Z" fill="#ED442E"/>
<path d="M227.959 136.918L217.111 171.686L217.994 171.962L228.843 137.195L227.959 136.918Z" fill="#ED442E"/>
<path d="M200.463 119.623L199.993 120.421L228.471 137.209L228.942 136.412L200.463 119.623Z" fill="#ED442E"/>
<path d="M192.079 134.49L185.537 129.568L188.492 125.641C188.798 125.233 189.255 124.964 189.76 124.892C190.264 124.821 190.778 124.953 191.185 125.26L194.643 127.861C195.05 128.167 195.32 128.623 195.391 129.129C195.463 129.633 195.33 130.145 195.024 130.553L192.068 134.482L192.079 134.49Z" fill="#000E3A"/>
<path d="M192.976 145.907L174.322 131.876L177.227 128.012C177.914 127.101 178.933 126.499 180.063 126.34C181.191 126.18 182.338 126.475 183.25 127.161L195.03 136.022C195.941 136.707 196.543 137.727 196.703 138.856C196.862 139.986 196.567 141.132 195.881 142.043L192.975 145.906L192.976 145.907Z" fill="#ED442E"/>
<path d="M216.016 173.1L216.005 172.236C216 171.835 216.154 171.449 216.433 171.162C216.713 170.875 217.094 170.712 217.494 170.707C217.895 170.701 218.281 170.855 218.567 171.135C218.855 171.413 219.019 171.796 219.024 172.196L219.035 173.06C219.82 173.184 220.535 173.582 221.054 174.181C221.574 174.782 221.865 175.547 221.875 176.341L213.263 176.453C213.252 175.66 213.523 174.887 214.026 174.274C214.53 173.66 215.236 173.244 216.016 173.1Z" fill="#000E3A"/>
<path d="M200.041 121.472C200.841 121.472 201.489 120.825 201.489 120.024C201.489 119.224 200.841 118.576 200.041 118.576C199.241 118.576 198.592 119.224 198.592 120.024C198.592 120.825 199.241 121.472 200.041 121.472Z" fill="#000E3A"/>
<path d="M229.502 137.802C230.037 137.207 229.989 136.291 229.394 135.756C228.799 135.221 227.883 135.27 227.349 135.864C226.814 136.459 226.862 137.375 227.457 137.91C228.052 138.445 228.967 138.397 229.502 137.802Z" fill="#000E3A"/>
<path opacity="0.51" d="M88.1238 107.564C88.1238 107.564 80.4783 108.508 79.1622 104.214C83.173 104.638 85.8702 107.262 88.1238 107.564Z" fill="#051956"/>
<g opacity="0.53">
<path opacity="0.53" d="M267.764 248.269C267.764 248.269 272.443 227.014 281.587 229.139C290.73 231.264 275.261 245.126 267.764 248.269Z" fill="#00D569"/>
<path opacity="0.46" d="M268.88 240.703C268.88 240.703 269.875 230.547 273.659 221.984C276.543 215.456 281.823 207.448 285.408 210.435C290.936 215.04 285.219 221.43 282.62 224.773C279.832 228.357 275.65 231.941 268.88 240.703Z" fill="#00D569"/>
<path opacity="0.46" d="M264.303 236.522C264.303 236.522 253.749 213.222 253.749 199.084C253.749 184.946 266.693 190.322 267.691 199.881C268.689 209.44 266.69 228.158 264.303 236.522Z" fill="#00D569"/>
<path opacity="0.53" d="M261.91 241.698C261.91 241.698 262.511 225.171 259.52 215.413C256.53 205.656 248.569 207.647 247.572 211.829C246.576 216.012 248.169 225.968 261.91 241.698Z" fill="#00D569"/>
<path opacity="0.53" d="M269.143 228.898C269.143 228.898 266.786 212.525 269.083 202.478C271.38 192.431 280.381 193.505 281.908 197.55C283.436 201.596 282.701 211.683 269.143 228.898Z" fill="#00D569"/>
<path opacity="0.53" d="M263.688 258.488L263.417 258.462C263.464 257.044 263.507 255.659 263.546 254.303C263.347 248.123 261.623 234.983 252.569 214.611C252.561 214.594 252.558 214.577 252.557 214.559C252.557 214.541 252.559 214.523 252.566 214.506C252.572 214.489 252.582 214.475 252.594 214.462C252.607 214.448 252.621 214.439 252.638 214.43C252.654 214.423 252.672 214.419 252.69 214.419C252.707 214.418 252.725 214.422 252.742 214.428C252.758 214.435 252.774 214.445 252.787 214.457C252.799 214.469 252.81 214.483 252.817 214.5C260.619 232.048 262.991 244.261 263.629 251.287C264.558 214.857 262.565 202.386 262.547 202.256C262.545 202.222 262.555 202.189 262.576 202.161C262.597 202.135 262.628 202.117 262.661 202.111C262.695 202.106 262.73 202.113 262.759 202.131C262.787 202.15 262.808 202.179 262.816 202.212C262.839 202.345 264.945 215.517 263.822 254.326C263.905 257.065 263.695 258.445 263.688 258.488Z" fill="url(#paint0_linear)"/>
<path opacity="0.53" d="M265.541 255.336H265.524C265.488 255.332 265.455 255.314 265.433 255.285C265.41 255.256 265.4 255.22 265.404 255.184C265.416 255.092 266.671 245.904 278.107 234.391C278.132 234.365 278.167 234.351 278.203 234.351C278.239 234.35 278.274 234.364 278.299 234.391C278.326 234.416 278.34 234.451 278.34 234.487C278.34 234.523 278.326 234.558 278.3 234.583C266.937 246.023 265.686 255.127 265.68 255.217C265.675 255.251 265.659 255.281 265.633 255.303C265.607 255.326 265.575 255.338 265.541 255.336Z" fill="url(#paint1_linear)"/>
<path opacity="0.46" d="M262.094 247.436C262.094 247.436 258.544 225.964 249.296 227.605C240.047 229.245 254.774 243.901 262.094 247.436Z" fill="#00D569"/>
<path opacity="0.53" d="M263.942 254.612C263.907 254.612 263.875 254.599 263.85 254.574C263.825 254.552 263.809 254.519 263.807 254.484C263.807 254.393 263.032 245.237 252.29 233.21C252.266 233.184 252.254 233.148 252.255 233.112C252.257 233.076 252.274 233.042 252.3 233.018C252.327 232.994 252.363 232.982 252.399 232.983C252.435 232.986 252.469 233.002 252.493 233.029C263.304 245.13 264.072 254.373 264.079 254.464C264.082 254.5 264.07 254.536 264.046 254.564C264.022 254.591 263.988 254.608 263.952 254.611L263.942 254.612Z" fill="url(#paint2_linear)"/>
<path opacity="0.53" d="M264.81 262.454C264.81 262.28 264.81 262.053 264.816 261.776C264.998 246.892 268.101 230.154 275.793 202.448C275.798 202.432 275.806 202.415 275.817 202.4C275.828 202.386 275.841 202.375 275.857 202.365C275.873 202.357 275.891 202.351 275.909 202.349C275.927 202.347 275.945 202.349 275.962 202.353C275.996 202.363 276.025 202.387 276.043 202.418C276.061 202.45 276.066 202.487 276.056 202.522C269.035 227.81 265.84 243.948 265.203 257.88C266.419 248.814 270.593 229.47 279.924 217.52C279.935 217.506 279.948 217.494 279.964 217.486C279.98 217.476 279.996 217.47 280.014 217.469C280.032 217.466 280.05 217.468 280.067 217.472C280.085 217.477 280.101 217.486 280.115 217.496C280.144 217.519 280.162 217.552 280.167 217.587C280.171 217.623 280.161 217.659 280.139 217.688C269.111 231.811 265.314 256.298 265.09 261.756C265.09 261.988 265.084 262.22 265.083 262.45L264.81 262.454Z" fill="url(#paint3_linear)"/>
<path opacity="0.64" d="M255.596 267.563C255.596 268.7 259.793 269.621 264.971 269.621C270.149 269.621 274.346 268.7 274.346 267.563C274.346 266.425 270.149 265.504 264.971 265.504C259.793 265.504 255.596 266.425 255.596 267.563Z" fill="#C7D0E0"/>
<path opacity="0.53" d="M271.655 256.362C271.655 260.903 270.48 264.909 268.686 267.299H260.978C259.185 264.911 258.008 260.905 258.008 256.362C258.007 255.224 258.084 254.087 258.237 252.959H271.428C271.581 254.087 271.656 255.224 271.655 256.362Z" fill="#B9D2EA"/>
<path opacity="0.97" d="M271.655 256.362C271.655 260.903 270.48 264.909 268.686 267.299H260.978C259.185 264.911 258.008 260.905 258.008 256.362C258.007 255.224 258.084 254.087 258.237 252.959H271.428C271.581 254.087 271.656 255.224 271.655 256.362Z" fill="#8BB2CC"/>
<path opacity="0.53" d="M256.172 252.751L273.313 252.438L273.512 255.571L256.272 255.989L256.172 252.751Z" fill="#B9D2EA"/>
</g>
<g opacity="0.77">
<path opacity="0.77" d="M153.804 0.108154H152.779V30.7993H153.804V0.108154Z" fill="#DAEBFF"/>
<path opacity="0.77" d="M150.564 35.2452V30.4447C150.564 28.7945 151.792 27.4399 153.29 27.4399C154.787 27.4399 156.018 28.7909 156.018 30.4447V35.2452H150.564Z" fill="#DAEBFF"/>
<g style="mix-blend-mode:multiply" opacity="0.3">
<g style="mix-blend-mode:multiply" opacity="0.3">
<path d="M156.018 35.2452V30.4447C156.018 28.7945 154.791 27.4399 153.29 27.4399C153.095 27.4408 152.901 27.4651 152.713 27.5121C156.3 28.1875 156.017 33.8918 153.566 34.4411C151.115 34.9904 150.561 33.0914 150.561 33.0914V35.2416L156.018 35.2452Z" fill="#DAEBFF"/>
</g>
</g>
<path opacity="0.77" d="M157.275 45.9267C157.275 47.6574 155.49 49.0613 153.29 49.0613C151.089 49.0613 149.307 47.6574 149.307 45.9267C149.307 44.1959 151.093 42.7885 153.29 42.7885C155.487 42.7885 157.275 44.1947 157.275 45.9267Z" fill="#DAEBFF"/>
<path opacity="0.77" d="M147.078 46.7548V35.8173C147.078 32.0541 149.875 28.976 153.29 28.976C156.704 28.976 159.504 32.0541 159.504 35.8173V46.7548H147.078Z" fill="#DAEBFF"/>
<g style="mix-blend-mode:multiply" opacity="0.3">
<g style="mix-blend-mode:multiply" opacity="0.3">
<path d="M159.504 46.7548V35.8173C159.504 32.0541 156.708 28.976 153.29 28.976C152.844 28.9779 152.4 29.0332 151.968 29.1406C160.141 30.6791 159.498 43.6839 153.915 44.9363C148.332 46.1887 147.075 41.8594 147.075 41.8594V46.7548H159.504Z" fill="#DAEBFF"/>
</g>
</g>
<path opacity="0.77" d="M91.3487 0.108154H90.3234V40.8041H91.3487V0.108154Z" fill="#DAEBFF"/>
<path opacity="0.77" d="M88.1084 45.25V40.4495C88.1084 38.7993 89.3366 37.4447 90.8342 37.4447C92.3318 37.4447 93.5625 38.7957 93.5625 40.4495V45.25H88.1084Z" fill="#DAEBFF"/>
<g style="mix-blend-mode:multiply" opacity="0.3">
<g style="mix-blend-mode:multiply" opacity="0.3">
<path d="M93.5625 45.25V40.4495C93.5625 38.7993 92.3354 37.4447 90.8342 37.4447C90.6397 37.4461 90.4461 37.4703 90.2573 37.5168C93.845 38.1923 93.5601 43.8966 91.1106 44.4459C88.6611 44.9952 88.1058 43.0961 88.1058 43.0961V45.2464L93.5625 45.25Z" fill="#DAEBFF"/>
</g>
</g>
<path opacity="0.77" d="M94.8209 55.9315C94.8209 57.6623 93.0348 59.0661 90.8341 59.0661C88.6334 59.0661 86.851 57.6623 86.851 55.9315C86.851 54.2007 88.637 52.7969 90.8341 52.7969C93.0312 52.7969 94.8209 54.1995 94.8209 55.9315Z" fill="#DAEBFF"/>
<path opacity="0.77" d="M84.6228 56.7632V45.8257C84.6228 42.0637 87.4196 38.9856 90.8342 38.9856C94.2489 38.9856 97.0482 42.0637 97.0482 45.8257V56.7632H84.6228Z" fill="#DAEBFF"/>
<g style="mix-blend-mode:multiply" opacity="0.3">
<g style="mix-blend-mode:multiply" opacity="0.3">
<path d="M97.0481 56.7632V45.8257C97.0481 42.0637 94.2512 38.9856 90.8342 38.9856C90.3886 38.9876 89.9447 39.0426 89.512 39.1491C97.6851 40.6875 97.0421 53.6923 91.4592 54.9447C85.8762 56.1971 84.619 51.8678 84.619 51.8678V56.7692L97.0481 56.7632Z" fill="#DAEBFF"/>
</g>
</g>
<path opacity="0.77" d="M117.751 0.108154H116.726V64.9759H117.751V0.108154Z" fill="#DAEBFF"/>
<path opacity="0.77" d="M114.512 69.4231V64.6154C114.512 62.9652 115.74 61.6106 117.238 61.6106C118.736 61.6106 119.966 62.9604 119.966 64.6154V69.4231H114.512Z" fill="#DAEBFF"/>
<g style="mix-blend-mode:multiply" opacity="0.3">
<g style="mix-blend-mode:multiply" opacity="0.3">
<path d="M119.966 69.4231V64.6154C119.966 62.9652 118.739 61.6106 117.238 61.6106C117.043 61.6114 116.849 61.6357 116.66 61.6827C120.249 62.357 119.964 68.0625 117.514 68.6118C115.065 69.1611 114.51 67.262 114.51 67.262V69.4231H119.966Z" fill="#DAEBFF"/>
</g>
</g>
<path opacity="0.77" d="M121.224 80.1033C121.224 81.8353 119.439 83.2379 117.238 83.2379C115.037 83.2379 113.255 81.8353 113.255 80.1033C113.255 78.3714 115.041 76.9688 117.238 76.9688C119.435 76.9688 121.224 78.3726 121.224 80.1033Z" fill="#DAEBFF"/>
<path opacity="0.77" d="M111.026 80.9351V69.9976C111.026 66.2356 113.823 63.1575 117.238 63.1575C120.653 63.1575 123.452 66.2356 123.452 69.9976V80.9351H111.026Z" fill="#DAEBFF"/>
<g style="mix-blend-mode:multiply" opacity="0.3">
<g style="mix-blend-mode:multiply" opacity="0.3">
<path d="M123.452 80.9351V69.9976C123.452 66.2356 120.655 63.1575 117.238 63.1575C116.792 63.1594 116.348 63.2147 115.916 63.3221C124.089 64.8594 123.446 77.8654 117.863 79.1178C112.28 80.3702 111.023 76.0397 111.023 76.0397V80.9411L123.452 80.9351Z" fill="#DAEBFF"/>
</g>
</g>
</g>
<defs>
<linearGradient id="paint0_linear" x1="37509.6" y1="120798" x2="38627.9" y2="120798" gradientUnits="userSpaceOnUse">
<stop stop-color="#F3F6FD" stop-opacity="0"/>
<stop offset="0.98" stop-color="#E2EEFA"/>
</linearGradient>
<linearGradient id="paint1_linear" x1="43219" y1="47664.8" x2="44611.5" y2="47664.8" gradientUnits="userSpaceOnUse">
<stop stop-color="#F3F6FD" stop-opacity="0"/>
<stop offset="0.98" stop-color="#E2EEFA"/>
</linearGradient>
<linearGradient id="paint2_linear" x1="38218.6" y1="48927.1" x2="39382" y2="48927.1" gradientUnits="userSpaceOnUse">
<stop stop-color="#F3F6FD" stop-opacity="0"/>
<stop offset="0.98" stop-color="#E2EEFA"/>
</linearGradient>
<linearGradient id="paint3_linear" x1="51178.4" y1="129826" x2="53141.3" y2="129826" gradientUnits="userSpaceOnUse">
<stop stop-color="#F3F6FD" stop-opacity="0"/>
<stop offset="0.98" stop-color="#E2EEFA"/>
</linearGradient>
</defs>
</svg>
