<svg width="300" height="218" viewBox="0 0 300 218" fill="none" xmlns="http://www.w3.org/2000/svg">
<path d="M263.866 5.44494V100.6C263.862 102.027 263.293 103.394 262.285 104.403C261.275 105.413 259.908 105.981 258.481 105.985H17.1162C16.8485 105.986 16.5813 105.965 16.3168 105.925C15.0424 105.731 13.8794 105.087 13.0377 104.111C12.1961 103.134 11.7312 101.889 11.7271 100.6V5.44494C11.7313 4.01768 12.3002 2.65011 13.3096 1.64099C14.3189 0.631875 15.6867 0.0632426 17.1138 0.0593262H258.481C259.908 0.0635438 261.275 0.632311 262.285 1.6414C263.293 2.65048 263.862 4.01788 263.866 5.44494Z" fill="#DAEBFF"/>
<path opacity="0.49" d="M97.0542 0.0593262L43.0257 105.985H17.1163C16.8486 105.986 16.5814 105.965 16.3169 105.925L71.1642 0.062752L97.0542 0.0593262Z" fill="white"/>
<path opacity="0.49" d="M263.866 5.44499V32.8047L226.541 105.986H200.63C200.363 105.986 200.096 105.966 199.831 105.925L254.678 0.0628052H258.477C259.905 0.0661147 261.272 0.63401 262.281 1.64245C263.292 2.65089 263.861 4.01794 263.866 5.44499Z" fill="white"/>
<path opacity="0.49" d="M222.958 0.0593262L179.67 105.985H79.8636L130.152 0.0593262H222.958Z" fill="white"/>
<path d="M188.885 14.5124H94.5565C94.5393 14.514 94.5221 14.512 94.5058 14.5067C94.4894 14.5013 94.4745 14.4925 94.4617 14.481C94.449 14.4693 94.4389 14.4553 94.4319 14.4395C94.4249 14.4239 94.4213 14.4068 94.4213 14.3896C94.4213 14.3724 94.4249 14.3553 94.4319 14.3397C94.4389 14.3239 94.449 14.3099 94.4617 14.2982C94.4745 14.2867 94.4894 14.2779 94.5058 14.2725C94.5221 14.2672 94.5393 14.2652 94.5565 14.2668H188.885C188.902 14.2652 188.919 14.2672 188.935 14.2725C188.952 14.2779 188.967 14.2867 188.979 14.2982C188.992 14.3099 189.002 14.3239 189.009 14.3397C189.016 14.3553 189.019 14.3724 189.019 14.3896C189.019 14.4068 189.016 14.4239 189.009 14.4395C189.002 14.4553 188.992 14.4693 188.979 14.481C188.967 14.4925 188.952 14.5013 188.935 14.5067C188.919 14.512 188.902 14.514 188.885 14.5124Z" fill="#A1C6E5"/>
<path d="M188.885 24.1302H94.5565C94.5393 24.1318 94.5221 24.1298 94.5058 24.1245C94.4894 24.1191 94.4745 24.1103 94.4617 24.0988C94.449 24.0871 94.4389 24.0731 94.4319 24.0573C94.4249 24.0415 94.4213 24.0246 94.4213 24.0074C94.4213 23.9902 94.4249 23.9733 94.4319 23.9575C94.4389 23.9417 94.449 23.9277 94.4617 23.916C94.4745 23.9045 94.4894 23.8957 94.5058 23.8903C94.5221 23.885 94.5393 23.883 94.5565 23.8846H188.885C188.902 23.883 188.919 23.885 188.935 23.8903C188.952 23.8957 188.967 23.9045 188.979 23.916C188.992 23.9277 189.002 23.9417 189.009 23.9575C189.016 23.9733 189.019 23.9902 189.019 24.0074C189.019 24.0246 189.016 24.0415 189.009 24.0573C189.002 24.0731 188.992 24.0871 188.979 24.0988C188.967 24.1103 188.952 24.1191 188.935 24.1245C188.919 24.1298 188.902 24.1318 188.885 24.1302Z" fill="#A1C6E5"/>
<path d="M188.885 33.748H94.5565C94.5393 33.7496 94.5221 33.7477 94.5058 33.7423C94.4894 33.737 94.4745 33.7282 94.4617 33.7166C94.449 33.705 94.4389 33.6909 94.4319 33.6752C94.4249 33.6595 94.4213 33.6425 94.4213 33.6253C94.4213 33.608 94.4249 33.5911 94.4319 33.5754C94.4389 33.5596 94.449 33.5456 94.4617 33.5339C94.4745 33.5224 94.4894 33.5136 94.5058 33.5082C94.5221 33.5028 94.5393 33.5009 94.5565 33.5025H188.885C188.902 33.5009 188.919 33.5028 188.935 33.5082C188.952 33.5136 188.967 33.5224 188.979 33.5339C188.992 33.5456 189.002 33.5596 189.009 33.5754C189.016 33.5911 189.019 33.608 189.019 33.6253C189.019 33.6425 189.016 33.6595 189.009 33.6752C189.002 33.6909 188.992 33.705 188.979 33.7166C188.967 33.7282 188.952 33.737 188.935 33.7423C188.919 33.7477 188.902 33.7496 188.885 33.748Z" fill="#A1C6E5"/>
<path d="M188.885 43.3658H94.5565C94.5393 43.3674 94.5221 43.3655 94.5058 43.3601C94.4894 43.3548 94.4745 43.346 94.4617 43.3344C94.449 43.3228 94.4389 43.3087 94.4319 43.293C94.4249 43.2772 94.4213 43.2603 94.4213 43.2431C94.4213 43.2258 94.4249 43.2088 94.4319 43.1932C94.4389 43.1774 94.449 43.1633 94.4617 43.1517C94.4745 43.1402 94.4894 43.1314 94.5058 43.126C94.5221 43.1206 94.5393 43.1187 94.5565 43.1203H188.885C188.902 43.1187 188.919 43.1206 188.935 43.126C188.952 43.1314 188.967 43.1402 188.979 43.1517C188.992 43.1633 189.002 43.1774 189.009 43.1932C189.016 43.2088 189.019 43.2258 189.019 43.2431C189.019 43.2603 189.016 43.2772 189.009 43.293C189.002 43.3087 188.992 43.3228 188.979 43.3344C188.967 43.346 188.952 43.3548 188.935 43.3601C188.919 43.3655 188.902 43.3674 188.885 43.3658Z" fill="#A1C6E5"/>
<path d="M188.885 52.9882H94.5565C94.5393 52.9898 94.5221 52.9878 94.5058 52.9825C94.4894 52.9771 94.4745 52.9683 94.4617 52.9568C94.449 52.9451 94.4389 52.9311 94.4319 52.9153C94.4249 52.8996 94.4213 52.8827 94.4213 52.8654C94.4213 52.8482 94.4249 52.8312 94.4319 52.8155C94.4389 52.7998 94.449 52.7857 94.4617 52.7741C94.4745 52.7625 94.4894 52.7537 94.5058 52.7484C94.5221 52.743 94.5393 52.7409 94.5565 52.7427H188.885C188.902 52.7409 188.919 52.743 188.935 52.7484C188.952 52.7537 188.967 52.7625 188.979 52.7741C188.992 52.7857 189.002 52.7998 189.009 52.8155C189.016 52.8312 189.019 52.8482 189.019 52.8654C189.019 52.8827 189.016 52.8996 189.009 52.9153C189.002 52.9311 188.992 52.9451 188.979 52.9568C188.967 52.9683 188.952 52.9771 188.935 52.9825C188.919 52.9878 188.902 52.9898 188.885 52.9882Z" fill="#A1C6E5"/>
<path d="M188.885 62.6014H94.5565C94.5393 62.603 94.5221 62.6011 94.5058 62.5957C94.4894 62.5903 94.4745 62.5815 94.4617 62.57C94.449 62.5584 94.4389 62.5443 94.4319 62.5285C94.4249 62.5128 94.4213 62.4959 94.4213 62.4786C94.4213 62.4614 94.4249 62.4444 94.4319 62.4287C94.4389 62.413 94.449 62.3989 94.4617 62.3873C94.4745 62.3758 94.4894 62.367 94.5058 62.3616C94.5221 62.3562 94.5393 62.3543 94.5565 62.3559H188.885C188.902 62.3543 188.919 62.3562 188.935 62.3616C188.952 62.367 188.967 62.3758 188.979 62.3873C188.992 62.3989 189.002 62.413 189.009 62.4287C189.016 62.4444 189.019 62.4614 189.019 62.4786C189.019 62.4959 189.016 62.5128 189.009 62.5285C189.002 62.5443 188.992 62.5584 188.979 62.57C188.967 62.5815 188.952 62.5903 188.935 62.5957C188.919 62.6011 188.902 62.603 188.885 62.6014Z" fill="#A1C6E5"/>
<path d="M188.885 72.2193H94.5565C94.5393 72.2209 94.5221 72.2189 94.5058 72.2135C94.4894 72.2082 94.4745 72.1994 94.4617 72.1877C94.449 72.1762 94.4389 72.1622 94.4319 72.1464C94.4249 72.1308 94.4213 72.1137 94.4213 72.0965C94.4213 72.0793 94.4249 72.0622 94.4319 72.0466C94.4389 72.0308 94.449 72.0168 94.4617 72.0053C94.4745 71.9936 94.4894 71.9848 94.5058 71.9795C94.5221 71.9741 94.5393 71.9721 94.5565 71.9737H188.885C188.902 71.9721 188.919 71.9741 188.935 71.9795C188.952 71.9848 188.967 71.9936 188.979 72.0053C188.992 72.0168 189.002 72.0308 189.009 72.0466C189.016 72.0622 189.019 72.0793 189.019 72.0965C189.019 72.1137 189.016 72.1308 189.009 72.1464C189.002 72.1622 188.992 72.1762 188.979 72.1877C188.967 72.1994 188.952 72.2082 188.935 72.2135C188.919 72.2189 188.902 72.2209 188.885 72.2193Z" fill="#A1C6E5"/>
<path d="M188.885 81.8371H94.5565C94.5393 81.8387 94.5221 81.8367 94.5058 81.8314C94.4894 81.8259 94.4745 81.8172 94.4617 81.8056C94.449 81.794 94.4389 81.78 94.4319 81.7642C94.4249 81.7485 94.4213 81.7316 94.4213 81.7143C94.4213 81.6971 94.4249 81.68 94.4319 81.6644C94.4389 81.6486 94.449 81.6346 94.4617 81.6229C94.4745 81.6114 94.4894 81.6026 94.5058 81.5972C94.5221 81.5919 94.5393 81.5898 94.5565 81.5915H188.885C188.902 81.5898 188.919 81.5919 188.935 81.5972C188.952 81.6026 188.967 81.6114 188.979 81.6229C188.992 81.6346 189.002 81.6486 189.009 81.6644C189.016 81.68 189.019 81.6971 189.019 81.7143C189.019 81.7316 189.016 81.7485 189.009 81.7642C189.002 81.78 188.992 81.794 188.979 81.8056C188.967 81.8172 188.952 81.8259 188.935 81.8314C188.919 81.8367 188.902 81.8387 188.885 81.8371Z" fill="#A1C6E5"/>
<path d="M103.099 93.072C103.066 93.072 103.035 93.059 103.012 93.0359C102.988 93.0127 102.975 92.9813 102.975 92.9486V12.2627C102.975 12.23 102.988 12.1986 103.012 12.1754C103.035 12.1524 103.066 12.1393 103.099 12.1393C103.131 12.1393 103.163 12.1524 103.186 12.1754C103.209 12.1986 103.222 12.23 103.222 12.2627V92.9464C103.222 92.9628 103.219 92.979 103.213 92.9942C103.207 93.0095 103.198 93.0233 103.187 93.0351C103.175 93.0467 103.162 93.056 103.146 93.0624C103.131 93.0687 103.115 93.072 103.099 93.072Z" fill="#A1C6E5"/>
<path d="M114.313 93.072C114.297 93.0721 114.281 93.069 114.265 93.063C114.25 93.0568 114.236 93.0478 114.225 93.0362C114.214 93.0248 114.204 93.0111 114.198 92.9961C114.192 92.9811 114.188 92.965 114.188 92.9486V12.2627C114.191 12.2319 114.206 12.2033 114.228 12.1824C114.251 12.1616 114.281 12.1501 114.313 12.1501C114.344 12.1501 114.373 12.1616 114.396 12.1824C114.419 12.2033 114.433 12.2319 114.436 12.2627V92.9464C114.436 92.9628 114.434 92.979 114.427 92.9942C114.421 93.0095 114.412 93.0233 114.401 93.0351C114.389 93.0467 114.376 93.056 114.361 93.0624C114.346 93.0687 114.329 93.072 114.313 93.072Z" fill="#A1C6E5"/>
<path d="M125.533 93.072C125.5 93.072 125.469 93.059 125.446 93.0359C125.422 93.0127 125.41 92.9813 125.41 92.9486V12.2627C125.41 12.23 125.422 12.1986 125.446 12.1754C125.469 12.1524 125.5 12.1393 125.533 12.1393C125.566 12.1393 125.597 12.1524 125.62 12.1754C125.644 12.1986 125.656 12.23 125.656 12.2627V92.9464C125.656 92.9628 125.654 92.979 125.647 92.9942C125.641 93.0095 125.632 93.0233 125.621 93.0351C125.609 93.0467 125.596 93.056 125.581 93.0624C125.566 93.0687 125.549 93.072 125.533 93.072Z" fill="#A1C6E5"/>
<path d="M136.748 93.072C136.715 93.072 136.684 93.059 136.662 93.0359C136.638 93.0127 136.625 92.9813 136.625 92.9486V12.2627C136.625 12.23 136.638 12.1986 136.662 12.1754C136.684 12.1524 136.715 12.1393 136.748 12.1393C136.781 12.1393 136.812 12.1524 136.835 12.1754C136.859 12.1986 136.872 12.23 136.872 12.2627V92.9464C136.872 92.9628 136.869 92.979 136.863 92.9942C136.857 93.0095 136.848 93.0233 136.836 93.0351C136.825 93.0467 136.811 93.056 136.796 93.0624C136.78 93.0687 136.764 93.072 136.748 93.072Z" fill="#A1C6E5"/>
<path d="M147.965 93.072C147.932 93.072 147.901 93.059 147.878 93.0359C147.854 93.0127 147.842 92.9813 147.842 92.9486V12.2627C147.842 12.23 147.854 12.1986 147.878 12.1754C147.901 12.1524 147.932 12.1393 147.965 12.1393C147.998 12.1393 148.029 12.1524 148.052 12.1754C148.076 12.1986 148.088 12.23 148.088 12.2627V92.9464C148.088 92.9628 148.086 92.979 148.079 92.9942C148.074 93.0095 148.064 93.0233 148.053 93.0351C148.042 93.0467 148.028 93.056 148.013 93.0624C147.998 93.0687 147.981 93.072 147.965 93.072Z" fill="#A1C6E5"/>
<path d="M159.182 93.072C159.148 93.072 159.118 93.059 159.095 93.0359C159.071 93.0127 159.058 92.9813 159.058 92.9486V12.2627C159.058 12.23 159.071 12.1986 159.095 12.1754C159.118 12.1524 159.148 12.1393 159.182 12.1393C159.215 12.1393 159.246 12.1524 159.268 12.1754C159.292 12.1986 159.305 12.23 159.305 12.2627V92.9464C159.305 92.9628 159.303 92.979 159.296 92.9942C159.29 93.0095 159.281 93.0233 159.27 93.0351C159.258 93.0467 159.244 93.056 159.23 93.0624C159.215 93.0687 159.198 93.072 159.182 93.072Z" fill="#A1C6E5"/>
<path d="M170.398 93.072C170.365 93.072 170.334 93.059 170.311 93.0359C170.287 93.0127 170.275 92.9813 170.275 92.9486V12.2627C170.275 12.23 170.287 12.1986 170.311 12.1754C170.334 12.1524 170.365 12.1393 170.398 12.1393C170.431 12.1393 170.462 12.1524 170.485 12.1754C170.509 12.1986 170.521 12.23 170.521 12.2627V92.9464C170.521 92.9628 170.519 92.979 170.512 92.9942C170.507 93.0095 170.497 93.0233 170.486 93.0351C170.475 93.0467 170.461 93.056 170.446 93.0624C170.43 93.0687 170.414 93.072 170.398 93.072Z" fill="#A1C6E5"/>
<path d="M181.615 93.072C181.582 93.072 181.551 93.059 181.528 93.0359C181.504 93.0127 181.491 92.9813 181.491 92.9486V12.2627C181.491 12.23 181.504 12.1986 181.528 12.1754C181.551 12.1524 181.582 12.1393 181.615 12.1393C181.648 12.1393 181.679 12.1524 181.702 12.1754C181.726 12.1986 181.738 12.23 181.738 12.2627V92.9464C181.738 92.9628 181.736 92.979 181.729 92.9942C181.723 93.0095 181.714 93.0233 181.703 93.0351C181.691 93.0467 181.678 93.056 181.663 93.0624C181.648 93.0687 181.631 93.072 181.615 93.072Z" fill="#A1C6E5"/>
<path d="M188.886 93.764H93.7435V10.5748H95.3846V92.1218H188.886V93.764Z" fill="#A1C6E5"/>
<path d="M99.7572 91.0164C99.5256 91.0163 99.2988 90.9508 99.1028 90.8276C98.9068 90.7044 98.7495 90.5284 98.649 90.3199C98.5484 90.1112 98.5088 89.8786 98.5345 89.6485C98.5603 89.4184 98.6504 89.2003 98.7944 89.019L115.435 68.0784L131.133 78.2866L149.66 57.2649L160.297 69.3186L182.718 44.2703C182.943 44.0582 183.239 43.9382 183.547 43.9342C183.856 43.9301 184.154 44.0422 184.385 44.2483C184.615 44.4545 184.759 44.7395 184.788 45.0469C184.818 45.3543 184.731 45.6616 184.545 45.9079L160.282 73.0209L149.662 60.9787L131.574 81.5013L115.97 71.3548L100.722 90.5402C100.608 90.6874 100.462 90.8068 100.294 90.8893C100.127 90.9718 99.9436 91.0152 99.7572 91.0164Z" fill="#00D569"/>
<path d="M185.607 47.0499C185.974 46.6406 186.21 46.1318 186.288 45.588C186.364 45.0442 186.279 44.4896 186.041 43.9945C185.804 43.4994 185.423 43.0859 184.95 42.8065C184.478 42.527 183.933 42.394 183.385 42.4244C182.836 42.4547 182.309 42.647 181.869 42.977C181.431 43.3069 181.099 43.7597 180.917 44.278C180.735 44.7964 180.711 45.357 180.848 45.889C180.984 46.421 181.277 46.9005 181.686 47.2668C182.235 47.7578 182.955 48.0107 183.691 47.9701C184.426 47.9293 185.116 47.5983 185.607 47.0499Z" fill="#00D569"/>
<path d="M99.7572 80.9532C99.5271 80.9528 99.3019 80.8878 99.1069 80.7659C98.9118 80.644 98.7547 80.4699 98.6535 80.2634C98.5522 80.0569 98.5109 79.8261 98.5339 79.5972C98.557 79.3684 98.6437 79.1506 98.7843 78.9685L106.841 68.5592C107.002 68.3503 107.226 68.1988 107.48 68.1272C107.734 68.0556 108.004 68.0677 108.25 68.1618L126.764 75.1736C128.579 72.7994 134.885 64.8695 157.221 37.19C157.36 37.0164 157.544 36.884 157.753 36.8072C157.963 36.7303 158.188 36.7118 158.407 36.7537L173.468 39.595L182.848 31.335C182.969 31.2281 183.111 31.1462 183.264 31.0939C183.417 31.0416 183.578 31.0201 183.74 31.0302C183.901 31.0405 184.059 31.0824 184.204 31.1535C184.349 31.2248 184.479 31.3239 184.585 31.4452C184.692 31.5665 184.775 31.7078 184.827 31.8607C184.879 32.0137 184.9 32.1755 184.89 32.3368C184.88 32.4981 184.839 32.6559 184.767 32.8011C184.696 32.9462 184.596 33.0759 184.475 33.1827L174.644 41.8402C174.504 41.9641 174.337 42.0543 174.155 42.104C173.975 42.1536 173.785 42.1614 173.601 42.1268L158.676 39.3107C146.726 54.1211 129.162 75.949 128.237 77.268C128.09 77.5193 127.859 77.7103 127.585 77.8072C127.311 77.904 127.011 77.9002 126.739 77.7968L108.232 70.7873L100.732 80.4747C100.618 80.624 100.47 80.7448 100.301 80.8278C100.132 80.9109 99.9455 80.9537 99.7572 80.9532Z" fill="#1F2A83"/>
<path d="M185.392 34.4343C185.805 34.0712 186.099 33.5939 186.241 33.063C186.381 32.5321 186.362 31.9714 186.184 31.4517C186.006 30.932 185.678 30.4768 185.242 30.1434C184.806 29.8101 184.279 29.6137 183.731 29.5789C183.183 29.5443 182.637 29.673 182.162 29.9487C181.687 30.2244 181.304 30.6348 181.062 31.1281C180.821 31.6212 180.731 32.1749 180.803 32.7194C180.876 33.2638 181.109 33.7744 181.472 34.1865C181.713 34.4603 182.005 34.6839 182.333 34.8444C182.661 35.005 183.017 35.0995 183.381 35.1225C183.745 35.1456 184.11 35.0966 184.455 34.9785C184.8 34.8604 185.118 34.6755 185.392 34.4343Z" fill="#1F2A83"/>
<path d="M99.7584 76.9699C99.5606 76.9698 99.3657 76.922 99.1903 76.8307C99.0148 76.7393 98.8639 76.6071 98.7503 76.4451C98.6368 76.2832 98.5638 76.0963 98.5378 75.9002C98.5116 75.7041 98.5332 75.5046 98.6005 75.3186L111.35 40.1054C111.46 39.7992 111.688 39.5494 111.982 39.4106C112.277 39.2719 112.614 39.2557 112.921 39.3654L129.905 45.4259C131.675 43.3601 137.292 37.2322 155.458 17.6756C155.659 17.4589 155.93 17.3216 156.224 17.289C156.517 17.2562 156.813 17.3303 157.056 17.4975L172.349 27.9375L182.887 19.2424C183.139 19.0347 183.464 18.9355 183.788 18.9668C184.114 18.9981 184.413 19.1571 184.621 19.4092C184.828 19.6612 184.928 19.9854 184.896 20.3104C184.865 20.6356 184.706 20.935 184.454 21.1427L173.202 30.4259C172.996 30.5954 172.74 30.6936 172.474 30.7057C172.208 30.7179 171.945 30.6434 171.724 30.4933L156.543 20.1286C146.595 30.8416 132.244 46.3521 131.299 47.5363C131.148 47.7688 130.923 47.9437 130.662 48.0324C130.399 48.1211 130.113 48.1185 129.853 48.0251L113.25 42.1016L100.916 76.1614C100.83 76.3987 100.672 76.6035 100.465 76.7482C100.258 76.8928 100.011 76.9702 99.7584 76.9699Z" fill="#FFB100"/>
<path d="M185.329 22.4218C185.752 22.0721 186.063 21.6048 186.221 21.0787C186.378 20.5526 186.377 19.9915 186.216 19.4663C186.055 18.9411 185.742 18.4754 185.317 18.1281C184.891 17.7809 184.373 17.5675 183.826 17.5151C183.279 17.4627 182.728 17.5737 182.245 17.8338C181.761 18.0941 181.366 18.4919 181.108 18.977C180.85 19.4621 180.742 20.0126 180.797 20.5592C180.853 21.1056 181.069 21.6235 181.418 22.0472C181.65 22.3286 181.936 22.5614 182.258 22.7325C182.58 22.9037 182.933 23.0097 183.296 23.0444C183.659 23.0792 184.026 23.0421 184.374 22.9353C184.723 22.8284 185.048 22.6539 185.329 22.4218Z" fill="#FFB100"/>
<path d="M192.573 120.427C192.486 120.588 192.365 120.73 192.218 120.839C192.071 120.949 191.902 121.024 191.722 121.062L186.584 119.85L183.928 119.223L181.449 118.638L162.565 114.184C161.893 112.568 161.825 111.314 162.088 110.34C162.819 107.64 166.101 107.108 166.101 107.108L182.939 114.626L184.004 115.1H184.015L184.432 115.288L188.982 117.319L189.637 117.611L192.649 118.955C192.818 119.648 192.74 120.113 192.573 120.427Z" fill="#BA1717"/>
<path d="M192.573 120.427C192.487 120.588 192.366 120.73 192.218 120.839C192.071 120.949 191.902 121.024 191.723 121.062L186.584 119.85C186.561 119.764 186.563 119.673 186.59 119.588C186.907 118.603 188.303 117.711 188.989 117.325L189.644 117.618C189.644 117.618 188.31 118.881 188.793 119.422C189.276 119.963 191.78 120.892 192.573 120.427Z" fill="#9B0808"/>
<path d="M184.445 115.241L184.438 115.295L183.928 119.223L181.449 118.638C181.652 116.721 184.01 115.097 184.01 115.097H184.021L184.445 115.241Z" fill="#9B0808"/>
<path d="M139.112 176.037C139.112 176.037 136.243 179.082 133.085 182.693C131.258 184.785 127.893 186.604 127.515 186.981C127.137 187.358 130.809 188.148 130.809 188.148C130.809 188.148 139.386 183.413 140.347 182.075C141.307 180.737 141.375 176.822 141.375 176.822C140.896 173.636 139.112 176.037 139.112 176.037Z" fill="#F87B67"/>
<path d="M140.317 180.199C140.003 180.612 139.663 181.005 139.298 181.374C138.24 182.383 136.945 183.147 135.753 183.958C134.461 184.835 133.209 185.785 131.911 186.643C131.25 187.083 130.599 187.367 129.835 187.15C129.484 187.049 129.152 186.892 128.852 186.685C128.667 186.557 128.525 186.324 128.337 186.219C128.176 186.13 127.962 186.167 127.785 186.185C127.105 186.256 126.434 186.426 125.755 186.504C125.161 186.571 124.579 186.516 123.987 186.544C123.803 186.553 123.546 186.553 123.41 186.717C123.208 186.96 123.352 187.37 123.5 187.579C123.95 188.211 124.935 188.475 125.597 188.783C127 189.435 128.411 190.225 129.902 190.672C130.391 190.818 130.913 190.922 131.4 190.662C132.307 190.176 132.999 189.148 133.721 188.427C134.327 187.819 134.997 187.207 135.785 186.88C136.354 186.652 136.968 186.554 137.58 186.59C137.791 186.602 137.901 186.582 137.897 186.819C137.89 187.206 137.525 187.698 137.372 188.05C137.066 188.759 135.49 192.314 135.377 192.568C135.331 192.669 135.167 192.91 135.175 193.024C135.184 193.17 135.134 193.063 135.298 193.18C135.379 193.237 135.799 193.474 135.903 193.451C136.06 193.416 136.322 192.671 136.418 192.476C136.756 191.783 137.11 191.098 137.48 190.421C138.19 189.122 138.891 187.765 139.808 186.605C140.563 185.651 141.282 184.882 141.742 183.721C141.986 183.108 142.181 182.432 142.144 181.779C142.092 180.831 141.565 179.895 141.212 179.057L140.317 180.199Z" fill="#06063F"/>
<path d="M154.584 202.734C154.584 202.734 154.996 204.534 154.584 205.77C154.172 207.006 150.802 215.569 149.181 216.113C147.561 216.657 153.606 216.988 153.606 216.988C153.606 216.988 158.238 208.497 158.444 207.468C158.649 206.439 158.238 200.267 158.238 200.267L154.584 202.734Z" fill="#F87B67"/>
<path d="M239.303 211.515H225.272C224.55 211.515 224.045 210.735 224.045 209.621V151.586C224.049 151.4 224.02 151.215 223.96 151.039H115.511C115.45 151.215 115.422 151.4 115.425 151.586V209.621C115.425 210.735 114.92 211.515 114.199 211.515H100.167C99.4454 211.515 98.9418 210.735 98.9418 209.621V151.586C98.9418 150.472 99.4454 149.693 100.167 149.693H239.303C240.025 149.693 240.53 150.472 240.53 151.586V209.621C240.53 210.735 240.025 211.515 239.303 211.515ZM225.478 210.163H239.097C239.157 209.987 239.187 209.802 239.183 209.616V151.586C239.187 151.4 239.157 151.215 239.097 151.039H225.348C225.378 151.22 225.393 151.404 225.393 151.586V209.621C225.389 209.807 225.418 209.992 225.478 210.168V210.163ZM100.374 210.163H113.992C114.053 209.987 114.082 209.802 114.079 209.616V151.586C114.078 151.404 114.093 151.22 114.122 151.039H100.374C100.314 151.215 100.285 151.4 100.288 151.586V209.621C100.285 209.807 100.314 209.992 100.374 210.168V210.163Z" fill="#58595B"/>
<path d="M239.303 211.515H225.272C224.55 211.515 224.045 210.735 224.045 209.621V151.586C224.049 151.4 224.02 151.215 223.96 151.039H100.374C100.314 151.215 100.285 151.4 100.288 151.586V209.621C100.283 209.821 100.317 210.019 100.389 210.206C100.539 210.258 100.666 210.362 100.747 210.499C100.828 210.636 100.857 210.797 100.831 210.954C100.804 211.111 100.723 211.253 100.602 211.356C100.48 211.458 100.326 211.515 100.167 211.515C99.4454 211.515 98.9418 210.735 98.9418 209.621V151.586C98.9418 150.472 99.4454 149.693 100.167 149.693H224.172C224.894 149.693 225.399 150.472 225.399 151.586V209.621C225.395 209.807 225.424 209.992 225.484 210.168H239.102C239.163 209.992 239.193 209.807 239.189 209.621V151.586C239.194 151.386 239.16 151.188 239.088 151.002C238.937 150.95 238.809 150.846 238.728 150.709C238.647 150.572 238.616 150.41 238.643 150.254C238.67 150.096 238.752 149.953 238.873 149.85C238.995 149.748 239.149 149.692 239.309 149.693C240.031 149.693 240.536 150.472 240.536 151.586V209.621C240.53 210.735 240.025 211.515 239.303 211.515Z" fill="#808081"/>
<path d="M98.2921 146.517H225.616V149.544H98.388C98.3626 149.544 98.3382 149.534 98.3202 149.516C98.3023 149.499 98.2921 149.474 98.2921 149.448V146.517Z" fill="#75A5C6"/>
<path d="M225.615 145.767H241.178V149.446C241.178 149.471 241.168 149.496 241.15 149.514C241.133 149.532 241.108 149.542 241.083 149.542H225.615V145.767Z" fill="#4F85A3"/>
<path d="M227.645 144.887H97.5257C97.3841 144.887 97.2688 145.141 97.2688 145.458V147.146C97.2688 147.46 97.383 147.717 97.5257 147.717H227.645V144.887Z" fill="#A1C6E5"/>
<path d="M241.909 144.887H225.031C224.888 144.887 224.774 145.141 224.774 145.458V147.146C224.774 147.46 224.888 147.717 225.031 147.717H241.909C242.074 147.717 242.207 147.423 242.207 147.058V145.546C242.207 145.182 242.074 144.887 241.909 144.887Z" fill="#5793BC"/>
<path d="M193.282 169.518C193.282 169.518 188.548 180.443 178.359 179.099C168.17 177.755 159.524 173.326 159.524 173.326C159.538 173.405 159.726 174.433 159.951 176.049V176.085C160.477 179.871 161.193 186.83 160.342 192.324C159.105 200.287 158.454 203.001 158.454 203.001C158.291 203.103 158.121 203.193 157.943 203.267C157.213 203.583 155.799 203.952 154.372 203.001L149.946 171.675C149.946 171.675 144.008 176.854 141.747 177.714C141.747 177.714 139.14 177.799 138.521 175.921C138.521 175.921 152.314 151.607 155.606 150.988C158.898 150.369 182.6 158.605 182.6 158.605L193.282 169.518Z" fill="#0E1C56"/>
<path opacity="0.76" d="M193.282 169.518C193.282 169.518 188.548 180.443 178.359 179.099C168.17 177.755 159.524 173.326 159.524 173.326L158.631 170.549C163.946 172.903 167.622 173.91 167.622 173.91C181.963 178.208 187.378 171.303 184.568 168.627C181.757 165.951 179.51 160 179.51 160L182.607 158.609L193.282 169.518Z" fill="#07163F"/>
<path d="M190.298 120.811C190.298 120.939 183.814 124.694 183.789 125.03C183.781 125.161 183.473 124.977 183.098 124.703C182.51 124.272 181.759 123.617 181.759 123.617C181.759 123.617 181.88 123.19 182.028 122.624V122.617C182.219 121.901 182.454 120.962 182.556 120.373C182.735 119.318 183.147 114.998 184.64 114.998C186.132 114.998 189.348 116.341 189.322 117.474C189.323 117.487 189.323 117.499 189.322 117.512C189.317 117.526 189.312 117.541 189.306 117.555C189.273 117.604 189.185 117.613 188.999 117.727C188.171 118.241 187.618 119.431 188.451 120.011C188.474 120.029 188.5 120.045 188.529 120.063C189.602 120.708 190.298 120.683 190.298 120.811Z" fill="#F87B67"/>
<path opacity="0.64" d="M190.298 120.811C190.298 120.939 183.814 124.694 183.789 125.03C183.781 125.158 182.419 122.938 182.028 122.624C182.024 122.62 182.019 122.616 182.015 122.613H182.028C186.16 124.097 187.36 121.22 187.342 120.329C187.29 117.669 189.317 117.509 189.317 117.509C189.313 117.524 189.308 117.539 189.301 117.553C189.268 117.602 189.18 117.611 188.994 117.725C188.166 118.239 187.614 119.429 188.446 120.009C188.469 120.026 188.495 120.042 188.525 120.061C189.602 120.708 190.298 120.683 190.298 120.811Z" fill="#E54F48"/>
<path d="M182.012 122.613C182.012 122.613 184.122 124.212 185.383 124.053C185.383 124.053 186.67 123.482 183.274 128.865C179.878 134.249 179.981 127.36 179.981 127.36C179.981 127.36 181.395 121.429 182.012 122.613Z" fill="#185FD1"/>
<path d="M180.497 125.418C180.497 125.418 182.781 127.348 185.025 125.868C185.025 125.868 182.939 129.791 182.305 129.894C181.67 129.997 180.19 126.531 180.19 126.531L180.497 125.418Z" fill="#134DA3"/>
<path d="M216.387 139.723C216.387 139.723 215.474 139.328 214.446 138.935C214.064 138.79 213.669 138.644 213.304 138.518C212.543 138.26 211.895 138.088 211.723 138.176C211.244 138.434 211.723 119.83 211.723 119.83C211.786 119.892 212.707 120.813 213.73 122.724C215.35 125.749 217.227 131.241 216.387 139.723Z" fill="#1B2144"/>
<path d="M204.946 135.28C204.588 136.197 204.285 137.134 204.04 138.088C202.985 142.225 203.643 144.645 203.643 144.645L196.474 144.338C196.474 144.338 196.775 143.104 197.128 141.604C197.598 139.595 198.164 137.109 198.223 136.481C198.325 135.384 194.797 135.04 192.493 133.599C190.19 132.158 191.978 127.595 192.252 127.012C192.526 126.428 190.539 125.161 190.197 124.714C189.854 124.268 190.437 124.061 192.085 123.48C193.732 122.898 194.109 122.073 194.109 122.073C195.601 119.139 198.22 118.006 198.22 118.006C198.22 118.006 202.612 120.392 204.429 121.66C206.246 122.929 207.21 129.448 204.946 135.28Z" fill="#F87B67"/>
<path opacity="0.64" d="M202.957 131.609C202.221 132.007 201.395 132.208 200.559 132.193C199.189 132.159 200.799 138.609 200.559 139.432C200.319 140.255 197.23 141.172 197.23 141.172L196.644 143.641L203.448 142.826C203.464 140.719 203.809 138.627 204.47 136.625C205.547 133.457 202.957 131.609 202.957 131.609Z" fill="#E54F48"/>
<path opacity="0.64" d="M195.974 119.582C195.974 119.582 200.556 123.067 200.024 125.675C199.491 128.282 200.024 129.534 200.024 129.534C200.024 129.534 202.752 127.424 203.678 129.534C204.604 131.645 204.981 125.073 204.981 125.073L195.974 119.582Z" fill="#E54F48"/>
<path d="M199.122 121.752C199.122 121.752 201.863 124.133 201.178 125.418C200.493 126.702 200.483 128.729 200.483 128.729L203.68 123.59L199.122 121.752Z" fill="#C43131"/>
<path d="M203.643 144.645L196.474 144.338C196.474 144.338 196.775 143.104 197.127 141.604C199.486 141.261 202.76 140.702 202.957 140.289C203.266 139.639 201.602 138.088 201.602 138.088H204.04C202.985 142.225 203.643 144.645 203.643 144.645Z" fill="#C43131"/>
<path d="M213.302 138.523C213.214 139.286 213.146 139.728 213.146 139.728C213.146 139.728 211.499 138.749 207.332 139.06C207.28 139.06 207.228 139.067 207.179 139.068C206.728 139.1 206.306 139.107 205.909 139.097H205.889C202.72 139.021 201.259 137.874 201.259 137.874L203.678 127.841C202.155 127.028 200.081 129.472 200.024 129.537C200.068 129.423 201.523 125.715 202.028 124.7C202.533 123.686 194.719 118.783 194.719 118.783C197.998 114.949 204.928 113.125 210.061 117.732C210.162 117.822 210.263 117.914 210.361 118.011C210.905 118.545 211.361 119.162 211.714 119.838C214.562 125.08 213.706 135.071 213.302 138.523Z" fill="#282E5B"/>
<path d="M203.678 127.835C203.678 127.835 205.652 121.417 205.282 115.234C205.282 115.234 204.243 121.145 202.031 124.697L200.024 129.534C200.024 129.534 202.263 126.909 203.678 127.835Z" fill="#1B2144"/>
<path d="M203.471 141.58C203.471 141.58 203.99 141.328 204.042 141.58C204.095 141.833 203.687 144.175 204.236 145.949C204.786 147.724 194.726 145.204 191.87 142.939C191.868 142.939 203.113 141.691 203.471 141.58Z" stroke="white" stroke-miterlimit="10"/>
<path d="M203.678 153.36L193.286 169.518C193.286 169.518 185.464 168.421 180.724 162.451C180.724 162.451 178.734 159.296 179.011 157.238L183.666 148.721L184.225 147.7C184.225 147.7 173.262 144.55 172.853 141.467C172.807 141.118 172.853 140.628 172.981 140.04C173.958 135.461 179.568 124.851 180.452 126.498C180.452 126.498 182.887 127.767 183.677 127.836C184.081 127.872 183.401 130.769 182.643 133.577C181.924 136.234 181.14 138.811 181.14 138.811C181.14 138.811 199.701 143.784 201.587 144.3C203.472 144.816 204.585 144.574 204.733 147.25C204.882 149.926 203.678 153.36 203.678 153.36Z" fill="#1B65F8"/>
<path opacity="0.24" d="M184.225 147.7C184.225 147.7 173.262 144.55 172.853 141.467C172.807 141.118 172.853 140.628 172.981 140.04C179.003 144.843 191.131 147.417 191.131 147.417L193.446 150.601L184.225 147.7Z" fill="#033D82"/>
<path d="M182.64 133.581C181.922 136.238 181.137 138.814 181.137 138.814C181.137 138.814 177.071 139.055 178.119 138.556C179.149 138.066 182.564 133.72 182.64 133.581Z" fill="#185FD1"/>
<path d="M184.225 147.7C184.225 147.7 191.648 149.817 191.868 150.616C193.317 155.761 179.011 157.239 179.011 157.239L184.225 147.7Z" fill="#185FD1"/>
<path d="M183.475 149.072C183.475 149.072 186.815 150.399 190.769 149.906C190.769 149.906 185.345 148.044 184.225 147.7L183.475 149.072Z" fill="#134DA3"/>
<path d="M183.948 148.207L190.298 149.732L184.225 147.7L183.948 148.207Z" fill="#033D82"/>
<path opacity="0.76" d="M178.565 163.858C178.565 163.858 165.597 162.418 161.789 163.344C159.608 163.874 151.948 174.46 150.483 175.463L150.177 173.293L149.949 171.677C149.949 171.677 158.08 163.96 159.931 158.555C159.931 158.555 176.399 163.237 178.522 163.847C178.533 163.848 178.543 163.85 178.552 163.853L178.565 163.858Z" fill="#07163F"/>
<path d="M159.935 158.557C159.935 158.557 176.404 163.239 178.527 163.849C177.654 163.636 162.054 159.87 160.553 160.765C159.2 161.58 153.081 170.244 150.182 173.291L149.953 171.675C149.953 171.675 158.084 163.962 159.935 158.557Z" fill="#000028"/>
<path opacity="0.76" d="M160.349 192.329C159.112 200.292 158.461 203.005 158.461 203.005C158.298 203.108 158.127 203.197 157.949 203.271L157.252 203.502C157.252 203.502 157.606 202.449 158.633 197.51C159.661 192.571 159.526 173.323 159.526 173.323L159.956 176.05V176.086C160.483 179.875 161.199 186.835 160.349 192.329Z" fill="#07163F"/>
<path d="M175.433 166.924H174.171V179.038H175.433V166.924Z" fill="#8BB9D8"/>
<path d="M190.369 216.27C189.778 216.27 189.298 215.726 189.298 215.057V186.208H191.44V215.057C191.437 215.721 190.957 216.27 190.369 216.27Z" fill="#3D7789"/>
<path d="M187.687 186.311H193.014V192.926C193.014 193.123 192.936 193.312 192.797 193.451C192.658 193.591 192.468 193.668 192.272 193.668H188.428C188.231 193.668 188.042 193.591 187.903 193.451C187.763 193.312 187.686 193.123 187.686 192.926V186.311H187.687Z" fill="#75AABD"/>
<path d="M199.156 187.24H182.625C182.112 187.24 181.603 187.14 181.128 186.943C180.654 186.746 180.223 186.458 179.86 186.095C179.496 185.732 179.207 185.3 179.011 184.826C178.815 184.351 178.714 183.843 178.714 183.329H203.068C203.068 183.843 202.966 184.351 202.77 184.826C202.574 185.301 202.286 185.732 201.922 186.095C201.558 186.458 201.128 186.747 200.653 186.943C200.178 187.14 199.67 187.24 199.156 187.24Z" fill="#29768E"/>
<path d="M206.029 183.329H172.723C172.499 183.329 172.277 183.284 172.07 183.199C171.863 183.113 171.675 182.987 171.516 182.829C171.357 182.67 171.232 182.482 171.146 182.275C171.06 182.068 171.017 181.845 171.017 181.622C171.017 180.804 171.341 180.019 171.92 179.442C172.498 178.863 173.283 178.538 174.1 178.538H207.732V181.622C207.731 182.073 207.551 182.506 207.232 182.825C206.913 183.145 206.48 183.327 206.029 183.329Z" fill="#A1C6E5"/>
<path d="M215.186 141.161L207.613 178.914H185.781L192.311 142.324C192.45 141.546 192.836 140.832 193.411 140.291C193.988 139.749 194.722 139.408 195.508 139.318C195.646 139.301 195.784 139.292 195.924 139.293H213.653C213.884 139.293 214.113 139.343 214.322 139.442C214.531 139.541 214.715 139.684 214.863 139.864C215.009 140.043 215.114 140.252 215.17 140.476C215.226 140.701 215.231 140.934 215.186 141.161Z" fill="#5080A0"/>
<path d="M195.628 141.161L188.059 178.914H184.651L191.177 142.324C191.316 141.546 191.702 140.833 192.278 140.292C192.854 139.75 193.589 139.408 194.374 139.318C194.579 139.354 194.774 139.431 194.949 139.544C195.123 139.656 195.273 139.803 195.391 139.975C195.507 140.147 195.588 140.34 195.629 140.544C195.67 140.748 195.669 140.958 195.628 141.161Z" fill="#A1C6E5"/>
<path d="M190.007 168.818H172.342C171.957 168.818 171.588 168.665 171.315 168.393C171.044 168.12 170.891 167.751 170.891 167.366C170.891 166.981 171.044 166.612 171.315 166.34C171.588 166.068 171.957 165.915 172.342 165.915H190.007C190.392 165.915 190.761 166.068 191.034 166.34C191.306 166.612 191.459 166.981 191.459 167.366C191.459 167.751 191.306 168.12 191.034 168.393C190.761 168.665 190.392 168.818 190.007 168.818Z" fill="#5080A0"/>
<path d="M123.689 144.861L118.859 126.763H138.963L143.335 144.861H123.689Z" fill="#263238"/>
<path d="M124.258 143.608L124.542 144.861H150.006V143.608H124.258Z" fill="#485960"/>
<path d="M142.132 143.492H124.17L123.863 142.327L123.594 141.301L119.992 127.6H138.042L142.132 143.492Z" fill="#A1C6E5"/>
<path opacity="0.42" d="M131.822 127.6L123.863 142.327L123.594 141.301L130.758 127.6H131.822Z" fill="white"/>
<path opacity="0.42" d="M136.67 127.6L128.958 143.418H126.177L134.156 127.6H136.67Z" fill="white"/>
<path opacity="0.26" d="M214.446 138.935C214.064 138.79 213.669 138.644 213.304 138.518C213.216 139.281 213.148 139.723 213.148 139.723C213.148 139.723 211.502 138.745 207.335 139.055C207.282 139.055 207.231 139.062 207.182 139.063C206.496 139.053 206.012 139.084 205.912 139.093H205.891C212.89 132.389 210.067 117.727 210.067 117.727C210.169 117.818 210.269 117.909 210.368 118.006C210.911 118.541 211.368 119.157 211.721 119.833C211.784 119.895 212.704 120.816 213.727 122.727C215.092 128.158 214.632 136.377 214.446 138.935Z" fill="#080F28"/>
<path d="M181.393 137.961C181.393 137.961 179.661 138.761 177.947 138.797C177.947 138.797 180.45 138.97 181.137 138.814L181.393 137.961Z" fill="#134DA3"/>
<path d="M158.631 170.085L159.524 173.326L160.992 174.019C160.992 174.019 159.878 171.346 158.631 170.085Z" fill="#000028"/>
<path d="M182.946 114.63L162.089 110.34C162.82 107.64 166.102 107.108 166.102 107.108L182.941 114.626L182.946 114.63Z" fill="#DB3737"/>
<path opacity="0.24" d="M114.661 42.844C108.059 39.9167 100.579 39.6591 93.7907 42.1251C87.0024 44.591 81.4322 49.5891 78.2477 56.0716C78.0887 56.3997 77.9338 56.7313 77.7831 57.0663C75.4627 62.2863 74.8059 68.0941 75.9022 73.7005C76.8835 78.7428 79.2276 83.4199 82.6799 87.2239C82.9631 87.5357 83.2509 87.844 83.5535 88.1375L83.5113 88.1889L88.8889 92.3183C89.6266 92.7622 90.3909 93.1745 91.1819 93.5551C91.4502 93.6876 91.7244 93.8132 92.0008 93.9365C93.583 94.6397 95.2268 95.1952 96.9113 95.5958C103.256 97.1034 109.928 96.3403 115.769 93.4391C121.609 90.5378 126.248 85.682 128.88 79.7153C135.129 65.6346 128.748 49.0895 114.661 42.844ZM123.252 77.2235C121.152 81.956 117.437 85.7869 112.772 88.0306C108.106 90.2743 102.794 90.7842 97.7861 89.4691C96.6616 89.1689 95.5623 88.7813 94.4983 88.3099C89.2501 85.9832 85.1327 81.6788 83.041 76.3327C80.9493 70.9864 81.0527 65.0306 83.3286 59.7602C83.3537 59.6951 83.3822 59.6301 83.4119 59.565C85.7647 54.2991 90.1097 50.181 95.494 48.1135C100.878 46.0459 106.863 46.1977 112.135 48.5353C117.408 50.8731 121.538 55.206 123.621 60.5844C125.704 65.9627 125.571 71.9475 123.248 77.2269L123.252 77.2235Z" fill="#1B65F8"/>
<path d="M20.6517 98.1583C20.6517 98.1583 23.437 100.19 25.9597 98.3548C28.4823 96.5196 25.0096 91.6387 25.0096 91.6387L20.6517 98.1583Z" fill="#0E1C56"/>
<path d="M30.6304 94.7415C30.6304 94.7415 25.3693 95.9635 21.5037 91.8352L30.1827 89.6403C30.1827 89.6403 32.0579 93.7503 30.6304 94.7415Z" fill="#0E1C56"/>
<path d="M41.0909 203.903L43.1601 212.632L40.9904 212.608L38.7361 212.583L34.2058 201.196C34.9329 200.218 35.4996 199.128 35.8845 197.971C36.014 197.584 36.1234 197.191 36.2123 196.793C36.2226 196.746 36.2317 196.696 36.2454 196.649C37.0596 193.017 38.4586 188.704 39.9957 184.487C40.2538 183.782 40.5135 183.081 40.7745 182.384C43.9652 173.934 47.4198 166.437 47.4198 166.437C46.3714 164.929 45.3882 158.31 45.3882 158.31L53.9702 153.2C53.9702 153.2 54.797 155.474 55.6089 158.093C56.2667 160.198 56.9131 162.53 57.1175 164.078C57.4601 166.705 47.2062 184.491 42.2134 192.962C41.6904 193.848 41.2256 194.631 40.8373 195.284C40.0379 196.633 39.556 197.43 39.556 197.43L41.0909 203.903Z" fill="#F27164"/>
<path opacity="0.53" d="M39.5561 197.43L41.091 203.903L40.3932 206.415L35.8846 197.97C36.0141 197.583 36.1235 197.19 36.2124 196.792C36.2227 196.745 36.2319 196.695 36.2456 196.648C37.0599 193.016 38.4587 188.703 39.9958 184.486C40.2539 183.781 40.5136 183.08 40.7748 182.383C40.9255 185.595 41.6324 189.875 42.2137 192.96C41.6906 193.847 41.2257 194.63 40.8375 195.283C40.0358 196.633 39.5561 197.43 39.5561 197.43Z" fill="#CC3E37"/>
<path d="M34.8683 200.74C34.9674 201.222 35.0962 201.695 35.2543 202.161C35.7294 203.456 36.4762 204.628 37.126 205.801C37.8306 207.07 38.4793 208.383 39.1941 209.642C39.5596 210.284 39.9707 210.784 40.6456 210.899C40.9565 210.948 41.2736 210.941 41.582 210.878C41.7716 210.839 41.9646 210.691 42.153 210.674C42.3106 210.659 42.4659 210.774 42.5984 210.86C43.1066 211.186 43.5737 211.599 44.083 211.931C44.5249 212.222 44.9966 212.401 45.4534 212.657C45.595 212.737 45.796 212.838 45.8451 213.035C45.9182 213.325 45.6612 213.627 45.4705 213.75C44.8938 214.125 44.0282 213.969 43.4012 213.979C42.0697 213.998 40.6833 214.135 39.3552 213.941C38.9201 213.877 38.4735 213.763 38.1835 213.345C37.6422 212.567 37.4595 211.403 37.1488 210.49C36.8873 209.722 36.5779 208.928 36.0742 208.335C35.7176 207.92 35.2706 207.594 34.7678 207.379C34.5976 207.307 34.5188 207.248 34.4389 207.454C34.3076 207.797 34.4206 208.368 34.4161 208.732C34.4069 209.47 34.3909 213.186 34.3909 213.448C34.3909 213.555 34.4355 213.828 34.3909 213.921C34.3327 214.045 34.4104 213.971 34.2391 214.008C34.1557 214.027 33.7423 214.069 33.6681 214.008C33.5539 213.917 33.6144 213.165 33.6087 212.956C33.5866 212.221 33.5486 211.487 33.4945 210.754C33.3951 209.346 33.3232 207.89 33.0126 206.52C32.7568 205.392 32.4633 204.442 32.5101 203.251C32.5352 202.622 32.6243 201.956 32.8812 201.397C33.2558 200.598 33.9992 199.982 34.5714 199.39L34.8683 200.74Z" fill="#06063F"/>
<path d="M47.043 213.223L41.0955 213.074L40.9905 212.608L38.6357 202.132C38.3707 200.943 37.9255 199.802 37.3156 198.748C37.0129 198.225 36.6453 197.533 36.2456 196.654C34.1524 192.073 31.1261 182.4 31.3351 165.011C31.342 164.386 31.3533 163.748 31.3693 163.1L30.2889 155.53L39.4248 158.71C39.4248 158.71 40.5131 160.889 40.5965 164.804C40.6113 165.489 40.5965 166.237 40.5383 167.032C40.3099 170.115 39.8394 177.195 39.9947 184.491C40.0735 188.206 40.3156 191.973 40.8363 195.289C41.0366 196.608 41.3084 197.914 41.6505 199.204C44.2737 208.831 47.043 213.223 47.043 213.223Z" fill="#F87B67"/>
<path opacity="0.53" d="M40.5977 164.799C36.2456 167.267 31.3304 165.007 31.3304 165.007C31.3372 164.381 31.3487 163.744 31.3647 163.095L31.2768 162.478L30.2843 155.525L39.4202 158.705C39.4202 158.705 40.1763 160.221 40.4743 162.99C40.5406 163.544 40.584 164.148 40.5977 164.799Z" fill="#CC3E37"/>
<path d="M39.426 158.705C39.426 158.705 40.1819 160.221 40.48 162.99C36.2546 163.777 32.8699 162.99 31.2768 162.479L30.2843 155.525L39.426 158.705Z" fill="#CC3E37"/>
<path d="M55.2208 156.868C53.0396 158.968 48.4316 161.504 46.1991 162.676C45.7206 160.519 45.3928 158.31 45.3928 158.31L51.8211 154.483C52.7211 154.514 53.6186 154.595 54.5093 154.727C54.7114 155.325 54.9604 156.062 55.2208 156.868Z" fill="#CC3E37"/>
<path opacity="0.53" d="M55.6148 158.093C50.493 161.005 47.4256 166.437 47.4256 166.437C46.9837 165.799 46.552 164.251 46.2003 162.676C45.7218 160.519 45.394 158.31 45.394 158.31L51.8223 154.483L53.9761 153.2C53.9761 153.2 54.1919 153.795 54.5105 154.727C54.7172 155.325 54.9673 156.062 55.2266 156.868C55.3487 157.262 55.4789 157.673 55.6148 158.093Z" fill="#CC3E37"/>
<path d="M38.2863 200.603C37.7536 201.102 37.4317 201.785 37.3864 202.513C37.2882 203.769 40.0198 213.134 40.8489 214.313C41.678 215.493 48.5756 216.135 49.1043 215.142C49.6331 214.15 46.1351 211.125 46.1351 211.125C46.1351 211.125 44.0921 213.047 42.2889 211.607C40.4857 210.167 38.2863 200.603 38.2863 200.603Z" fill="#111050"/>
<path d="M55.2161 155.559C44.0109 167.093 27.1723 160.67 27.1723 160.67C27.1723 160.67 27.0398 157.394 27.1723 147.565C27.2522 141.391 28.9995 135.278 30.2933 131.578C31.0585 129.389 31.6637 128.05 31.6637 128.05L48.9774 125.162L51.3196 136.582L55.2161 155.559Z" fill="#0E1C56"/>
<path d="M51.3197 136.57C49.5702 135.031 47.566 134.058 45.3152 134.113C38.936 134.282 33.3882 132.703 30.2935 131.583C31.0586 129.395 31.6638 128.056 31.6638 128.056L48.9775 125.162L51.3197 136.57Z" fill="#001044"/>
<path d="M81.2454 88.0129C81.6131 88.3236 81.9899 88.625 82.3759 88.9174C81.9899 88.625 81.6131 88.3236 81.2454 88.0129Z" fill="#F95F35"/>
<path d="M84.0697 90.1028L82.9722 91.4412L81.3586 93.4145L72.5584 104.149L71.0556 105.976L64.6057 113.844L63.7183 114.923L62.895 115.928C62.6502 116.229 62.3479 116.478 62.0058 116.661C61.6637 116.845 61.2885 116.958 60.9022 116.994C60.7059 117.014 60.5082 117.014 60.3118 116.994C59.7347 116.937 59.188 116.709 58.7416 116.339C58.3105 115.987 57.9881 115.52 57.812 114.992C57.6359 114.465 57.6134 113.898 57.7469 113.358C57.792 113.169 57.8567 112.985 57.9399 112.809L57.9513 112.784C58.0522 112.57 58.1797 112.369 58.3304 112.187L67.1911 101.381L69.0491 99.1165L77.8938 88.3327L79.4823 86.3913C80.0435 86.9546 80.6316 87.4948 81.2467 88.0118C81.6144 88.3213 81.989 88.6239 82.375 88.9162C82.9231 89.3319 83.4861 89.7293 84.0697 90.1028Z" fill="#DB3737"/>
<path d="M88.367 89.517C88.367 89.5706 87.8177 90.5619 87.1108 91.8101C86.0619 91.3073 85.0462 90.7382 84.0697 90.1062L82.9722 91.4446L81.3586 93.4146C80.1629 91.7404 78.8222 89.8127 77.8938 88.3362L79.4823 86.3948C79.1842 86.0967 78.8919 85.7884 78.6098 85.4812C82.5954 85.2905 88.367 89.3845 88.367 89.517Z" fill="#BA1717"/>
<path d="M110.585 41.0944C103.983 38.167 96.5039 37.9091 89.7156 40.3746C82.9272 42.8401 77.3569 47.8377 74.172 54.3198C74.0129 54.6472 73.8584 54.9787 73.7083 55.3144C71.3887 60.5334 70.7331 66.3404 71.8309 71.9452C72.8127 76.989 75.1584 81.6672 78.6132 85.4709C78.8952 85.7826 79.1841 86.091 79.4856 86.3845C80.0468 86.9478 80.6349 87.488 81.25 88.005C81.6177 88.3144 81.9923 88.6171 82.3783 88.9094C82.9264 89.3239 83.4894 89.7214 84.073 90.0982C85.048 90.7348 86.0627 91.3084 87.1107 91.8158C87.3802 91.9482 87.6531 92.0739 87.9295 92.1972C91.2837 93.6918 94.9001 94.5094 98.571 94.6032C102.242 94.6971 105.895 94.0654 109.322 92.7441C112.748 91.4228 115.88 89.4381 118.537 86.904C121.195 84.3697 123.326 81.3357 124.808 77.976C131.053 63.885 124.673 47.3399 110.585 41.0944ZM119.177 75.4739C117.078 80.2066 113.362 84.0375 108.696 86.281C104.03 88.5244 98.7177 89.034 93.7102 87.7183C92.5857 87.4189 91.4864 87.0317 90.4225 86.5603C85.1751 84.2334 81.0583 79.9293 78.9669 74.5836C76.8755 69.238 76.9786 63.283 79.2538 58.013C79.2778 57.9479 79.3075 57.8828 79.336 57.8177C81.689 52.5517 86.0339 48.4337 91.4182 46.3662C96.8025 44.2986 102.787 44.4504 108.06 46.788C113.332 49.1258 117.463 53.4587 119.546 58.8371C121.629 64.2154 121.495 70.2002 119.172 75.4796L119.177 75.4739Z" fill="#DB3737"/>
<path d="M71.0554 105.976L64.6055 113.843C62.2176 113.509 59.5328 113.075 57.9397 112.809L57.9511 112.784C58.0521 112.57 58.1795 112.369 58.3303 112.186L67.1909 101.381C68.8 101.321 70.3028 101.363 70.288 101.702C70.2515 102.418 66.1689 105.578 67.8499 105.988C68.6093 106.171 69.8894 106.103 71.0554 105.976Z" fill="#BA1717"/>
<path d="M42.8006 84.5607C43.029 85.2813 45.5186 89.2783 44.3389 90.0651C43.4253 90.6761 39.6567 92.4381 37.9438 93.8199C37.4527 94.2162 37.1341 94.5828 37.0976 94.8808C37.0028 95.6528 37.3625 98.1755 37.7062 100.202C37.7062 100.22 37.7062 100.237 37.7142 100.256C37.9632 101.733 38.203 102.933 38.2441 102.974C38.3423 103.072 33.0332 103.008 31.8227 101.632C30.6122 100.256 31.0359 99.8302 31.0359 99.8302C31.0359 99.8302 31.0359 99.3197 31.0085 98.55C30.9228 96.4454 30.5859 92.3993 29.2658 91.6056C29.1071 91.512 28.9461 91.4138 28.7873 91.3099C27.1349 90.2661 25.4961 88.9231 24.9754 87.1827C23.4999 82.2722 32.5422 73.946 32.5422 73.946C32.5422 73.946 35.8836 72.9958 38.2098 77.1241C40.5361 81.2524 44.5022 81.0571 44.9259 81.7103C45.3495 82.3635 42.5711 83.8413 42.8006 84.5607Z" fill="#F87B67"/>
<path opacity="0.47" d="M36.7869 75.2627C36.7869 75.2627 31.6594 75.6806 31.1672 79.592C30.675 83.5033 31.5669 87.4146 29.8516 87.6887C28.1364 87.9627 26.8745 88.5018 26.4417 91.0119C26.0088 93.5219 24.514 76.1797 29.3674 74.8573C34.2209 73.5348 36.0309 74.421 36.7869 75.2627Z" fill="#E54F48"/>
<path d="M35.9623 74.6186C35.9623 74.6186 33.3963 68.8024 25.9265 72.8325C18.4568 76.8626 17.4085 86.6254 21.5036 91.8352C21.5036 91.8352 27.3552 73.6856 35.9623 74.6186Z" fill="#234087"/>
<path d="M21.6863 92.0259C21.0797 92.1483 20.5101 92.4112 20.0232 92.7933C19.5364 93.1754 19.1458 93.6662 18.8827 94.2265C17.9691 96.1599 19.4069 100.059 23.2394 98.9452C27.0719 97.8317 24.8142 92.429 24.8142 92.429L21.6863 92.0259Z" fill="#234087"/>
<path opacity="0.47" d="M38.2463 102.974C38.3446 103.072 33.0355 103.008 31.825 101.632C30.6144 100.256 31.0381 99.8302 31.0381 99.8302C31.0381 99.8302 31.0381 99.3197 31.0107 98.55C30.9251 96.4454 30.5882 92.3993 29.268 91.6056C29.1093 91.512 28.9483 91.4138 28.7896 91.3099C29.7203 91.9345 30.4489 91.3099 30.4489 91.3099C30.4489 91.3099 31.9551 93.3746 31.6274 94.1283C31.2996 94.882 31.3316 95.3845 31.3316 95.3845C31.7267 98.9623 35.5924 99.2444 36.6407 99.4396C37.6891 99.6349 36.1839 95.968 36.2319 94.9151C36.2798 93.8622 37.9449 93.8245 37.9449 93.8245C37.4538 94.2208 37.1352 94.5874 37.0986 94.8854C37.0039 95.6574 37.3636 98.18 37.7073 100.207C37.7073 100.224 37.7073 100.241 37.7153 100.261C37.9654 101.733 38.2052 102.933 38.2463 102.974Z" fill="#E54F48"/>
<path d="M38.2462 102.974C38.3445 103.072 33.0354 103.008 31.8248 101.632C30.6143 100.256 31.038 99.8302 31.038 99.8302C31.038 99.8302 31.038 99.3197 31.0106 98.55C31.1671 98.63 37.9973 102.029 37.7164 100.256C37.9653 101.733 38.2051 102.933 38.2462 102.974Z" fill="#E54F48"/>
<path d="M60.2295 109.495C60.1302 110.116 61.7358 113.035 61.7358 113.035L59.4279 114.291C59.0339 115.423 51.7594 119.255 51.7594 119.255C50.8264 121.075 49.0072 125.841 49.0072 125.841C42.3243 129.381 31.6593 128.053 31.6593 128.053C26.7488 123.828 26.2783 111.859 26.1778 108.935C26.0773 106.012 27.434 103.796 28.2185 103.26C29.003 102.723 29.8904 101.49 29.8904 101.49L36.3118 102.932L39.6852 101.105C39.6852 101.105 44.5957 101.139 46.1089 102.777C46.7621 103.486 48.0925 104.766 49.3921 105.986L52.6662 109.013L52.6924 109.037L52.7244 109.067C52.7244 109.067 58.327 105.659 59.1481 105.331C59.9692 105.003 60.1964 105.299 60.1964 105.299C61.0472 105.136 62.3902 103.891 62.3902 103.891L64.4549 106.478L62.1618 109.92L60.2295 109.495Z" fill="#FFB100"/>
<path opacity="0.66" d="M29.3673 102.153C29.3673 102.153 33.724 103.581 34.5063 104.236C35.2885 104.892 36.4876 105.17 36.4876 105.17C36.4876 105.17 36.8873 102.191 37.9162 101.973C37.9162 101.973 39.3551 103 39.9935 103.571C39.9935 103.571 40.2881 104.201 40.3864 102.448C40.4846 100.695 36.9958 102.465 36.4385 102.317C35.8812 102.17 30.1975 101.275 30.1975 101.275C30.1975 101.275 29.7704 101.704 29.3673 102.153Z" fill="#F99911"/>
<path opacity="0.66" d="M32.0203 106.021C32.0203 106.021 36.828 107.163 39.1371 110.74C41.4462 114.316 47.0911 110.87 47.0911 110.87C47.0911 110.87 49.1889 113.655 48.9594 113.918C48.7298 114.18 43.029 116.931 43.029 116.931C43.029 116.931 33.5277 105.891 32.0203 106.021Z" fill="#F99911"/>
<path d="M44.3091 106.219C44.3091 106.219 48.0776 111.951 48.9615 113.918C48.9615 113.918 55.842 110.346 57.5127 110.412L60.2318 109.498L62.067 109.399L61.5074 107.918C61.5074 107.918 50.2691 113.094 48.4351 110.638C46.601 108.182 44.3091 106.219 44.3091 106.219Z" fill="#F99911"/>
<path d="M60.1963 105.3L62.0646 109.208L64.4559 106.48C64.4559 106.48 62.6458 107.536 61.7608 106.652C61.2779 106.159 60.7546 105.707 60.1963 105.3Z" fill="#F99911"/>
<path d="M51.7594 119.259L51.2706 120.431L49.0072 125.847C49.0072 125.847 41.6197 129.746 36.8702 126.863C32.1207 123.981 30.0868 117.853 30.0868 117.853C30.0868 117.853 29.8584 116.641 30.9399 116.939V116.946C31.1683 117.139 40.4914 125.033 42.3369 125.033C44.2086 125.024 51.7594 119.259 51.7594 119.259Z" fill="#F99911"/>
<path d="M51.7593 119.259L51.2705 120.431C51.0992 120.578 45.5948 125.325 41.792 126.002C37.9892 126.679 31.1578 117.218 30.9523 116.933C31.1807 117.126 40.5038 125.019 42.3493 125.019C44.2085 125.024 51.7593 119.259 51.7593 119.259Z" fill="#E07500"/>
<path d="M57.5105 110.412C57.5105 110.412 58.4686 113.901 59.4267 114.295L61.737 113.038C61.737 113.038 59.7465 113.563 58.9357 112.353C58.1249 111.144 57.5105 110.412 57.5105 110.412Z" fill="#F99911"/>
<path d="M69.7296 101.696C69.7022 102.091 68.0257 103.197 66.9134 102.789C66.9134 102.789 66.0135 105.872 63.9328 106.47C63.7442 106.524 63.5499 106.556 63.3539 106.566C60.8609 106.69 62.3261 104.907 62.3261 104.907C62.3603 104.808 64.1647 103.229 64.6192 102.281C65.5716 100.316 66.8803 100.807 66.8803 100.807C66.8803 100.807 68.462 101.149 68.8628 101.149C68.8617 101.156 69.7752 101.107 69.7296 101.696Z" fill="#F87B67"/>
<path opacity="0.47" d="M66.9135 102.789C66.9135 102.789 66.0136 105.872 63.9329 106.47C63.6155 106.409 63.4522 106.304 63.596 106.135C64.1042 105.537 66.0114 103.064 66.2329 102.789C66.4545 102.514 66.9135 102.789 66.9135 102.789Z" fill="#E54F48"/>
<path d="M44.3069 106.219L48.9593 113.918L49.7633 113.509L44.3069 106.219Z" fill="#ED8100"/>
<path opacity="0.66" d="M43.029 116.931C43.029 116.931 41.4188 117.959 41.1755 117.625C40.5737 116.783 39.3232 113.01 39.3232 113.01L43.029 116.931Z" fill="#F99911"/>
<path d="M33.7412 107.104C33.7412 107.104 41.9806 115.765 43.52 115.602C45.0594 115.439 48.9593 113.918 48.9593 113.918L43.029 116.931L33.7412 107.104Z" fill="#ED8100"/>
<path opacity="0.66" d="M59.6231 114.521L45.3151 123.709C45.3151 123.709 43.1259 125.651 41.6276 124.824C40.1293 123.997 38.9451 123.2 38.9451 123.2C38.9451 123.2 43.3806 125.027 58.9413 113.855L59.6231 114.521Z" fill="#F99911"/>
<path opacity="0.66" d="M52.7254 109.068C52.7254 109.068 51.8746 109.617 51.4155 109.604C51.0501 109.591 49.8603 107.024 49.3932 105.987L52.6671 109.014L52.6935 109.038L52.7254 109.068Z" fill="#F99911"/>
<path d="M30.9648 99.2809C30.9648 99.2809 30.7512 99.3049 30.4064 99.9661C30.0615 100.627 29.4482 101.686 29.4482 101.686C29.4482 101.686 33.7238 102.743 35.0017 103.751C36.2796 104.758 36.9671 104.758 36.9671 104.758C36.9671 104.758 37.256 102.08 38.0325 102.017L30.9648 99.2809Z" fill="#FFC050"/>
<path d="M37.6102 99.611L38.0328 102.021C38.0328 102.021 39.7457 102.135 40.383 103.005C40.383 103.005 41.0225 103.655 40.383 100.927C40.383 100.927 37.5029 98.9669 37.6102 99.611Z" fill="#FFC050"/>
<path d="M35.9623 74.6186C35.9623 74.6186 32.1515 71.0636 26.9406 74.1435C21.7297 77.2234 20.5523 86.8549 21.5024 91.8351C21.5024 91.8351 23.1012 94.1066 28.038 90.8907C28.038 90.8907 26.1549 89.3125 26.8755 87.9033C27.5961 86.4941 29.5021 86.6585 29.5021 86.6585C29.5021 86.6585 26.7978 74.1778 35.9623 74.6186Z" fill="#132970"/>
<path d="M69.9765 110.936C69.7605 111.189 69.5216 111.421 69.2627 111.63C68.4531 112.296 67.4481 112.824 66.9605 112.784C66.3118 112.73 61.3339 112.533 61.3339 112.533L60.1919 109.913L60.0458 109.57C60.1474 109.595 62.1573 108.191 62.6244 107.317C63.0914 106.443 64.3442 104.945 65.0511 105.045C65.0511 105.045 65.4839 105.248 65.758 105.958C66.0321 106.668 67.5532 107.39 68.5273 107.125C69.5014 106.86 70.7713 106.039 71.0202 106.62C71.2692 107.202 70.7759 109.989 69.9765 110.936Z" fill="#F87B67"/>
<path opacity="0.47" d="M69.2627 111.63C68.453 112.296 67.4481 112.824 66.9604 112.784C66.3118 112.73 61.3339 112.533 61.3339 112.533L60.1919 109.913C60.1919 109.913 61.866 112.582 69.2627 111.63Z" fill="#E54F48"/>
<path d="M244.908 63.5344H238.985V88.2893H244.908V63.5344Z" fill="#1F2A83"/>
<path d="M224.785 75.1062H218.862V88.2893H224.785V75.1062Z" fill="#1B65F8"/>
<path d="M214.723 79.5793H208.8V88.2904H214.723V79.5793Z" fill="#00D569"/>
<path d="M234.847 69.8976H228.924V88.2904H234.847V69.8976Z" fill="#FFB100"/>
<path d="M238.502 55.5211L208.318 72.1899L209.276 73.9234L239.459 57.2545L238.502 55.5211Z" fill="#DB3737"/>
<path d="M243.262 53.8218L237.142 54.1496L240.485 59.2863L243.262 53.8218Z" fill="#DB3737"/>
<path d="M244.908 93.1233H204.638V56.405H205.431V92.3308H244.908V93.1233Z" fill="#A1C6E5"/>
<path d="M232.989 11.9109H207.495V14.4039H232.989V11.9109Z" fill="#A1C6E5"/>
<path d="M222.963 11.9109H207.495V14.4039H222.963V11.9109Z" fill="#A1C6E5"/>
<path d="M232.989 18.1428H207.495V20.6357H232.989V18.1428Z" fill="#A1C6E5"/>
<path d="M225.651 18.1428H207.495V20.6357H225.651V18.1428Z" fill="#1B65F8"/>
<path d="M232.989 24.3734H207.495V26.8664H232.989V24.3734Z" fill="#A1C6E5"/>
<path d="M219.628 24.3734H207.495V26.8664H219.628V24.3734Z" fill="#1F2A83"/>
<path d="M232.989 30.6052H207.495V33.0982H232.989V30.6052Z" fill="#A1C6E5"/>
<path d="M226.691 30.6052H207.495V33.0982H226.691V30.6052Z" fill="#FFB100"/>
<path d="M232.989 36.8359H207.495V39.3289H232.989V36.8359Z" fill="#A1C6E5"/>
<path d="M224.385 36.8359H207.495V39.3289H224.385V36.8359Z" fill="#00D569"/>
<path d="M205.031 38.091H206.78V37.9437H205.031" fill="#A1C6E5"/>
<path d="M205.031 31.8946H206.78V31.7473H205.031" fill="#A1C6E5"/>
<path d="M205.031 25.6982H206.78V25.5508H205.031" fill="#A1C6E5"/>
<path d="M205.031 19.5018H206.78V19.3544H205.031" fill="#A1C6E5"/>
<path d="M205.031 13.3053H206.78V13.158H205.031" fill="#A1C6E5"/>
<path d="M205.329 11.2132H204.734V40.0255H205.329V11.2132Z" fill="#A1C6E5"/>
<path d="M45.3656 41.3696C48.8105 41.3696 51.6031 38.577 51.6031 35.1321C51.6031 31.6872 48.8105 28.8945 45.3656 28.8945C41.9207 28.8945 39.1281 31.6872 39.1281 35.1321C39.1281 38.577 41.9207 41.3696 45.3656 41.3696Z" fill="#A1C6E5"/>
<path d="M45.3655 47.453C42.515 47.4504 39.7535 46.4594 37.5518 44.649C35.35 42.8386 33.8441 40.3208 33.2906 37.5246C32.7371 34.7283 33.1702 31.8266 34.5163 29.314C35.8623 26.8013 38.0379 24.8331 40.6725 23.7447C43.3069 22.6563 46.2374 22.5151 48.9643 23.3451C51.6914 24.1751 54.0462 25.9248 55.6277 28.2964C57.2091 30.668 57.9193 33.5146 57.6374 36.3511C57.3553 39.1875 56.0986 41.8385 54.0811 43.8523C52.9371 44.9969 51.5781 45.9042 50.0825 46.5222C48.5868 47.14 46.9838 47.4564 45.3655 47.453ZM45.3655 23.5489C42.6857 23.5506 40.0894 24.4815 38.019 26.1829C35.9487 27.8843 34.5321 30.2508 34.0111 32.8794C33.4899 35.508 33.8962 38.236 35.1609 40.5986C36.4256 42.9611 38.4703 44.8122 40.9467 45.8362C43.4231 46.8602 46.1779 46.9939 48.7419 46.2145C51.3058 45.4352 53.5202 43.7909 55.0077 41.5619C56.4953 39.333 57.1639 36.6571 56.8998 33.9905C56.6356 31.3237 55.455 28.8311 53.5592 26.9372C52.4837 25.8608 51.2063 25.0074 49.8003 24.426C48.3941 23.8445 46.8871 23.5464 45.3655 23.5489Z" fill="#A1C6E5"/>
<path d="M54.9582 32.5524C54.4967 30.8412 53.5864 29.2844 52.3216 28.0431C51.0567 26.8018 49.4832 25.9208 47.7637 25.4914L48.7355 21.5596C51.1591 22.1617 53.3773 23.4016 55.16 25.1504C56.9426 26.8994 58.2246 29.0935 58.8729 31.5052L54.9582 32.5524Z" fill="#1B65F8"/>
<path d="M45.3655 52.4275C43.0933 52.4339 40.8423 51.9895 38.7431 51.12C36.6439 50.2503 34.738 48.9729 33.1359 47.3617C26.3925 40.624 26.3925 29.646 33.1359 22.9037C34.7417 21.2976 36.6482 20.0236 38.7465 19.1544C40.8447 18.2852 43.0937 17.8378 45.3649 17.8378C47.636 17.8378 49.885 18.2852 51.9832 19.1544C54.0815 20.0236 55.988 21.2976 57.5938 22.9037C64.3372 29.6415 64.3372 40.6194 57.5938 47.3617C55.9919 48.9729 54.0863 50.2502 51.9872 51.1198C49.8881 51.9893 47.6375 52.4338 45.3655 52.4275ZM45.3655 18.5745C42.0906 18.5747 38.8895 19.546 36.1667 21.3654C33.4438 23.1849 31.3217 25.7708 30.0685 28.7963C28.8151 31.8217 28.4871 35.1509 29.1259 38.3628C29.7646 41.5747 31.3412 44.5251 33.6566 46.8409C36.7618 49.9442 40.972 51.6874 45.362 51.6874C49.752 51.6874 53.9623 49.9442 57.0673 46.8409C63.5241 40.3853 63.5241 29.8801 57.0673 23.4302C55.5348 21.8873 53.7115 20.6636 51.7028 19.8302C49.6942 18.9967 47.5402 18.5699 45.3655 18.5745Z" fill="#A1C6E5"/>
<path d="M45.3654 54.0845C42.8756 54.0917 40.4091 53.6049 38.1087 52.6521C35.8084 51.6995 33.7199 50.2999 31.9642 48.5345C24.5744 41.1458 24.5744 29.1207 31.9642 21.7332C34.256 19.4242 37.1068 17.7482 40.2388 16.8686C43.371 15.989 46.6775 15.9358 49.8363 16.7141L48.8839 20.6517C46.4002 20.0399 43.8005 20.0817 41.3377 20.773C38.875 21.4641 36.6331 22.7813 34.8306 24.5961C29.0202 30.4054 29.0202 39.8588 34.8306 45.6692C37.6252 48.4638 41.4155 50.0338 45.3677 50.0338C49.3199 50.0338 53.1102 48.4638 55.9048 45.6692C57.7307 43.8328 59.0493 41.5544 59.732 39.0563C60.4147 36.5582 60.4382 33.9259 59.8002 31.4161L63.724 30.4111C64.5347 33.6029 64.504 36.9504 63.6349 40.1268C62.7659 43.3031 61.0882 46.2 58.7655 48.5345C57.0098 50.2997 54.9216 51.6991 52.6214 52.6519C50.3213 53.6045 47.855 54.0915 45.3654 54.0845Z" fill="#FFB100"/>
<path d="M45.3656 54.0845C42.8757 54.0917 40.4092 53.6049 38.1088 52.6521C35.8085 51.6995 33.7201 50.2998 31.9644 48.5345C25.752 42.322 24.6465 32.4324 29.3378 25.0164L32.7638 27.1861C29.0774 33.0103 29.9476 40.7918 34.833 45.6761C37.6276 48.4706 41.418 50.0406 45.3701 50.0406C49.3223 50.0406 53.1126 48.4706 55.9073 45.6761C57.7331 43.8396 59.0517 41.5612 59.7344 39.0631C60.4171 36.565 60.4406 33.9328 59.8026 31.4229L63.7265 30.418C64.5356 33.6089 64.5039 36.9552 63.6345 40.1302C62.765 43.3053 61.0875 46.2009 58.7657 48.5345C57.01 50.2997 54.9217 51.6991 52.6215 52.6519C50.3215 53.6045 47.8551 54.0915 45.3656 54.0845Z" fill="#1F2A83"/>
<path d="M45.3654 54.0845C41.8701 54.0822 38.4434 53.1149 35.4628 51.2894C32.4821 49.4638 30.0634 46.8507 28.4731 43.7381L32.083 41.8995C33.7497 45.1696 36.5645 47.7097 39.9878 49.0332C43.4113 50.3567 47.2025 50.3706 50.6356 49.0722C54.0686 47.7737 56.9018 45.2543 58.5925 41.9965C60.2831 38.7388 60.7124 34.9717 59.7979 31.4172L63.7217 30.4122C64.5326 33.6036 64.5022 36.9508 63.6335 40.1269C62.7649 43.3031 61.0876 46.1999 58.7655 48.5344C57.0099 50.2997 54.9216 51.6991 52.6215 52.6519C50.3213 53.6045 47.8551 54.0914 45.3654 54.0845Z" fill="#00D569"/>
<path d="M86.8642 13.5417H66.3335C66.1992 13.5417 66.0902 13.6506 66.0902 13.7849V14.2691C66.0902 14.4034 66.1992 14.5124 66.3335 14.5124H86.8642C86.9985 14.5124 87.1074 14.4034 87.1074 14.2691V13.7849C87.1074 13.6506 86.9985 13.5417 86.8642 13.5417Z" fill="#A1C6E5"/>
<path d="M86.8642 15.6852H66.3335C66.1992 15.6852 66.0902 15.7942 66.0902 15.9285V16.4127C66.0902 16.547 66.1992 16.6559 66.3335 16.6559H86.8642C86.9985 16.6559 87.1074 16.547 87.1074 16.4127V15.9285C87.1074 15.7942 86.9985 15.6852 86.8642 15.6852Z" fill="#A1C6E5"/>
<path d="M86.8642 17.8287H66.3335C66.1992 17.8287 66.0902 17.9376 66.0902 18.0719V18.5561C66.0902 18.6904 66.1992 18.7994 66.3335 18.7994H86.8642C86.9985 18.7994 87.1074 18.6904 87.1074 18.5561V18.0719C87.1074 17.9376 86.9985 17.8287 86.8642 17.8287Z" fill="#A1C6E5"/>
<path d="M76.3555 19.9722H66.3335C66.1992 19.9722 66.0902 20.0811 66.0902 20.2154V20.6996C66.0902 20.8339 66.1992 20.9429 66.3335 20.9429H76.3555C76.4899 20.9429 76.5988 20.8339 76.5988 20.6996V20.2154C76.5988 20.0811 76.4899 19.9722 76.3555 19.9722Z" fill="#A1C6E5"/>
<path d="M110.948 128.805C111.068 129.303 111.133 129.812 111.141 130.324C111.158 130.813 111.141 131.305 111.089 131.792C111.015 132.763 110.614 133.668 110.355 134.601C110.096 135.534 109.825 136.466 109.541 137.396C109.256 138.325 108.97 139.252 108.648 140.173L108.488 140.141C108.553 139.168 108.66 138.2 108.745 137.235C108.829 136.27 108.956 135.305 109.087 134.345C109.219 133.384 109.193 132.393 109.503 131.47C109.645 131.002 109.82 130.544 110.027 130.1C110.233 129.632 110.49 129.187 110.794 128.776L110.948 128.805Z" fill="#00D569"/>
<path opacity="0.56" d="M103.425 135.147C103.726 135.174 104.021 135.251 104.296 135.376C104.541 135.476 104.771 135.609 104.982 135.767C105.412 136.054 105.594 136.567 105.885 136.987C106.176 137.407 106.456 137.828 106.728 138.262C107 138.695 107.265 139.134 107.51 139.592L107.396 139.706C106.96 139.424 106.555 139.112 106.14 138.817C105.724 138.521 105.33 138.195 104.939 137.871C104.549 137.547 104.049 137.324 103.797 136.872C103.657 136.647 103.545 136.406 103.464 136.153C103.365 135.869 103.313 135.569 103.313 135.267L103.425 135.147Z" fill="#00D569"/>
<path opacity="0.56" d="M112.113 134.02C112.172 134.332 112.179 134.651 112.134 134.965C112.101 135.246 112.035 135.521 111.937 135.786C111.774 136.313 111.317 136.672 110.988 137.105C110.66 137.537 110.32 137.965 109.969 138.384C109.617 138.803 109.261 139.22 108.879 139.622L108.739 139.541C108.895 139.009 109.091 138.499 109.266 137.978C109.442 137.458 109.652 136.95 109.864 136.456C110.075 135.962 110.156 135.379 110.532 134.971C110.713 134.754 110.918 134.56 111.145 134.391C111.394 134.195 111.674 134.041 111.973 133.935L112.113 134.02Z" fill="#00D569"/>
<path d="M113.92 136.169C113.852 136.454 113.736 136.723 113.578 136.969C113.445 137.187 113.285 137.387 113.1 137.563C112.758 137.926 112.239 138.006 111.797 138.21C111.355 138.415 110.906 138.606 110.45 138.788C109.993 138.97 109.536 139.147 109.059 139.298L108.971 139.163C109.305 138.791 109.664 138.459 110.01 138.106C110.356 137.753 110.725 137.436 111.094 137.117C111.463 136.799 111.749 136.357 112.221 136.204C112.457 136.109 112.705 136.045 112.959 136.014C113.249 135.972 113.544 135.979 113.832 136.035L113.92 136.169Z" fill="#00D569"/>
<path opacity="0.56" d="M107.62 127.153C108.117 128.267 108.338 129.392 108.496 130.52C108.653 131.648 108.496 132.788 108.477 133.923C108.459 135.058 108.425 136.195 108.379 137.331C108.333 138.467 108.281 139.604 108.199 140.742L108.037 140.749C107.86 139.622 107.725 138.493 107.567 137.366C107.41 136.239 107.295 135.108 107.18 133.979C107.065 132.85 106.802 131.726 106.873 130.588C106.944 129.451 107.059 128.311 107.458 127.163L107.62 127.153Z" fill="#00D569"/>
<path d="M104.894 131.498C105.2 131.752 105.469 132.049 105.693 132.378C105.91 132.68 106.098 133 106.256 133.336C106.592 133.987 106.61 134.74 106.767 135.449C106.923 136.158 107.069 136.869 107.201 137.587C107.332 138.304 107.459 139.022 107.557 139.75L107.403 139.8C107.06 139.152 106.754 138.49 106.428 137.837C106.101 137.184 105.817 136.514 105.53 135.847C105.243 135.18 104.817 134.559 104.71 133.834C104.642 133.47 104.607 133.1 104.606 132.729C104.596 132.33 104.641 131.933 104.74 131.547L104.894 131.498Z" fill="#00D569"/>
<path d="M111.232 139.1H105.431V140.543H111.232V139.1Z" fill="#A6CDE2"/>
<path d="M110.781 140.543H105.882V144.919H110.781V140.543Z" fill="#7CADCE"/>
<g opacity="0.36">
<path opacity="0.36" d="M271.914 160.179C272.32 161.777 272.46 163.321 272.505 164.847C272.558 166.354 272.505 167.863 272.348 169.364C272.119 172.35 270.886 175.133 270.089 178.004C269.292 180.875 268.462 183.739 267.586 186.595C266.672 189.441 265.819 192.305 264.838 195.136L264.349 195.037C264.548 192.045 264.879 189.079 265.139 186.099C265.443 183.13 265.788 180.168 266.173 177.211C266.556 174.256 266.501 171.212 267.452 168.373C267.89 166.929 268.429 165.517 269.064 164.148C269.698 162.761 270.434 161.391 271.424 160.077L271.914 160.179Z" fill="#00D569"/>
<path opacity="0.56" d="M248.78 179.682C249.705 179.759 250.61 179.991 251.459 180.368C252.212 180.678 252.924 181.083 253.576 181.571C254.898 182.455 255.457 184.044 256.351 185.323C257.245 186.602 258.108 187.908 258.942 189.243C259.742 190.614 260.596 191.925 261.349 193.333L260.982 193.675C259.641 192.807 258.4 191.848 257.105 190.934C255.843 189.995 254.612 189.026 253.411 188.029C252.21 187.032 250.671 186.346 249.902 184.955C249.468 184.265 249.123 183.523 248.874 182.746C248.568 181.869 248.412 180.948 248.412 180.019L248.78 179.682Z" fill="#00D569"/>
<path opacity="0.56" d="M275.499 176.214C275.677 177.174 275.697 178.155 275.56 179.121C275.46 179.983 275.258 180.83 274.958 181.644C274.454 183.267 273.049 184.37 272.038 185.702C271.028 187.034 269.983 188.344 268.904 189.635C267.783 190.903 266.726 192.206 265.552 193.442L265.119 193.192C265.603 191.557 266.203 189.995 266.741 188.386C267.317 186.805 267.93 185.244 268.579 183.703C269.227 182.163 269.48 180.392 270.635 179.147C271.191 178.48 271.824 177.882 272.52 177.363C273.288 176.761 274.149 176.289 275.068 175.963L275.499 176.214Z" fill="#00D569"/>
<path opacity="0.36" d="M281.052 182.825C280.844 183.702 280.489 184.538 280 185.297C279.593 185.967 279.099 186.58 278.533 187.124C277.49 188.241 275.884 188.485 274.526 189.112C273.168 189.739 271.785 190.334 270.383 190.891C268.954 191.412 267.565 191.993 266.104 192.461L265.833 192.041C266.861 190.899 267.966 189.878 269.03 188.793C270.119 187.745 271.229 186.732 272.362 185.754C273.494 184.776 274.38 183.413 275.829 182.926C276.556 182.635 277.319 182.439 278.098 182.344C278.99 182.212 279.898 182.233 280.783 182.406L281.052 182.825Z" fill="#00D569"/>
<path opacity="0.56" d="M261.681 155.1C263.205 158.526 263.887 161.983 264.371 165.451C264.885 168.917 264.385 172.427 264.316 175.919C264.248 179.41 264.156 182.902 264.014 186.397C263.826 189.893 263.711 193.386 263.461 196.885L262.962 196.907C262.415 193.442 262.003 189.971 261.518 186.504C261.079 183.033 260.68 179.561 260.325 176.089C259.961 172.616 259.164 169.161 259.382 165.663C259.569 162.167 259.953 158.662 261.182 155.121L261.681 155.1Z" fill="#00D569"/>
<path opacity="0.36" d="M253.293 168.457C254.233 169.242 255.059 170.155 255.75 171.167C256.415 172.093 256.994 173.078 257.478 174.111C258.513 176.113 258.57 178.429 259.051 180.609C259.531 182.789 259.979 184.979 260.384 187.183C260.746 189.401 261.184 191.597 261.481 193.834L261.006 193.987C259.944 191.995 259.011 189.962 258.008 187.949C257.049 185.925 256.128 183.887 255.248 181.835C254.364 179.78 253.058 177.872 252.726 175.644C252.516 174.523 252.409 173.386 252.408 172.245C252.376 171.021 252.514 169.796 252.818 168.61L253.293 168.457Z" fill="#00D569"/>
<path opacity="0.36" d="M272.785 191.837H254.948V196.276H272.785V191.837Z" fill="#A6CDE2"/>
<path opacity="0.36" d="M271.399 196.276H256.335V209.732H271.399V196.276Z" fill="#7CADCE"/>
</g>
<path d="M92.3039 204.827C99.1067 198.024 99.1067 186.995 92.3039 180.192C85.501 173.389 74.4713 173.389 67.6685 180.192C60.8655 186.995 60.8655 198.024 67.6685 204.827C74.4713 211.629 85.501 211.629 92.3039 204.827Z" fill="#DAEBFF"/>
<path d="M90.1575 173.088L82.3188 168.976C82.0755 168.849 81.8002 168.795 81.5268 168.822C81.2533 168.848 80.9936 168.955 80.7794 169.127C80.5653 169.298 80.4061 169.53 80.3213 169.791C80.2365 170.052 80.2299 170.333 80.3021 170.598L81.7867 176.043L87.1666 178.795L92.4917 181.65L97.8122 179.768C98.0712 179.677 98.2979 179.511 98.4644 179.293C98.6309 179.075 98.7301 178.812 98.7497 178.538C98.7693 178.264 98.7087 177.99 98.575 177.75C98.4414 177.51 98.2406 177.315 97.9972 177.187L90.1575 173.088Z" fill="#DAEBFF"/>
<path d="M94.1465 182.305L80.3091 175.058C80.2038 175.003 80.1104 174.927 80.0341 174.836C79.9579 174.745 79.9005 174.64 79.8651 174.525C79.8297 174.412 79.8169 174.292 79.8277 174.175C79.8385 174.056 79.8724 173.941 79.9276 173.836C80.039 173.623 80.2302 173.463 80.4591 173.392C80.688 173.321 80.936 173.343 81.1484 173.454L94.987 180.701C95.1997 180.813 95.3592 181.004 95.4307 181.233C95.5022 181.463 95.4798 181.711 95.3684 181.923C95.3134 182.028 95.238 182.122 95.1468 182.198C95.0555 182.275 94.9501 182.332 94.8366 182.367C94.7231 182.403 94.6038 182.415 94.4853 182.405C94.3669 182.394 94.2518 182.359 94.1465 182.305Z" fill="white"/>
<path d="M74.4494 198.452L75.3961 196.646C74.3683 196.084 73.4627 195.2 73.071 194.424L74.1274 193.45C74.6325 194.35 75.3857 195.086 76.2972 195.57C77.567 196.234 78.8095 195.951 79.344 194.931C79.859 193.947 79.4799 192.973 78.4372 191.743C76.9881 190.072 76.2914 188.66 77.1068 187.102C77.8845 185.617 79.5301 185.046 81.3162 185.637L82.2629 183.83L83.3729 184.41L82.4593 186.146C83.5134 186.743 84.0969 187.415 84.4567 187.99L83.3912 188.937C82.9207 188.174 82.249 187.554 81.4498 187.148C80.0726 186.426 79.1213 186.978 78.7467 187.694C78.2602 188.623 78.6782 189.436 79.8978 190.891C81.347 192.604 81.7901 194.025 80.9553 195.618C80.2153 197.032 78.5377 197.84 76.5358 197.179L75.5766 199.048L74.4494 198.452Z" fill="white"/>
<path d="M11.7292 195.995C18.1473 195.995 23.3501 190.792 23.3501 184.374C23.3501 177.956 18.1473 172.753 11.7292 172.753C5.31124 172.753 0.108398 177.956 0.108398 184.374C0.108398 190.792 5.31124 195.995 11.7292 195.995Z" fill="#DAEBFF"/>
<path opacity="0.73" d="M18.8714 184.374C18.8714 185.786 18.4525 187.167 17.6677 188.342C16.883 189.516 15.7676 190.432 14.4625 190.972C13.1575 191.512 11.7215 191.654 10.3361 191.379C8.95065 191.104 7.67807 190.423 6.67925 189.424C5.68042 188.426 5.00022 187.152 4.72464 185.767C4.44906 184.382 4.59049 182.945 5.13105 181.641C5.67161 180.336 6.58702 179.22 7.76151 178.435C8.93601 177.651 10.3168 177.232 11.7294 177.232C13.6236 177.232 15.4402 177.984 16.7795 179.324C18.1189 180.664 18.8714 182.479 18.8714 184.374Z" fill="white"/>
<path d="M263.866 149.043C270.284 149.043 275.487 143.84 275.487 137.422C275.487 131.004 270.284 125.801 263.866 125.801C257.448 125.801 252.246 131.004 252.246 137.422C252.246 143.84 257.448 149.043 263.866 149.043Z" fill="#DAEBFF"/>
<path opacity="0.73" d="M271.01 137.422C271.01 138.835 270.59 140.217 269.806 141.391C269.021 142.566 267.906 143.481 266.6 144.023C265.295 144.563 263.86 144.705 262.473 144.429C261.088 144.154 259.815 143.473 258.815 142.474C257.816 141.476 257.137 140.203 256.86 138.818C256.585 137.431 256.727 135.996 257.267 134.69C257.807 133.385 258.723 132.269 259.898 131.484C261.072 130.699 262.454 130.28 263.866 130.28C265.761 130.28 267.577 131.033 268.916 132.372C270.257 133.712 271.01 135.528 271.01 137.422Z" fill="white"/>
<path d="M291.097 166.119C296.002 166.119 299.978 162.143 299.978 157.238C299.978 152.333 296.002 148.357 291.097 148.357C286.192 148.357 282.216 152.333 282.216 157.238C282.216 162.143 286.192 166.119 291.097 166.119Z" fill="#DAEBFF"/>
<path opacity="0.73" d="M296.555 157.238C296.555 158.317 296.234 159.372 295.634 160.27C295.035 161.168 294.182 161.866 293.185 162.28C292.188 162.692 291.09 162.801 290.032 162.589C288.973 162.379 288.001 161.858 287.237 161.096C286.474 160.333 285.955 159.36 285.745 158.301C285.533 157.242 285.642 156.145 286.055 155.148C286.469 154.151 287.168 153.298 288.065 152.699C288.963 152.099 290.018 151.779 291.097 151.779C291.814 151.779 292.523 151.921 293.186 152.195C293.848 152.469 294.45 152.871 294.957 153.378C295.463 153.885 295.865 154.487 296.14 155.149C296.414 155.812 296.555 156.521 296.555 157.238Z" fill="white"/>
<g opacity="0.54">
<path opacity="0.54" d="M69.7319 166.668C73.6531 166.668 76.8317 163.49 76.8317 159.569C76.8317 155.647 73.6531 152.469 69.7319 152.469C65.8109 152.469 62.6322 155.647 62.6322 159.569C62.6322 163.49 65.8109 166.668 69.7319 166.668Z" fill="#DAEBFF"/>
<path opacity="0.54" d="M74.0956 159.569C74.0956 160.432 73.8397 161.275 73.3603 161.993C72.8807 162.71 72.1992 163.27 71.4019 163.6C70.6047 163.93 69.7273 164.017 68.8808 163.849C68.0344 163.68 67.2568 163.264 66.6466 162.654C66.0364 162.043 65.6208 161.267 65.4523 160.42C65.284 159.573 65.3705 158.696 65.7007 157.899C66.031 157.102 66.5902 156.42 67.3078 155.941C68.0254 155.461 68.8691 155.205 69.7321 155.205C70.8893 155.205 71.9992 155.665 72.8176 156.483C73.6358 157.302 74.0956 158.412 74.0956 159.569Z" fill="white"/>
</g>
</svg>
