<svg width="300" height="201" viewBox="0 0 300 201" fill="none" xmlns="http://www.w3.org/2000/svg">
<g clip-path="url(#clip0)">
<g opacity="0.53">
<g opacity="0.56">
<path opacity="0.56" d="M258.221 1.24255H183.442V192.714H258.221V1.24255Z" fill="#DAEBFF"/>
<path opacity="0.56" d="M255.787 2.89978H185.685V192.713H255.787V2.89978Z" fill="#B9D2EA"/>
<path opacity="0.39" d="M255.647 42.0993L255.559 66.9312L255.79 77.8621V25.5164L255.647 42.0993ZM255.718 192.713H255.787V191.46L255.718 192.713ZM250.19 140.09L248.641 124.806L248.979 111.379L248.987 103.928L247.87 87.7249L247.015 76.3766L248.404 64.7815L250.145 57.1976L250.531 44.1835L248.977 32.9691L249.797 11.1237L249.412 2.9036H248.868L249.254 11.1295L248.433 32.9691V33.0241L249.988 44.248L249.621 56.9875L247.886 64.5742L246.468 76.3496L247.33 87.8117L248.446 103.967L248.437 111.361L248.103 124.848L249.66 140.263L250.643 145.276L250.392 158.001L249.658 173.57L249.071 192.711H249.613L250.2 173.617L250.934 158.042L251.19 145.228V145.162L250.19 140.09ZM254.686 147.004L253.559 134.333L251.425 119.371L253.026 105.164L251.254 90.2641L250.747 77.9518L251.856 61.339L253.541 49.7429L253.549 49.686L252.874 34.0691L253.555 24.6218L252.236 12.7297L253.441 2.89685H252.89L251.693 12.6545L251.687 12.7249L253.007 24.6468L252.333 34.0517L253.002 49.6234L251.322 61.2146L250.206 77.9402L250.716 90.3644L252.474 105.166L250.871 119.388L253.024 134.472L254.14 147.033L252.806 176.282L252.956 192.609L252.951 192.713H253.494V192.636L253.35 176.304L254.686 147.004ZM240.629 104.306L239.889 82.1337L239.106 70.9232L240.207 61.8277L241.018 52.9126L241.842 46.525L240.671 32.2779L237.888 12.7683L237.931 2.89974H237.391L237.346 12.8512L240.135 32.4119L241.292 46.4971L240.481 52.7805L239.668 61.7015L238.564 70.8345L238.556 70.8933L239.345 82.1963L240.085 104.313L239.149 141.315L240.511 150.782L239.855 160.622L239.023 176.359L237.921 185.401L237.582 192.494L237.575 192.713H238.118L238.124 192.541L238.458 185.504L239.562 176.465L240.395 160.694L241.06 150.735L239.694 141.244L240.629 104.306ZM243.756 83.0977L243.334 68.5016L243.737 62.3493L244.964 57.5745L244.833 45.6729L244.575 37.9058L242.697 25.8557L242.028 9.17834L241.556 2.90649H241.01L241.492 9.24872L242.167 25.9704L244.045 38.0205L244.296 45.6998L244.424 57.4309L243.22 62.1044L242.796 68.4756L243.22 83.1941L244.132 90.2632L244.203 95.0919L243.396 120.954L243.057 134.961L243.871 144.354L242.557 154.495V184.434L242.415 192.718H242.957L243.098 184.443L243.091 154.573L244.417 144.379L243.591 134.923L243.934 120.99L244.468 104.344L244.742 95.1006L244.666 90.1764L243.756 83.0977ZM216.548 175.334L215.542 173.88L213.614 160.85L212.316 119.193L211.978 87.5601L212.716 73.4094L212.99 58.7468L214.027 47.4139L215.347 41.5835L215.453 31.7506L215.961 21.9418L215.732 6.51767L215.662 2.9036H215.118L215.188 6.53792L215.42 21.9187L214.912 31.713L214.821 41.3869L213.502 47.2297L212.452 58.6793L212.179 73.366L211.441 87.5369L211.777 119.218L213.08 160.96L215.05 174.302L216.014 175.69L216.11 183.827L215.714 192.717H216.271L216.652 183.848L216.548 175.334ZM248.233 142.441L246.274 125.662L245.736 125.734L245.787 140.018L245.336 152.175L245.179 162.586L245.02 169.307L245.246 177.05L243.949 192.716H244.488L245.787 177.082L245.561 169.305L245.72 162.611L245.878 152.21L246.329 140.041L246.294 130.57L247.695 142.524L247.778 148.597L247.296 171.368L246.889 180.925L246.021 192.719H246.566L247.433 180.996L247.842 171.408L248.324 148.603L248.233 142.441ZM189.235 123.134L186.964 95.303L186.868 77.4592L186.654 58.6446L186.648 42.375L186.231 25.178L186.652 9.39332L186.593 2.89974H186.054L186.113 9.38175L185.693 25.1761L186.109 42.3885L186.115 58.6523L186.329 77.4678L186.425 95.356L188.705 123.273L190.916 138.051L190.82 161.127L190.745 186.921L190.68 192.713H191.222L191.287 186.929L191.363 161.131L191.459 138.012V137.964L189.235 123.134ZM228.239 132.145L228.616 110.867L228.732 95.3464L227.242 79.8731L226.326 34.927L225.859 17.2606L225.054 2.89685H224.51L225.317 17.3097L225.784 34.9511L226.702 79.9386L228.192 95.3956L228.074 110.848L227.699 132.178L228.596 144.228L227.75 157.07L226.748 185.418L226.292 192.716H226.832L227.283 185.478L228.284 157.131L229.132 144.265V144.224L228.239 132.145ZM231.176 145.318L231.466 121.121L231.478 107.561L231.751 95.5575L231.287 87.6179L229.753 77.2529L229.078 53.571L229.508 29.8342L229.011 20.089L228.513 2.90263H227.963L228.23 12.375L228.469 20.1401L228.966 29.8534L228.536 53.5768L229.217 77.3589L230.753 87.7413L231.209 95.5806L230.936 107.546L230.924 121.111L230.635 145.308L230.555 162.654L230.94 171.39L230.548 179.149L230.183 190.48L230.073 192.715H230.616L230.724 190.529L231.088 179.2L231.48 171.391L231.094 162.628L231.176 145.318ZM237.153 125.3L238.214 108.502L238.037 98.6751L237.806 94.2166L236.626 82.5675L233.954 90.751L233.508 104.574L233.123 114.118L233.366 129.275L232.989 139.662L233.421 150.243L233.69 172.487L232.726 188.048L232.244 192.714H232.793L233.262 188.148L234.226 172.517L233.965 150.21L233.532 139.659L233.91 129.287L233.668 114.132L234.054 104.618L234.47 91.0334L236.356 85.2599L237.273 94.3101L237.5 98.7175L237.679 108.474L236.618 125.228L235.815 140.302L236.821 153.232L236.2 177.705L235.486 187.505L235.064 192.71H235.604L236.018 187.594L236.734 177.762L237.356 153.197L236.349 140.279L237.153 125.3ZM205.63 178.011L206.039 169.234L205.785 159.71L205.058 120.853L204.563 96.9303L203.197 81.8849L200.512 101.44L199.873 119.263L198.935 139.788L198.574 159.965L198.704 169.257L198.333 177.28L198.634 192.713H199.176L198.875 177.297L199.247 169.276L199.116 159.967L199.478 139.826L200.416 119.313L201.049 101.544L203.09 86.6982L204.024 96.9968L204.519 120.875L205.238 159.736L205.491 169.222L205.084 178.003L205.566 192.62L206.107 192.578L205.63 178.011ZM224.671 114.53L224.984 94.4142L224.45 81.6083L223.293 67.0517L221.337 40.4884L221.451 22.2291L221.734 8.49197L221.681 2.90071H221.137L221.19 8.48522L220.908 22.2137L220.796 40.5299L222.754 67.1491L223.911 81.6844L224.443 94.4325L224.13 114.532L224.545 142.816L224.146 155.165L223.14 168.316L221.722 182.432L221.826 192.713H222.366L222.26 182.487L223.679 168.413L224.686 155.225L225.087 142.821L224.671 114.53ZM200.069 30.7452L199.454 2.89974H198.912L199.523 30.7596L199.681 45.9678L199.311 61.7776L197.996 74.1459L197.021 83.9209L197.213 93.8502L196.723 104.662L195.447 124.327L194.911 149.338L195.376 165.931L194.979 177.185L194.81 186.79L195.254 192.711H195.797L195.35 186.756L195.521 177.212L195.923 165.942L195.458 149.34L195.993 124.386L197.267 104.736L197.761 93.8724L197.561 83.9701L198.533 74.2702L199.853 61.8576L200.225 45.9833L200.069 30.7452ZM210.97 183.571L210.034 178.955L210.234 167.854L209.945 158.36L209.094 147.879L208.805 124.484L208.313 111.632L208.635 100.237L208.313 87.9505L205.744 74.2789L204.447 51.4897L203.258 25.257L202.795 2.89974H202.249L202.714 25.2975L203.906 51.5543L205.211 74.4274L207.771 88.0344L208.091 100.237L207.769 111.64L208.262 124.513L208.551 147.932L209.403 158.428L209.692 167.862L209.49 179.067L210.429 183.658L210.689 192.713H211.233L210.97 183.571ZM222.163 111.02L221.91 101.965L222.206 94.5222L221.351 85.5009L220.334 77.1989L219.396 57.0626L218.336 23.3396L218.666 11.3416V2.89974H218.122V11.3242L217.792 23.3416L218.853 57.1099L219.793 77.2991L220.815 85.6311L221.661 94.5559L221.367 101.958L221.618 111.049L222.05 132.561L221.556 145.357L220.323 162.324L218.515 182.761L217.809 187.971L217.55 192.3L218.09 192.374L218.348 188.078L219.053 182.885L220.864 162.416L222.1 145.424L222.597 132.571L222.163 111.02ZM203.432 161.755L203.107 143.125L202.767 125.611L202.226 125.573L200.936 141.523L200.418 152.198L200.402 164.145L200.192 189.879L200.734 189.888L200.945 164.149L200.96 152.226L201.471 141.605L202.327 131.048L202.561 143.146L202.885 161.751L202.635 175.277L202.883 187.181L203.425 187.154L203.177 175.275L203.432 161.755ZM217.427 100.813L216.086 109.056L216.33 120.345L217.058 132.877H217.597L218.663 111.15V111.099L217.427 100.813ZM217.304 127.759L216.871 120.296L216.63 109.14L217.348 104.729L218.119 111.14L217.304 127.759ZM217.427 100.813L216.086 109.056L216.33 120.345L217.058 132.877H217.597L218.663 111.15V111.099L217.427 100.813ZM217.304 127.759L216.871 120.296L216.63 109.14L217.348 104.729L218.119 111.14L217.304 127.759ZM217.427 100.813L216.086 109.056L216.33 120.345L217.058 132.877H217.597L218.663 111.15V111.099L217.427 100.813ZM217.304 127.759L216.871 120.296L216.63 109.14L217.348 104.729L218.119 111.14L217.304 127.759ZM217.427 100.813L216.086 109.056L216.33 120.345L217.058 132.877H217.597L218.663 111.15V111.099L217.427 100.813ZM217.304 127.759L216.871 120.296L216.63 109.14L217.348 104.729L218.119 111.14L217.304 127.759ZM219.964 99.7066L219.231 87.4299L217.05 65.972L215.842 48.8695L214.849 60.0048L214.463 80.6153L214.551 93.1234L213.954 109.736L213.817 123.114L214.118 134.645L214.777 146.701L215.111 156.355L215.584 165.564L217.978 158.562L219.964 138.239L220.619 117.616L219.964 99.7066ZM219.426 138.153L217.481 158.252L215.98 162.629L215.656 156.3L215.32 146.642L214.663 134.592L214.363 123.104L214.492 109.764L215.089 93.1407L215.002 80.6211L215.388 60.0713L215.779 55.6831L216.517 66.08L218.695 87.5321L219.427 99.7693L220.079 117.613L219.426 138.153ZM216.086 109.052L216.33 120.341L217.058 132.873H217.597L218.663 111.15V111.099L217.423 100.816L216.086 109.052ZM217.304 127.754L216.871 120.29L216.63 109.135L217.348 104.723L218.119 111.134L217.304 127.754ZM217.427 100.808L216.086 109.05L216.33 120.339L217.058 132.871H217.597L218.663 111.15V111.099L217.427 100.808ZM217.304 127.754L216.871 120.29L216.63 109.135L217.348 104.723L218.119 111.134L217.304 127.754ZM217.427 100.808L216.086 109.05L216.33 120.339L217.058 132.871H217.597L218.663 111.15V111.099L217.427 100.808ZM217.304 127.754L216.871 120.29L216.63 109.135L217.348 104.723L218.119 111.134L217.304 127.754ZM217.427 100.808L216.086 109.05L216.33 120.339L217.058 132.871H217.597L218.663 111.15V111.099L217.427 100.808ZM217.304 127.754L216.871 120.29L216.63 109.135L217.348 104.723L218.119 111.134L217.304 127.754ZM217.427 100.808L216.086 109.05L216.33 120.339L217.058 132.871H217.597L218.663 111.15V111.099L217.427 100.808ZM217.304 127.754L216.871 120.29L216.63 109.135L217.348 104.723L218.119 111.134L217.304 127.754ZM195.871 37.2108L195.63 21.401L195.202 12.668L195.01 2.89781H194.467L194.665 12.7095L195.094 21.4415L195.334 37.1934L193.901 75.1417L193.597 91.8673L193.76 103.352L192.995 116.381L190.956 92.8698L189.724 65.7204L189.935 39.3171L189.453 2.89974H188.915L189.397 39.321L189.186 65.7455L190.42 92.9518L193.105 123.91L194.298 103.383L194.135 91.8702L194.439 75.1745L195.871 37.2108ZM234.577 16.5626L233.477 5.34158L233.399 2.90263H232.859L232.939 5.4187L234.049 16.7371L237.308 33.2053L237.189 53.4765L235.268 70.3014L233.906 76.2031L232.562 80.8689L230.983 71.3011L230.532 60.2583L231.251 37.2551V26.5411L231.447 16.2917L231.21 8.31845V2.89974H230.668V8.33291L230.906 16.2946L230.706 26.5266V37.2329L229.988 60.2612L230.447 71.4216L232.423 83.4013L234.415 76.4961L235.797 70.5009L237.725 53.5459L237.85 33.1494V33.0867L234.577 16.5626ZM212.371 2.89974H211.83L212.493 13.9357L211.843 34.2223L211.504 43.4768L210.627 51.6314L208.923 68.5739L206.973 59.6259L206.5 48.2284L205.855 36.9293L205.895 23.7223L205.378 11.2259L205.688 3.82423L205.624 2.89781H205.083L205.148 3.84158L204.838 11.2259L205.353 23.7455L205.315 36.9621L205.96 48.2853L206.435 59.7262L209.108 72.0945L211.155 51.7538L212.034 43.5597L212.379 34.2638L213.025 13.9145L212.371 2.89974ZM235.612 44.4486L234.281 27.7635L232.794 37.8007L232.297 57.6796L233.137 66.1629L235.162 56.7734L235.812 52.0777L235.612 44.4486ZM234.64 56.5623L233.335 62.6124L232.838 57.6333L233.331 37.9376L234.121 32.598L235.07 44.5112L235.27 52.0074L234.64 56.5623ZM192.654 9.73648L192.709 2.90167H192.167L192.112 9.74612L192.906 51.4878L192.785 56.6018L192.406 53.8245L191.86 36.8146L191.127 21.2853L190.548 5.66838L190.621 2.90167H190.079L190.006 5.67416L190.585 21.3355L191.316 36.856L191.867 53.919L193.162 63.4502L193.446 51.4839L192.654 9.73648ZM247.301 2.90167H246.756L247.197 6.85411L246.883 20.6452L246.305 31.7227L244.527 16.2985L243.852 2.89878H243.316L243.999 16.3949L246.517 38.2779L247.429 20.6973L247.735 6.80013L247.301 2.90167ZM209.506 2.90167H208.965L209.263 23.0042L208.684 32.5681L207.72 29.7725L207.373 16.3284L207.026 5.53149L207.149 2.89974H206.608L206.491 5.52378L206.836 16.365L207.186 29.8959L209.055 35.4177L209.809 23.0311L209.506 2.90167Z" fill="white"/>
</g>
<g opacity="0.53">
<path opacity="0.53" d="M246.057 99.5736V114.86H251.206L251.85 99.5736H246.057Z" fill="#7DACCC"/>
<g style="mix-blend-mode:overlay" opacity="0.6">
<g style="mix-blend-mode:overlay" opacity="0.6">
<path d="M246.594 100.002H251.26L250.804 114.538L250.187 100.941L246.594 100.807V100.002Z" fill="#ECE0A0"/>
</g>
</g>
<g style="mix-blend-mode:multiply" opacity="0.2">
<g style="mix-blend-mode:multiply" opacity="0.2">
<path d="M246.835 101.693V114.162H250.187L248.793 113.867L248.511 101.693H246.835Z" fill="#114973"/>
</g>
</g>
<path opacity="0.53" d="M239.958 108.291C242.565 107.539 245.731 106.985 249.156 106.522C251.117 106.315 250.952 109.117 249.011 109.117C245.725 109.016 242.81 108.981 240.311 109.117C239.685 109.141 239.252 108.493 239.958 108.291Z" fill="#A1C6E5"/>
<g style="mix-blend-mode:overlay" opacity="0.6">
<g style="mix-blend-mode:overlay" opacity="0.6">
<path d="M240.424 108.423C240.424 108.423 248.872 106.667 249.382 106.801C249.892 106.935 250.24 107.379 250.186 107.814C250.132 108.249 240.505 108.665 240.505 108.665L240.424 108.423Z" fill="#ECE0A0"/>
</g>
</g>
</g>
</g>
<g opacity="0.53">
<path opacity="0.53" d="M3.71818 71.465H25.5964V75.3856H3.71818C3.66552 75.3856 3.615 75.3647 3.57776 75.3275C3.54051 75.2902 3.51959 75.2396 3.51959 75.187V71.6645C3.51947 71.6384 3.52451 71.6125 3.53444 71.5883C3.54436 71.5641 3.55896 71.542 3.57742 71.5235C3.59587 71.505 3.61781 71.4902 3.64197 71.4802C3.66612 71.4702 3.69203 71.465 3.71818 71.465Z" fill="#DAEBFF"/>
<path opacity="0.53" d="M25.5838 71.9199H3.6748C3.58908 71.9199 3.51959 71.9894 3.51959 72.0751V74.7744C3.51959 74.8601 3.58908 74.9296 3.6748 74.9296H25.5838C25.6696 74.9296 25.7391 74.8601 25.7391 74.7744V72.0751C25.7391 71.9894 25.6696 71.9199 25.5838 71.9199Z" fill="#DAEBFF"/>
<path opacity="0.53" d="M18.7182 71.465H3.66709C3.58563 71.465 3.51959 71.531 3.51959 71.6125V75.2371C3.51959 75.3186 3.58563 75.3846 3.66709 75.3846H18.7182C18.7996 75.3846 18.8657 75.3186 18.8657 75.2371V71.6125C18.8657 71.531 18.7996 71.465 18.7182 71.465Z" fill="#DAEBFF"/>
<path opacity="0.53" d="M4.92512 67.5453H26.7995V71.465H4.92512C4.87245 71.465 4.82194 71.444 4.7847 71.4068C4.74745 71.3695 4.72653 71.319 4.72653 71.2664V67.7439C4.72653 67.6912 4.74745 67.6407 4.7847 67.6034C4.82194 67.5662 4.87245 67.5453 4.92512 67.5453Z" fill="#DAEBFF"/>
<path opacity="0.53" d="M26.7908 68.0002H4.88174C4.79602 68.0002 4.72653 68.0697 4.72653 68.1554V70.8547C4.72653 70.9404 4.79602 71.0099 4.88174 71.0099H26.7908C26.8765 71.0099 26.946 70.9404 26.946 70.8547V68.1554C26.946 68.0697 26.8765 68.0002 26.7908 68.0002Z" fill="#DAEBFF"/>
<path opacity="0.53" d="M19.9251 67.5453H4.87403C4.79257 67.5453 4.72653 67.6113 4.72653 67.6928V71.3175C4.72653 71.3989 4.79257 71.465 4.87403 71.465H19.9251C20.0066 71.465 20.0726 71.3989 20.0726 71.3175V67.6928C20.0726 67.6113 20.0066 67.5453 19.9251 67.5453Z" fill="#DAEBFF"/>
<path opacity="0.53" d="M4.01121 63.6246H25.8894V67.5443H4.01121C3.95855 67.5443 3.90803 67.5234 3.87079 67.4862C3.83355 67.4489 3.81262 67.3983 3.81262 67.3457V63.8242C3.8125 63.7981 3.81754 63.7721 3.82746 63.7479C3.83739 63.7237 3.85199 63.7017 3.87046 63.6831C3.88891 63.6646 3.91084 63.6499 3.935 63.6399C3.95914 63.6298 3.98505 63.6246 4.01121 63.6246Z" fill="#DAEBFF"/>
<path opacity="0.53" d="M25.8769 64.0807H3.96786C3.88214 64.0807 3.81265 64.1502 3.81265 64.2359V66.9351C3.81265 67.0208 3.88214 67.0903 3.96786 67.0903H25.8769C25.9626 67.0903 26.0321 67.0208 26.0321 66.9351V64.2359C26.0321 64.1502 25.9626 64.0807 25.8769 64.0807Z" fill="#DAEBFF"/>
<path opacity="0.53" d="M19.0112 63.6256H3.96015C3.87869 63.6256 3.81265 63.6916 3.81265 63.7731V67.3978C3.81265 67.4792 3.87869 67.5453 3.96015 67.5453H19.0112C19.0927 67.5453 19.1587 67.4792 19.1587 67.3978V63.7731C19.1587 63.6916 19.0927 63.6256 19.0112 63.6256Z" fill="#DAEBFF"/>
<g opacity="0.51">
<path opacity="0.51" d="M7.955 59.705H29.8332V63.6246H7.955C7.90233 63.6246 7.85182 63.6037 7.81458 63.5664C7.77734 63.5292 7.75641 63.4787 7.75641 63.426V59.9045C7.75629 59.8783 7.76133 59.8523 7.77125 59.8282C7.78118 59.804 7.79578 59.782 7.81423 59.7635C7.83269 59.7449 7.85462 59.7302 7.87878 59.7202C7.90294 59.7101 7.92884 59.705 7.955 59.705Z" fill="#DAEBFF"/>
<path opacity="0.51" d="M29.8197 60.1609H7.91065C7.82493 60.1609 7.75543 60.2304 7.75543 60.3161V63.0154C7.75543 63.1011 7.82493 63.1706 7.91065 63.1706H29.8197C29.9054 63.1706 29.9749 63.1011 29.9749 63.0154V60.3161C29.9749 60.2304 29.9054 60.1609 29.8197 60.1609Z" fill="#DAEBFF"/>
<path opacity="0.51" d="M22.954 59.705H7.90293C7.82147 59.705 7.75543 59.771 7.75543 59.8524V63.4771C7.75543 63.5586 7.82147 63.6246 7.90293 63.6246H22.954C23.0355 63.6246 23.1015 63.5586 23.1015 63.4771V59.8524C23.1015 59.771 23.0355 59.705 22.954 59.705Z" fill="#DAEBFF"/>
</g>
<path opacity="0.53" d="M44.2384 101.669H66.1166V105.589H44.2384C44.1858 105.589 44.1353 105.568 44.098 105.531C44.0608 105.494 44.0399 105.443 44.0399 105.39V101.868C44.0399 101.815 44.0608 101.765 44.098 101.727C44.1353 101.691 44.1858 101.669 44.2384 101.669Z" fill="#DAEBFF"/>
<path opacity="0.53" d="M66.1042 102.124H44.1951C44.1094 102.124 44.0399 102.194 44.0399 102.28V104.979C44.0399 105.065 44.1094 105.134 44.1951 105.134H66.1042C66.1899 105.134 66.2594 105.065 66.2594 104.979V102.28C66.2594 102.194 66.1899 102.124 66.1042 102.124Z" fill="#DAEBFF"/>
<path opacity="0.53" d="M59.2384 101.669H44.1873C44.1059 101.669 44.0399 101.735 44.0399 101.817V105.441C44.0399 105.522 44.1059 105.589 44.1873 105.589H59.2384C59.3199 105.589 59.3859 105.522 59.3859 105.441V101.817C59.3859 101.735 59.3199 101.669 59.2384 101.669Z" fill="#DAEBFF"/>
<path opacity="0.53" d="M24.4242 162.877H46.3024V166.797H24.4242C24.3715 166.797 24.321 166.776 24.2837 166.739C24.2465 166.701 24.2256 166.651 24.2256 166.598V163.076C24.2256 163.023 24.2465 162.973 24.2837 162.935C24.321 162.898 24.3715 162.877 24.4242 162.877Z" fill="#DAEBFF"/>
<path opacity="0.53" d="M46.2898 163.332H24.3808C24.2951 163.332 24.2256 163.402 24.2256 163.487V166.187C24.2256 166.273 24.2951 166.342 24.3808 166.342H46.2898C46.3755 166.342 46.445 166.273 46.445 166.187V163.487C46.445 163.402 46.3755 163.332 46.2898 163.332Z" fill="#DAEBFF"/>
<path opacity="0.53" d="M39.4242 162.877H24.3731C24.2916 162.877 24.2256 162.944 24.2256 163.025V166.649C24.2256 166.731 24.2916 166.797 24.3731 166.797H39.4242C39.5056 166.797 39.5717 166.731 39.5717 166.649V163.025C39.5717 162.944 39.5056 162.877 39.4242 162.877Z" fill="#DAEBFF"/>
<path opacity="0.53" d="M20.8447 159.053H42.7229V162.973H20.8447C20.7921 162.973 20.7416 162.951 20.7043 162.915C20.6671 162.877 20.6461 162.827 20.6461 162.774V159.254C20.6458 159.228 20.6506 159.202 20.6604 159.177C20.6702 159.153 20.6848 159.131 20.7033 159.112C20.7217 159.093 20.7438 159.079 20.7681 159.068C20.7924 159.058 20.8184 159.053 20.8447 159.053Z" fill="#DAEBFF"/>
<path opacity="0.53" d="M42.7095 159.508H20.8004C20.7147 159.508 20.6452 159.577 20.6452 159.663V162.362C20.6452 162.448 20.7147 162.518 20.8004 162.518H42.7095C42.7952 162.518 42.8647 162.448 42.8647 162.362V159.663C42.8647 159.577 42.7952 159.508 42.7095 159.508Z" fill="#DAEBFF"/>
<path opacity="0.53" d="M35.8438 159.053H20.7927C20.7112 159.053 20.6452 159.119 20.6452 159.2V162.825C20.6452 162.907 20.7112 162.973 20.7927 162.973H35.8438C35.9252 162.973 35.9913 162.907 35.9913 162.825V159.2C35.9913 159.119 35.9252 159.053 35.8438 159.053Z" fill="#DAEBFF"/>
<path opacity="0.53" d="M19.1838 155.2H41.062V159.12H19.1838C19.1311 159.12 19.0806 159.098 19.0433 159.062C19.0061 159.024 18.9852 158.974 18.9852 158.921V155.398C18.9852 155.345 19.0061 155.295 19.0433 155.258C19.0806 155.221 19.1311 155.2 19.1838 155.2Z" fill="#DAEBFF"/>
<path opacity="0.53" d="M41.0495 155.655H19.1404C19.0547 155.655 18.9852 155.724 18.9852 155.81V158.509C18.9852 158.595 19.0547 158.665 19.1404 158.665H41.0495C41.1352 158.665 41.2047 158.595 41.2047 158.509V155.81C41.2047 155.724 41.1352 155.655 41.0495 155.655Z" fill="#DAEBFF"/>
<path opacity="0.53" d="M34.1838 155.2H19.1327C19.0512 155.2 18.9852 155.265 18.9852 155.347V158.972C18.9852 159.053 19.0512 159.12 19.1327 159.12H34.1838C34.2652 159.12 34.3313 159.053 34.3313 158.972V155.347C34.3313 155.265 34.2652 155.2 34.1838 155.2Z" fill="#DAEBFF"/>
<g opacity="0.51">
<path opacity="0.51" d="M23.7195 151.279H45.5977V155.199H23.7195C23.6668 155.199 23.6163 155.178 23.579 155.141C23.5418 155.104 23.5209 155.053 23.5209 155V151.478C23.5209 151.425 23.5418 151.375 23.579 151.337C23.6163 151.3 23.6668 151.279 23.7195 151.279Z" fill="#DAEBFF"/>
<path opacity="0.51" d="M45.5852 151.734H23.6761C23.5904 151.734 23.5209 151.804 23.5209 151.889V154.589C23.5209 154.674 23.5904 154.744 23.6761 154.744H45.5852C45.6709 154.744 45.7404 154.674 45.7404 154.589V151.889C45.7404 151.804 45.6709 151.734 45.5852 151.734Z" fill="#DAEBFF"/>
<path opacity="0.51" d="M38.7194 151.279H23.6684C23.5869 151.279 23.5209 151.345 23.5209 151.427V155.051C23.5209 155.132 23.5869 155.199 23.6684 155.199H38.7194C38.8009 155.199 38.8669 155.132 38.8669 155.051V151.427C38.8669 151.345 38.8009 151.279 38.7194 151.279Z" fill="#DAEBFF"/>
</g>
<path opacity="0.53" d="M45.4444 97.7506H67.3226V101.67H45.4444C45.3918 101.67 45.3413 101.649 45.3039 101.612C45.2667 101.575 45.2458 101.525 45.2458 101.472V97.9434C45.2474 97.8914 45.2689 97.8432 45.306 97.8065C45.3431 97.7709 45.3927 97.7506 45.4444 97.7506Z" fill="#DAEBFF"/>
<path opacity="0.53" d="M67.3101 98.2047H45.401C45.3153 98.2047 45.2458 98.2741 45.2458 98.3599V101.059C45.2458 101.145 45.3153 101.214 45.401 101.214H67.3101C67.3958 101.214 67.4654 101.145 67.4654 101.059V98.3599C67.4654 98.2741 67.3958 98.2047 67.3101 98.2047Z" fill="#DAEBFF"/>
<path opacity="0.53" d="M60.4444 97.7487H45.3933C45.3119 97.7487 45.2458 97.8152 45.2458 97.8962V101.521C45.2458 101.602 45.3119 101.668 45.3933 101.668H60.4444C60.5259 101.668 60.5919 101.602 60.5919 101.521V97.8962C60.5919 97.8152 60.5259 97.7487 60.4444 97.7487Z" fill="#DAEBFF"/>
<g opacity="0.54">
<path opacity="0.54" d="M44.5315 93.8291H66.4097V97.7507H44.5315C44.4789 97.7507 44.4284 97.7295 44.3911 97.6928C44.3538 97.6553 44.3329 97.6051 44.3329 97.5521V94.0296C44.3326 94.0034 44.3377 93.9774 44.3475 93.953C44.3573 93.9287 44.372 93.9066 44.3904 93.8879C44.4089 93.8693 44.4309 93.8545 44.4551 93.8444C44.4793 93.8343 44.5053 93.8291 44.5315 93.8291Z" fill="#DAEBFF"/>
<path opacity="0.54" d="M66.3972 94.2841H44.4881C44.4024 94.2841 44.3329 94.3536 44.3329 94.4393V97.1385C44.3329 97.2243 44.4024 97.2937 44.4881 97.2937H66.3972C66.4829 97.2937 66.5524 97.2243 66.5524 97.1385V94.4393C66.5524 94.3536 66.4829 94.2841 66.3972 94.2841Z" fill="#DAEBFF"/>
<path opacity="0.54" d="M59.5316 93.8291H44.4805C44.3991 93.8291 44.333 93.8951 44.333 93.9766V97.6013C44.333 97.6822 44.3991 97.7487 44.4805 97.7487H59.5316C59.6131 97.7487 59.6791 97.6822 59.6791 97.6013V93.9766C59.6791 93.8951 59.6131 93.8291 59.5316 93.8291Z" fill="#DAEBFF"/>
</g>
<path opacity="0.53" d="M13.3139 132.744H35.1921V136.664H13.3139C13.2613 136.664 13.2108 136.643 13.1735 136.606C13.1363 136.568 13.1154 136.518 13.1154 136.465V132.943C13.1154 132.89 13.1363 132.84 13.1735 132.802C13.2108 132.765 13.2613 132.744 13.3139 132.744Z" fill="#DAEBFF"/>
<path opacity="0.53" d="M35.1796 133.199H13.2706C13.1849 133.199 13.1154 133.269 13.1154 133.354V136.054C13.1154 136.139 13.1849 136.209 13.2706 136.209H35.1796C35.2653 136.209 35.3348 136.139 35.3348 136.054V133.354C35.3348 133.269 35.2653 133.199 35.1796 133.199Z" fill="#DAEBFF"/>
<path opacity="0.53" d="M28.314 132.744H13.2629C13.1814 132.744 13.1154 132.811 13.1154 132.892V136.516C13.1154 136.598 13.1814 136.664 13.2629 136.664H28.314C28.3954 136.664 28.4614 136.598 28.4614 136.516V132.892C28.4614 132.811 28.3954 132.744 28.314 132.744Z" fill="#DAEBFF"/>
<path opacity="0.53" d="M14.5209 128.824H36.3991V132.744H14.5209C14.4682 132.744 14.4177 132.723 14.3804 132.686C14.3432 132.649 14.3223 132.599 14.3223 132.546V129.023C14.3223 128.997 14.3274 128.971 14.3374 128.947C14.3474 128.923 14.362 128.901 14.3804 128.882C14.3989 128.864 14.4208 128.85 14.4449 128.84C14.469 128.829 14.4948 128.824 14.5209 128.824Z" fill="#DAEBFF"/>
<path opacity="0.53" d="M36.3866 129.28H14.4775C14.3918 129.28 14.3223 129.349 14.3223 129.435V132.134C14.3223 132.22 14.3918 132.289 14.4775 132.289H36.3866C36.4723 132.289 36.5418 132.22 36.5418 132.134V129.435C36.5418 129.349 36.4723 129.28 36.3866 129.28Z" fill="#DAEBFF"/>
<path opacity="0.53" d="M29.5209 128.824H14.4698C14.3883 128.824 14.3223 128.89 14.3223 128.972V132.597C14.3223 132.678 14.3883 132.744 14.4698 132.744H29.5209C29.6023 132.744 29.6684 132.678 29.6684 132.597V128.972C29.6684 128.89 29.6023 128.824 29.5209 128.824Z" fill="#DAEBFF"/>
<g opacity="0.51">
<path opacity="0.51" d="M9.87724 124.905H31.7554V128.824H9.87724C9.8246 128.824 9.77409 128.803 9.73678 128.767C9.69957 128.729 9.67865 128.679 9.67865 128.626V125.103C9.67865 125.05 9.69957 125 9.73678 124.963C9.77409 124.926 9.8246 124.905 9.87724 124.905Z" fill="#DAEBFF"/>
<path opacity="0.51" d="M31.7429 125.36H9.83386C9.74816 125.36 9.67865 125.429 9.67865 125.515V128.214C9.67865 128.3 9.74816 128.37 9.83386 128.37H31.7429C31.8286 128.37 31.8981 128.3 31.8981 128.214V125.515C31.8981 125.429 31.8286 125.36 31.7429 125.36Z" fill="#DAEBFF"/>
<path opacity="0.51" d="M24.8772 124.905H9.82614C9.74468 124.905 9.67865 124.97 9.67865 125.052V128.677C9.67865 128.758 9.74468 128.824 9.82614 128.824H24.8772C24.9587 128.824 25.0247 128.758 25.0247 128.677V125.052C25.0247 124.97 24.9587 124.905 24.8772 124.905Z" fill="#DAEBFF"/>
</g>
<g opacity="0.54">
<path opacity="0.54" d="M18.9216 97.7506H40.7998V101.67H18.9216C18.869 101.67 18.8185 101.649 18.7812 101.612C18.7439 101.575 18.723 101.525 18.723 101.472V97.9434C18.7246 97.8914 18.7461 97.8432 18.7832 97.8065C18.8203 97.7709 18.8699 97.7506 18.9216 97.7506Z" fill="#DAEBFF"/>
<path opacity="0.54" d="M40.7873 98.2046H18.8782C18.7925 98.2046 18.723 98.274 18.723 98.3598V101.059C18.723 101.145 18.7925 101.214 18.8782 101.214H40.7873C40.873 101.214 40.9425 101.145 40.9425 101.059V98.3598C40.9425 98.274 40.873 98.2046 40.7873 98.2046Z" fill="#DAEBFF"/>
<path opacity="0.54" d="M33.9216 97.7487H18.8705C18.7891 97.7487 18.723 97.8152 18.723 97.8962V101.521C18.723 101.602 18.7891 101.668 18.8705 101.668H33.9216C34.0031 101.668 34.0691 101.602 34.0691 101.521V97.8962C34.0691 97.8152 34.0031 97.7487 33.9216 97.7487Z" fill="#DAEBFF"/>
</g>
<path opacity="0.53" d="M17.3522 101.669H39.2352V105.589H17.3522C17.2995 105.589 17.249 105.568 17.2117 105.531C17.1745 105.494 17.1536 105.443 17.1536 105.39V101.868C17.1536 101.815 17.1745 101.765 17.2117 101.727C17.249 101.691 17.2995 101.669 17.3522 101.669Z" fill="#DAEBFF"/>
<path opacity="0.53" d="M39.2197 102.124H17.3107C17.225 102.124 17.1555 102.194 17.1555 102.28V104.979C17.1555 105.065 17.225 105.134 17.3107 105.134H39.2197C39.3054 105.134 39.3749 105.065 39.3749 104.979V102.28C39.3749 102.194 39.3054 102.124 39.2197 102.124Z" fill="#DAEBFF"/>
<path opacity="0.53" d="M32.3541 101.669H17.303C17.2215 101.669 17.1555 101.735 17.1555 101.817V105.441C17.1555 105.522 17.2215 105.589 17.303 105.589H32.3541C32.4355 105.589 32.5016 105.522 32.5016 105.441V101.817C32.5016 101.735 32.4355 101.669 32.3541 101.669Z" fill="#DAEBFF"/>
<path opacity="0.53" d="M39.6363 129.379H58.2889V132.726H39.6363C39.5836 132.726 39.5331 132.705 39.4958 132.668C39.4586 132.63 39.4377 132.58 39.4377 132.527V129.577C39.4377 129.551 39.4428 129.525 39.4528 129.501C39.4627 129.477 39.4774 129.455 39.4958 129.437C39.5143 129.418 39.5362 129.404 39.5603 129.394C39.5844 129.384 39.6102 129.379 39.6363 129.379Z" fill="#DAEBFF"/>
<path opacity="0.53" d="M58.2552 129.767H39.5929C39.5072 129.767 39.4377 129.837 39.4377 129.923V132.182C39.4377 132.268 39.5072 132.337 39.5929 132.337H58.2552C58.3409 132.337 58.4104 132.268 58.4104 132.182V129.923C58.4104 129.837 58.3409 129.767 58.2552 129.767Z" fill="#DAEBFF"/>
<path opacity="0.53" d="M52.394 129.379H39.5852C39.5037 129.379 39.4377 129.444 39.4377 129.526V132.578C39.4377 132.659 39.5037 132.726 39.5852 132.726H52.394C52.4754 132.726 52.5415 132.659 52.5415 132.578V129.526C52.5415 129.444 52.4754 129.379 52.394 129.379Z" fill="#DAEBFF"/>
<path opacity="0.53" d="M38.2972 132.726H56.9499V136.073H38.2972C38.2446 136.073 38.1941 136.052 38.1568 136.015C38.1196 135.977 38.0987 135.927 38.0987 135.874V132.924C38.0987 132.871 38.1196 132.821 38.1568 132.784C38.1941 132.747 38.2446 132.726 38.2972 132.726Z" fill="#DAEBFF"/>
<path opacity="0.53" d="M56.9161 133.114H38.2539C38.1682 133.114 38.0987 133.184 38.0987 133.27V135.529C38.0987 135.615 38.1682 135.684 38.2539 135.684H56.9161C57.0018 135.684 57.0713 135.615 57.0713 135.529V133.27C57.0713 133.184 57.0018 133.114 56.9161 133.114Z" fill="#DAEBFF"/>
<path opacity="0.53" d="M51.055 132.726H38.2462C38.1647 132.726 38.0987 132.791 38.0987 132.873V135.925C38.0987 136.006 38.1647 136.073 38.2462 136.073H51.055C51.1365 136.073 51.2025 136.006 51.2025 135.925V132.873C51.2025 132.791 51.1365 132.726 51.055 132.726Z" fill="#DAEBFF"/>
<path opacity="0.53" d="M71.3338 75.0887V51.2516C71.3338 51.2206 71.3087 51.1957 71.2779 51.1957H67.47C67.4392 51.1957 67.4141 51.2206 67.4141 51.2516V75.0887C67.4141 75.1195 67.4392 75.1446 67.47 75.1446H71.2779C71.3087 75.1446 71.3338 75.1195 71.3338 75.0887Z" fill="#DAEBFF"/>
<path opacity="0.53" d="M70.3343 64.4807V52.8673C70.3343 52.8364 70.3092 52.8114 70.2784 52.8114H68.4708C68.44 52.8114 68.4149 52.8364 68.4149 52.8673V64.4807C68.4149 64.5116 68.44 64.5366 68.4708 64.5366H70.2784C70.3092 64.5366 70.3343 64.5116 70.3343 64.4807Z" fill="#DAEBFF"/>
<path opacity="0.53" d="M66.9785 75.0887V51.2516C66.9785 51.2206 66.9534 51.1957 66.9226 51.1957H63.1147C63.0839 51.1957 63.0588 51.2206 63.0588 51.2516V75.0887C63.0588 75.1195 63.0839 75.1446 63.1147 75.1446H66.9226C66.9534 75.1446 66.9785 75.1195 66.9785 75.0887Z" fill="#DAEBFF"/>
<path opacity="0.53" d="M65.9788 64.4807V52.8673C65.9788 52.8365 65.9537 52.8114 65.9229 52.8114H64.1154C64.0845 52.8114 64.0594 52.8365 64.0594 52.8673V64.4807C64.0594 64.5116 64.0845 64.5366 64.1154 64.5366H65.9229C65.9537 64.5366 65.9788 64.5116 65.9788 64.4807Z" fill="#DAEBFF"/>
<g opacity="0.51">
<path opacity="0.51" d="M62.6231 75.0887V51.2516C62.6231 51.2206 62.5981 51.1957 62.5672 51.1957H58.7594C58.7285 51.1957 58.7035 51.2206 58.7035 51.2516V75.0887C58.7035 75.1195 58.7285 75.1446 58.7594 75.1446H62.5672C62.5981 75.1446 62.6231 75.1195 62.6231 75.0887Z" fill="#DAEBFF"/>
<path opacity="0.51" d="M61.6234 64.4807V52.8673C61.6234 52.8364 61.5984 52.8114 61.5675 52.8114H59.76C59.7292 52.8114 59.7041 52.8364 59.7041 52.8673V64.4807C59.7041 64.5116 59.7292 64.5366 59.76 64.5366H61.5675C61.5984 64.5366 61.6234 64.5116 61.6234 64.4807Z" fill="#DAEBFF"/>
</g>
<path opacity="0.53" d="M58.2677 57.6748V75.0897C58.2677 75.1045 58.2618 75.1187 58.2513 75.1292C58.2408 75.1397 58.2266 75.1456 58.2117 75.1456H55.4547C55.4401 75.1456 55.4261 75.1398 55.4158 75.1295C55.4055 75.1192 55.3997 75.1052 55.3997 75.0906V57.6748C55.3997 57.66 55.4056 57.6457 55.4161 57.6353C55.4266 57.6248 55.4408 57.6189 55.4556 57.6189H58.2117C58.2266 57.6189 58.2408 57.6248 58.2513 57.6353C58.2618 57.6457 58.2677 57.66 58.2677 57.6748Z" fill="#DAEBFF"/>
<path opacity="0.53" d="M57.535 67.3265V58.8577C57.535 58.8267 57.51 58.8018 57.4791 58.8018H56.1864C56.1555 58.8018 56.1305 58.8267 56.1305 58.8577V67.3265C56.1305 67.3574 56.1555 67.3824 56.1864 67.3824H57.4791C57.51 67.3824 57.535 67.3574 57.535 67.3265Z" fill="#DAEBFF"/>
<path opacity="0.53" d="M71.0774 166.741V142.904C71.0774 142.873 71.0524 142.848 71.0215 142.848H67.2137C67.1828 142.848 67.1578 142.873 67.1578 142.904V166.741C67.1578 166.772 67.1828 166.797 67.2137 166.797H71.0215C71.0524 166.797 71.0774 166.772 71.0774 166.741Z" fill="#DAEBFF"/>
<path opacity="0.53" d="M70.0768 156.133V144.52C70.0768 144.489 70.0517 144.464 70.0209 144.464H68.2134C68.1825 144.464 68.1575 144.489 68.1575 144.52V156.133C68.1575 156.164 68.1825 156.189 68.2134 156.189H70.0209C70.0517 156.189 70.0768 156.164 70.0768 156.133Z" fill="#DAEBFF"/>
<path opacity="0.53" d="M66.722 166.741V149.327C66.722 149.296 66.697 149.271 66.6661 149.271H63.9091C63.8782 149.271 63.8531 149.296 63.8531 149.327V166.741C63.8531 166.772 63.8782 166.797 63.9091 166.797H66.6661C66.697 166.797 66.722 166.772 66.722 166.741Z" fill="#DAEBFF"/>
<path opacity="0.53" d="M65.9903 158.979V150.51C65.9903 150.479 65.9653 150.454 65.9344 150.454H64.6417C64.6109 150.454 64.5858 150.479 64.5858 150.51V158.979C64.5858 159.01 64.6109 159.035 64.6417 159.035H65.9344C65.9653 159.035 65.9903 159.01 65.9903 158.979Z" fill="#DAEBFF"/>
<path opacity="0.53" d="M63.3152 166.742V142.905C63.3152 142.874 63.2902 142.849 63.2593 142.849H59.4515C59.4206 142.849 59.3956 142.874 59.3956 142.905V166.742C59.3956 166.773 59.4206 166.798 59.4515 166.798H63.2593C63.2902 166.798 63.3152 166.773 63.3152 166.742Z" fill="#DAEBFF"/>
<path opacity="0.53" d="M62.3146 156.133V144.52C62.3146 144.489 62.2895 144.464 62.2587 144.464H60.4511C60.4203 144.464 60.3952 144.489 60.3952 144.52V156.133C60.3952 156.164 60.4203 156.189 60.4511 156.189H62.2587C62.2895 156.189 62.3146 156.164 62.3146 156.133Z" fill="#DAEBFF"/>
<path opacity="0.53" d="M58.9598 166.742V149.328C58.9598 149.297 58.9348 149.272 58.9039 149.272H56.1469C56.116 149.272 56.0909 149.297 56.0909 149.328V166.742C56.0909 166.773 56.116 166.798 56.1469 166.798H58.9039C58.9348 166.798 58.9598 166.773 58.9598 166.742Z" fill="#DAEBFF"/>
<path opacity="0.53" d="M58.2282 158.979V150.51C58.2282 150.479 58.2031 150.454 58.1723 150.454H56.8796C56.8487 150.454 56.8236 150.479 56.8236 150.51V158.979C56.8236 159.01 56.8487 159.035 56.8796 159.035H58.1723C58.2031 159.035 58.2282 159.01 58.2282 158.979Z" fill="#DAEBFF"/>
<path opacity="0.53" d="M55.553 166.742V142.905C55.553 142.874 55.5279 142.849 55.4971 142.849H51.6892C51.6584 142.849 51.6333 142.874 51.6333 142.905V166.742C51.6333 166.773 51.6584 166.798 51.6892 166.798H55.4971C55.5279 166.798 55.553 166.773 55.553 166.742Z" fill="#DAEBFF"/>
<path opacity="0.53" d="M54.5524 156.133V144.52C54.5524 144.489 54.5273 144.464 54.4965 144.464H52.6889C52.6581 144.464 52.633 144.489 52.633 144.52V156.133C52.633 156.164 52.6581 156.189 52.6889 156.189H54.4965C54.5273 156.189 54.5524 156.164 54.5524 156.133Z" fill="#DAEBFF"/>
<path opacity="0.53" d="M51.1977 166.742V149.328C51.1977 149.297 51.1726 149.272 51.1418 149.272H48.3847C48.3538 149.272 48.3288 149.297 48.3288 149.328V166.742C48.3288 166.773 48.3538 166.798 48.3847 166.798H51.1418C51.1726 166.798 51.1977 166.773 51.1977 166.742Z" fill="#DAEBFF"/>
<path opacity="0.53" d="M50.4659 158.979V150.51C50.4659 150.479 50.4409 150.454 50.41 150.454H49.1173C49.0864 150.454 49.0614 150.479 49.0614 150.51V158.979C49.0614 159.01 49.0864 159.035 49.1173 159.035H50.41C50.4409 159.035 50.4659 159.01 50.4659 158.979Z" fill="#DAEBFF"/>
<g opacity="0.51">
<path opacity="0.51" d="M11.4862 166.741V142.904C11.4862 142.873 11.4611 142.848 11.4302 142.848H7.6224C7.59152 142.848 7.5665 142.873 7.5665 142.904V166.741C7.5665 166.772 7.59152 166.797 7.6224 166.797H11.4302C11.4611 166.797 11.4862 166.772 11.4862 166.741Z" fill="#DAEBFF"/>
<path opacity="0.51" d="M10.4865 156.134V144.521C10.4865 144.49 10.4614 144.465 10.4306 144.465H8.62305C8.59216 144.465 8.56714 144.49 8.56714 144.521V156.134C8.56714 156.165 8.59216 156.19 8.62305 156.19H10.4306C10.4614 156.19 10.4865 156.165 10.4865 156.134Z" fill="#DAEBFF"/>
<path opacity="0.51" d="M7.13077 166.741V149.327C7.13077 149.296 7.10573 149.271 7.07485 149.271H4.31778C4.28691 149.271 4.26187 149.296 4.26187 149.327V166.741C4.26187 166.772 4.28691 166.797 4.31778 166.797H7.07485C7.10573 166.797 7.13077 166.772 7.13077 166.741Z" fill="#DAEBFF"/>
<path opacity="0.51" d="M6.40005 158.979V150.51C6.40005 150.479 6.37501 150.454 6.34413 150.454H5.0514C5.02051 150.454 4.99548 150.479 4.99548 150.51V158.979C4.99548 159.01 5.02051 159.035 5.0514 159.035H6.34413C6.37501 159.035 6.40005 159.01 6.40005 158.979Z" fill="#DAEBFF"/>
</g>
<path opacity="0.53" d="M55.0807 75.0887V57.6748C55.0807 57.6439 55.0556 57.6189 55.0247 57.6189H52.2677C52.2368 57.6189 52.2118 57.6439 52.2118 57.6748V75.0887C52.2118 75.1195 52.2368 75.1446 52.2677 75.1446H55.0247C55.0556 75.1446 55.0807 75.1195 55.0807 75.0887Z" fill="#DAEBFF"/>
<path opacity="0.53" d="M54.348 67.3255V58.8567C54.348 58.8258 54.3229 58.8008 54.2921 58.8008H52.9993C52.9685 58.8008 52.9434 58.8258 52.9434 58.8567V67.3255C52.9434 67.3564 52.9685 67.3814 52.9993 67.3814H54.2921C54.3229 67.3814 54.348 67.3564 54.348 67.3255Z" fill="#DAEBFF"/>
<path opacity="0.53" d="M71.3338 136.153V112.316C71.3338 112.285 71.3087 112.26 71.2779 112.26H67.47C67.4392 112.26 67.4141 112.285 67.4141 112.316V136.153C67.4141 136.184 67.4392 136.209 67.47 136.209H71.2779C71.3087 136.209 71.3338 136.184 71.3338 136.153Z" fill="#DAEBFF"/>
<path opacity="0.53" d="M70.3333 125.545V113.932C70.3333 113.901 70.3082 113.876 70.2774 113.876H68.4699C68.439 113.876 68.4139 113.901 68.4139 113.932V125.545C68.4139 125.576 68.439 125.601 68.4699 125.601H70.2774C70.3082 125.601 70.3333 125.576 70.3333 125.545Z" fill="#DAEBFF"/>
<path opacity="0.53" d="M66.8551 136.153V112.316C66.8551 112.285 66.83 112.26 66.7992 112.26H62.9913C62.9605 112.26 62.9354 112.285 62.9354 112.316V136.153C62.9354 136.184 62.9605 136.209 62.9913 136.209H66.7992C66.83 136.209 66.8551 136.184 66.8551 136.153Z" fill="#DAEBFF"/>
<path opacity="0.53" d="M65.8544 113.932V125.546C65.8544 125.561 65.8486 125.575 65.8381 125.586C65.8276 125.596 65.8134 125.602 65.7985 125.602H63.99C63.9755 125.602 63.9615 125.596 63.9512 125.586C63.9409 125.576 63.9351 125.561 63.9351 125.547V113.932C63.9351 113.917 63.9409 113.903 63.9512 113.893C63.9615 113.882 63.9755 113.877 63.99 113.877H65.7985C65.8132 113.877 65.8273 113.882 65.8378 113.893C65.8482 113.903 65.8542 113.917 65.8544 113.932Z" fill="#DAEBFF"/>
<path opacity="0.53" d="M62.3763 136.153V117.991C62.3763 117.96 62.3512 117.935 62.3204 117.935H59.4409C59.41 117.935 59.3849 117.96 59.3849 117.991V136.153C59.3849 136.184 59.41 136.209 59.4409 136.209H62.3204C62.3512 136.209 62.3763 136.184 62.3763 136.153Z" fill="#DAEBFF"/>
<path opacity="0.53" d="M61.6128 128.059V119.224C61.6128 119.193 61.5878 119.168 61.5569 119.168H60.2044C60.1736 119.168 60.1485 119.193 60.1485 119.224V128.059C60.1485 128.09 60.1736 128.115 60.2044 128.115H61.5569C61.5878 128.115 61.6128 128.09 61.6128 128.059Z" fill="#DAEBFF"/>
<g opacity="0.54">
<path opacity="0.54" d="M11.7937 81.9101V105.748C11.7937 105.763 11.7878 105.777 11.7773 105.788C11.7668 105.798 11.7526 105.804 11.7378 105.804H7.92894C7.91411 105.804 7.89988 105.798 7.88939 105.788C7.87892 105.777 7.87302 105.763 7.87302 105.748V81.9101C7.87302 81.8955 7.87881 81.8815 7.88912 81.8712C7.89942 81.8609 7.9134 81.8551 7.92797 81.8551H11.7368C11.7441 81.855 11.7514 81.8563 11.7583 81.859C11.7651 81.8617 11.7713 81.8657 11.7766 81.8708C11.7819 81.8759 11.7861 81.882 11.789 81.8888C11.7919 81.8955 11.7936 81.9027 11.7937 81.9101Z" fill="#DAEBFF"/>
<path opacity="0.54" d="M10.7949 95.1392V83.5258C10.7949 83.4949 10.7699 83.4698 10.739 83.4698H8.93149C8.90062 83.4698 8.87558 83.4949 8.87558 83.5258V95.1392C8.87558 95.17 8.90062 95.1951 8.93149 95.1951H10.739C10.7699 95.1951 10.7949 95.17 10.7949 95.1392Z" fill="#DAEBFF"/>
</g>
<path opacity="0.53" d="M7.43828 81.9101V105.748C7.43828 105.763 7.43238 105.777 7.4219 105.788C7.41141 105.798 7.39719 105.804 7.38237 105.804H3.57356C3.55874 105.804 3.54451 105.798 3.53403 105.788C3.52354 105.777 3.51764 105.763 3.51764 105.748V81.9101C3.51764 81.8955 3.52343 81.8815 3.53374 81.8712C3.54404 81.8609 3.55802 81.8551 3.5726 81.8551H7.3814C7.38875 81.855 7.39604 81.8563 7.40287 81.859C7.4097 81.8617 7.41594 81.8657 7.42123 81.8708C7.42651 81.8759 7.43072 81.882 7.43365 81.8888C7.43658 81.8955 7.43815 81.9027 7.43828 81.9101Z" fill="#DAEBFF"/>
<path opacity="0.53" d="M6.43955 95.1391V83.5256C6.43955 83.4947 6.41451 83.4697 6.38364 83.4697H4.57612C4.54523 83.4697 4.5202 83.4947 4.5202 83.5256V95.1391C4.5202 95.1699 4.54523 95.195 4.57612 95.195H6.38364C6.41451 95.195 6.43955 95.1699 6.43955 95.1391Z" fill="#DAEBFF"/>
<path opacity="0.53" d="M47.1825 72.4995L31.06 54.9418C31.0391 54.919 31.0037 54.9176 30.981 54.9384L28.1763 57.514C28.1535 57.5348 28.152 57.5702 28.1729 57.5929L44.2954 75.1507C44.3162 75.1734 44.3516 75.1749 44.3743 75.154L47.1791 72.5785C47.2019 72.5577 47.2033 72.5223 47.1825 72.4995Z" fill="#DAEBFF"/>
<path opacity="0.53" d="M39.2701 65.3614L31.4152 56.8073C31.3943 56.7846 31.3589 56.783 31.3362 56.8039L30.0049 58.0265C29.9821 58.0473 29.9806 58.0827 30.0015 58.1054L37.8564 66.6596C37.8773 66.6822 37.9126 66.6838 37.9353 66.663L39.2667 65.4404C39.2895 65.4195 39.291 65.3841 39.2701 65.3614Z" fill="#DAEBFF"/>
<path opacity="0.53" d="M0.0761414 33.2892V193.453H75.0761V33.2892H0.0761414ZM71.6896 36.6758V74.9036H2.97878V36.6758H71.6896ZM2.97878 135.872V108.29H71.6896V135.871L2.97878 135.872ZM71.6896 139.259V166.356H2.97878V139.258L71.6896 139.259ZM2.97878 105.87V77.8053H71.6896V105.87H2.97878Z" fill="#B9D2EA"/>
</g>
<path fill-rule="evenodd" clip-rule="evenodd" d="M119.103 132.529H124.597C127.045 132.529 128.72 131.748 130.815 128.246L135.558 120.321C135.558 120.321 137.365 117.461 141.995 117.461H155.881C157.666 117.461 161.172 117.716 162.364 120.46C163.555 123.203 168.148 133.977 168.148 133.977L159.384 134.629L150.983 148.414C150.983 148.414 139.407 149.308 137.091 149.052C134.775 148.797 125.978 148.281 125.978 148.281L119.103 132.529Z" fill="#20288A"/>
<path fill-rule="evenodd" clip-rule="evenodd" d="M144.353 191.489V146.421C144.35 146.285 144.294 146.156 144.196 146.062C144.098 145.968 143.968 145.916 143.832 145.918H143.447C143.311 145.916 143.181 145.968 143.083 146.062C142.985 146.156 142.929 146.285 142.926 146.421V191.489C142.929 191.624 142.986 191.753 143.083 191.848C143.181 191.941 143.311 191.993 143.447 191.991H143.832C143.968 191.993 144.098 191.941 144.196 191.848C144.293 191.753 144.35 191.624 144.353 191.489Z" fill="#00000F"/>
<path fill-rule="evenodd" clip-rule="evenodd" d="M144.358 151.244H142.923C141.853 151.244 140.977 152.088 140.977 153.121V154.941C140.977 155.974 141.853 156.818 142.923 156.818H144.358C145.429 156.818 146.304 155.974 146.304 154.941V153.121C146.304 152.088 145.429 151.244 144.358 151.244Z" fill="#141A33"/>
<path fill-rule="evenodd" clip-rule="evenodd" d="M153.635 152.177C153.635 151.447 153.016 150.851 152.26 150.851H135.021C134.844 150.848 134.667 150.879 134.503 150.945C134.338 151.009 134.186 151.106 134.059 151.229C133.932 151.353 133.83 151.499 133.758 151.662C133.688 151.825 133.649 151.999 133.647 152.177C133.654 152.534 133.803 152.875 134.06 153.123C134.317 153.372 134.664 153.509 135.021 153.503H152.26C152.618 153.508 152.963 153.372 153.222 153.123C153.479 152.875 153.627 152.534 153.635 152.177Z" fill="#030822"/>
<path fill-rule="evenodd" clip-rule="evenodd" d="M157.327 151.63C157.322 151.43 157.239 151.238 157.094 151.098C156.95 150.958 156.756 150.881 156.555 150.883H130.753C130.552 150.881 130.358 150.958 130.214 151.098C130.069 151.238 129.986 151.43 129.981 151.63C129.985 151.832 130.069 152.023 130.214 152.162C130.357 152.302 130.551 152.38 130.753 152.378H156.555C156.757 152.38 156.951 152.302 157.094 152.162C157.239 152.023 157.323 151.832 157.327 151.63Z" fill="#00000F"/>
<path fill-rule="evenodd" clip-rule="evenodd" d="M139.036 148.726H156.522C157.358 148.726 158.044 149.387 158.044 150.195C158.044 151.003 157.358 151.663 156.522 151.663H139.036C138.2 151.663 137.514 151.003 137.514 150.195C137.514 149.387 138.2 148.726 139.036 148.726Z" fill="#6197B5"/>
<path fill-rule="evenodd" clip-rule="evenodd" d="M129.081 148.726H143.987C144.824 148.726 145.51 149.387 145.51 150.195C145.51 151.003 144.824 151.663 143.987 151.663H129.081C128.243 151.663 127.559 151.003 127.559 150.195C127.554 149.387 128.238 148.726 129.081 148.726Z" fill="#8FBAD8"/>
<path fill-rule="evenodd" clip-rule="evenodd" d="M160.116 120.46C161.117 122.767 164.524 130.745 165.585 133.231H166.996C167.241 133.229 167.481 133.299 167.687 133.431C167.892 133.564 168.054 133.754 168.153 133.977C168.153 133.977 163.557 123.204 162.369 120.46C161.182 117.715 157.672 117.461 155.886 117.461H153.634C155.42 117.461 158.926 117.716 160.116 120.46Z" fill="#75A5C6"/>
<path fill-rule="evenodd" clip-rule="evenodd" d="M112.95 134.941C112.786 134.951 112.622 134.926 112.468 134.87C112.314 134.813 112.172 134.726 112.053 134.613C111.934 134.501 111.839 134.365 111.773 134.213C111.709 134.063 111.675 133.9 111.675 133.736C111.675 133.572 111.709 133.409 111.773 133.259C111.839 133.108 111.934 132.972 112.053 132.859C112.172 132.746 112.314 132.659 112.468 132.603C112.622 132.547 112.786 132.522 112.95 132.531H119.698C119.948 132.529 120.194 132.603 120.402 132.741C120.61 132.88 120.772 133.078 120.867 133.309L127.647 147.783H150.461L158.636 133.844C158.747 133.657 158.906 133.503 159.096 133.396C159.286 133.29 159.501 133.234 159.719 133.236H166.996C167.16 133.226 167.324 133.251 167.478 133.307C167.633 133.363 167.774 133.451 167.894 133.564C168.013 133.676 168.108 133.812 168.174 133.964C168.238 134.114 168.272 134.277 168.272 134.441C168.272 134.605 168.238 134.768 168.174 134.918C168.108 135.069 168.013 135.205 167.894 135.318C167.774 135.431 167.633 135.518 167.478 135.575C167.324 135.63 167.16 135.656 166.996 135.646H160.441L152.315 149.503C152.21 149.713 152.049 149.889 151.848 150.013C151.648 150.135 151.418 150.2 151.183 150.198H126.843C126.605 150.2 126.372 150.133 126.171 150.008C125.969 149.882 125.808 149.702 125.705 149.488L118.893 134.946L112.95 134.941Z" fill="#A1C6E5"/>
<path fill-rule="evenodd" clip-rule="evenodd" d="M101.53 122.709L106.075 193.037H104.057L97.9502 126.021H63.7298L57.6218 193.037H55.6051L60.1504 122.709H101.53Z" fill="#3F4154"/>
<path d="M127.576 142.563C126.654 144.604 113.322 145.358 113.322 145.358C112.192 159.24 110.032 168.345 108.434 173.677C107.556 176.608 106.847 178.401 106.573 179.213C105.802 181.51 106.342 183.719 106.342 183.719C106.352 184.143 106.348 184.555 106.331 184.953C106.005 193.105 100.617 195.955 100.617 195.955L99.4001 196.148L98.9402 196.219L95.6308 196.731C96.2908 196.246 96.8753 195.666 97.366 195.01C106.577 182.898 96.6912 138.555 99.8985 134.094C103.286 129.379 121.822 128.729 121.822 128.729C121.822 128.729 128.503 140.521 127.576 142.563Z" fill="#F46E60"/>
<path d="M106.572 179.214C105.801 181.511 106.341 183.72 106.341 183.72C106.351 184.144 106.347 184.556 106.33 184.954C104.923 187.959 102.346 193.234 100.803 195.068C100.278 195.691 99.8088 196.014 99.3991 196.145C99.2506 196.193 99.0954 196.218 98.9392 196.217C97.9492 196.204 97.4036 195.079 97.3698 195.007C100.428 196.014 105.283 184.408 105.383 181.904C105.479 179.44 108.342 173.854 108.433 173.681C107.555 176.607 106.846 178.4 106.572 179.214Z" fill="#E54F48"/>
<path opacity="0.64" d="M101.883 132.467C101.883 132.467 104.642 132.274 107.03 134.215C109.841 136.5 104.427 156.422 109.798 168.601C115.168 180.781 122.779 128.724 122.779 128.724C122.779 128.724 108.564 127.742 101.883 132.467Z" fill="#E54F48"/>
<path d="M117.134 130.569C117.134 130.569 109.711 131.533 108.919 134.787C108.126 138.041 109.727 167.822 109.727 167.822L120.297 131.093L117.134 130.569Z" fill="#E54F48"/>
<path d="M114.586 114.478C114.586 114.478 109.314 113.49 106.591 113.59C105.251 113.639 103.548 116.929 102.615 118.533L116.979 118.487L114.586 114.478Z" fill="#F87B67"/>
<path opacity="0.64" d="M114.177 114.405C114.177 114.405 112.169 117.818 106.075 117.983V118.708L116.354 118.487L115.036 114.478L114.177 114.405Z" fill="#E54F48"/>
<path fill-rule="evenodd" clip-rule="evenodd" d="M114.586 115.296C114.586 115.296 114.443 117.964 112.384 118.178C110.325 118.392 109.863 118.485 109.863 118.485H114.987L114.586 115.296Z" fill="#E54F48"/>
<path d="M155.264 70.6783V88.3303L137.54 89.3194V71.6597L155.264 70.6783Z" fill="#1E2B77"/>
<path d="M142.606 77.2606C142.606 77.2606 143.199 86.5517 142.606 88.5279C142.013 90.5042 149.796 82.8287 149.796 82.8287C149.796 82.8287 149.359 71.2336 149.754 70.7063C150.149 70.179 142.606 77.2606 142.606 77.2606Z" fill="#F4695B"/>
<path opacity="0.64" fill-rule="evenodd" clip-rule="evenodd" d="M149.674 79.9984C149.674 79.9984 144.293 84.0473 143.601 84.1437C142.909 84.2401 142.838 83.0563 142.838 83.0563L140.767 84.8021L142.577 87.8696L149.964 82.6967L149.674 79.9984Z" fill="#E54F48"/>
<path opacity="0.64" d="M149.614 76.0074C149.614 76.0074 145.028 82.9482 142.79 80.8833L142.684 77.7214L149.614 73.5925V76.0074Z" fill="#E54F48"/>
<path d="M149.614 74.7562C149.614 74.7562 143.004 80.8834 142.74 79.4036C142.717 79.2706 142.699 78.8252 142.699 78.8252L149.679 74.4323L149.614 74.7562Z" fill="#D34040"/>
<path d="M152.826 70.0777C151.897 74.2027 144.369 78.0096 143.08 78.6294C139.899 80.4061 136.498 78.2438 134.397 75.2949C132.752 72.9871 131.908 70.2001 132.602 68.4504C133.567 66.0308 133.381 64.1857 133.223 62.3974V62.3917C133.121 61.2416 133.031 60.1166 133.264 58.8778C133.856 55.7111 136.755 55.7111 136.755 55.7111C136.755 55.7111 153.618 66.5735 152.826 70.0777Z" fill="#F87B67"/>
<path opacity="0.64" d="M151.476 72.8898L147.209 63.9949L135.2 56.3715C135.2 56.3715 131.903 57.4319 133.205 62.2047C133.205 62.2047 133.421 58.5636 134.739 58.5578C136.057 58.5521 135.387 64.4865 144.107 67.2821C144.107 67.2821 145.36 67.4422 145.071 68.8245C144.816 70.0498 145.3 73.3139 147.897 74.5835C146.862 75.4666 144.105 77.4303 140.56 76.9097C140.541 76.5576 140.392 76.2252 140.143 75.9758C139.893 75.7265 139.561 75.5776 139.209 75.5579C138.857 75.5381 138.51 75.6487 138.234 75.8686C137.959 76.0884 137.773 76.4021 137.714 76.7497C137.655 77.0973 137.726 77.4546 137.913 77.7531C138.101 78.0518 138.392 78.2708 138.731 78.3684C139.07 78.4661 139.432 78.4355 139.751 78.2826C140.068 78.1296 140.318 77.8649 140.453 77.5392C142.021 77.6857 145.586 77.6414 148.638 74.8718C148.76 74.9084 148.885 74.9412 149.014 74.9682L151.476 72.8898Z" fill="#E54F48"/>
<path d="M135.851 58.0565C135.851 58.0565 135.229 61.5443 142.166 65.2673C142.166 65.2673 144.373 66.0154 144.804 66.2892C145.389 66.6594 145.588 68.0813 145.588 68.0813L147.625 65.811L135.851 58.0565Z" fill="#D34040"/>
<path d="M134.576 57.8868C134.576 57.8868 132.937 58.7949 133.139 61.5453C133.139 61.5453 131.347 55.7361 135.235 54.026C139.123 52.3158 138.979 54.9485 138.979 54.9485L134.576 57.8868Z" fill="#1A2A6B"/>
<path d="M140.527 83.4322C140.527 83.4322 133.739 85.4248 132.993 86.0466C132.5 86.4553 131.455 87.4299 130.576 94.5472C129.697 101.664 128.819 110.493 128.819 110.493C128.819 110.493 119.594 112.733 119.022 112.778C118.451 112.822 114.588 113.48 114.588 113.48V118.533H168.841C168.841 118.533 170.884 118.445 168.841 111.525C166.799 104.606 162.788 87.4501 158.9 86.0003C155.012 84.5504 150.654 83.0591 150.654 83.0591L142.329 85.1674L140.527 83.4322Z" fill="#FFB100"/>
<path d="M133.739 95.3407C133.739 95.3407 133.827 118.141 129.61 118.536C125.394 118.931 118.847 118.536 118.847 118.536L119.023 112.781L119.524 112.684C119.524 112.684 121.351 120.728 128.2 115.369C128.2 115.369 132.022 112.381 132.198 108.559C132.373 104.738 133.124 94.02 133.739 95.3407Z" fill="#F99911"/>
<path d="M154.738 96.6334C154.738 96.6334 162.028 111.835 160.405 111.717C157.659 111.52 143.47 113.371 143.47 113.371C143.47 113.371 157.396 110.864 157.923 109.9C159.447 107.11 153.024 95.25 154.738 96.6334Z" fill="#ED8100"/>
<path d="M129.361 114.569C129.361 114.569 126.202 115.325 124.926 118.533H136.527C136.527 118.533 133.003 113.769 129.361 114.569Z" fill="#1F2A83"/>
<path d="M154.478 96.9795C154.478 96.9795 153.424 110.73 143.47 113.368C143.47 113.368 156.261 111.15 157.901 110.227C160.063 109.017 154.478 96.9795 154.478 96.9795Z" fill="#F99911"/>
<path d="M140.439 85.7275C140.439 85.7275 140.208 87.0771 141.164 86.7494C142.12 86.4216 143.403 85.1674 143.931 85.5926C144.458 86.0177 145.117 89.0177 145.809 88.9358C146.502 88.8538 152.835 83.867 152.835 83.867L150.653 83.0553C150.653 83.0553 143.535 85.2957 141.657 85.098L140.439 85.7275Z" fill="#DB9200"/>
<path d="M127.57 145.855C127.512 146.098 127.453 146.316 127.401 146.506C127.394 146.533 127.385 146.56 127.378 146.586C127.355 146.667 127.333 146.742 127.312 146.81C127.306 146.83 127.301 146.851 127.293 146.871C125.848 146.852 124.406 146.734 122.977 146.519C120.708 161.829 117.558 171.176 115.619 176.065C114.855 177.993 114.279 179.226 114.017 179.859C113.095 182.1 113.49 184.339 113.49 184.339C113.459 185.033 113.406 185.688 113.332 186.302C112.439 193.742 108.634 195.542 108.634 195.542L102.418 197.651C115.072 189.746 106.637 138.872 110.323 134.391C111.85 132.534 115.368 131.652 118.966 131.253C119.797 131.157 120.632 131.095 121.446 131.049C123.707 132.041 125.239 133.404 126.258 134.924C126.75 135.662 127.143 136.462 127.428 137.303C127.776 138.34 127.986 139.418 128.054 140.509C128.206 142.628 127.877 144.577 127.57 145.855Z" fill="#F87B67"/>
<path opacity="0.64" d="M122.779 132.471C126.476 136.189 127.649 139.123 127.679 141.34C127.71 143.584 124.774 144.542 123.496 142.697C123.271 142.371 123.095 142.014 122.977 141.636C123.504 143.788 122.977 146.513 122.977 146.513L124.725 146.655L124.69 146.676L129.007 147.029C129.007 147.029 132.516 147.859 133.081 143.381C133.646 138.903 122.779 132.471 122.779 132.471Z" fill="#E54F48"/>
<path d="M160.49 133.55C160.462 133.261 160.429 132.972 160.394 132.683C160.376 132.53 160.356 132.379 160.335 132.229C160.285 131.851 160.23 131.476 160.169 131.106C159.733 128.413 159.096 125.755 158.264 123.156C158.264 123.156 142.516 122.206 130.541 122.668C128.065 122.765 125.751 122.919 123.77 123.156C112.299 124.528 100.433 132.908 100.248 133.038C112.106 128.593 121.288 131.778 121.837 132.019C129.722 135.477 128.095 141.907 127.572 145.853C127.527 146.102 127.462 146.346 127.38 146.585C127.357 146.665 127.335 146.74 127.314 146.808C127.307 146.829 127.301 146.849 127.296 146.869C127.199 147.192 127.13 147.373 127.13 147.373C127.13 147.373 130.437 147.743 135.176 147.962C137.49 148.068 145.512 147.892 146.987 147.782C148.536 147.666 152.528 147.589 154.015 147.373C154.273 147.337 154.521 147.289 154.761 147.233C155.858 146.995 156.877 146.482 157.724 145.745C158.924 144.685 159.686 143.211 160.134 141.517C160.767 139.115 160.77 136.272 160.49 133.55Z" fill="#1B65F8"/>
<path fill-rule="evenodd" clip-rule="evenodd" d="M160.026 130.271C160.026 130.271 157.7 131.504 155.591 136.094C153.483 140.684 141.925 148.206 127.128 147.373C127.128 147.373 151.001 148.809 156.172 146.856C161.343 144.904 161.615 138.956 160.026 130.271Z" fill="#0959CC"/>
<path fill-rule="evenodd" clip-rule="evenodd" d="M160.393 132.683C160.393 132.683 159.177 132.393 158.044 133.977C156.91 135.561 151.72 146.902 145.505 147.882L152.949 147.648L160.49 133.55L160.393 132.683Z" fill="#0050AF"/>
<path d="M122.315 107.555H87.4696C86.9375 107.547 86.4267 107.344 86.0335 106.986C85.6403 106.627 85.3919 106.137 85.3352 105.608L82.9927 79.1943C82.966 78.9455 82.9928 78.6939 83.0711 78.4563C83.1493 78.2187 83.2775 78.0004 83.4468 77.8163C83.6161 77.6321 83.8228 77.4861 84.053 77.3881C84.2833 77.2901 84.5317 77.2423 84.7819 77.248H119.627C120.159 77.256 120.67 77.4584 121.062 77.8169C121.456 78.1754 121.704 78.6653 121.761 79.1943L124.104 105.608C124.131 105.857 124.104 106.109 124.025 106.346C123.947 106.584 123.819 106.802 123.65 106.986C123.48 107.17 123.274 107.316 123.043 107.414C122.813 107.512 122.564 107.56 122.315 107.555Z" fill="#404DAD"/>
<path d="M120.97 107.554H86.1247C85.5927 107.547 85.0818 107.344 84.6886 106.986C84.2954 106.627 84.0471 106.137 83.9904 105.608L81.6478 79.1943C81.6211 78.9455 81.6479 78.6939 81.7262 78.4563C81.8045 78.2187 81.9326 78.0004 82.1019 77.8163C82.2713 77.6321 82.4779 77.4861 82.7082 77.3881C82.9385 77.2901 83.1869 77.2423 83.437 77.248H118.284C118.816 77.2558 119.327 77.4581 119.72 77.8167C120.114 78.1752 120.361 78.6653 120.418 79.1943L122.761 105.608C122.788 105.857 122.761 106.108 122.682 106.347C122.604 106.585 122.476 106.803 122.306 106.987C122.136 107.171 121.929 107.316 121.7 107.415C121.469 107.513 121.22 107.56 120.97 107.554Z" fill="#0E1C56"/>
<path d="M89.8236 118.687H108.804L107.38 117.214C107.187 117.014 106.931 116.889 106.655 116.859L99.3143 116.066L104.941 105.146L103.548 96.774H96.7317L93.6054 116.075L90.9901 116.738C90.7885 116.789 90.604 116.892 90.4549 117.038C90.3059 117.182 90.1975 117.364 90.1408 117.564L89.8236 118.687Z" fill="#0B1B4F"/>
<path d="M93.1832 118.687L96.5765 97.7313C96.6199 97.4643 96.7568 97.2213 96.9631 97.0459C97.1694 96.8704 97.4306 96.774 97.7015 96.774H101.999C102.177 96.774 102.354 96.8165 102.514 96.8965C102.673 96.9775 102.812 97.0941 102.918 97.2377C103.024 97.3823 103.094 97.5491 103.124 97.7255C103.154 97.901 103.141 98.0822 103.088 98.2528L96.7317 118.69L93.1832 118.687Z" fill="#404DAD"/>
<path d="M148.192 72.8898C148.192 72.8898 144.502 76.7554 139.494 75.4376V76.1404C139.494 76.1404 144.634 77.2972 148.72 73.3727L148.192 72.8898Z" fill="#D30F00"/>
<path d="M138.978 77.1391C139.771 77.1391 140.415 76.4956 140.415 75.7017C140.415 74.908 139.771 74.2644 138.978 74.2644C138.184 74.2644 137.54 74.908 137.54 75.7017C137.54 76.4956 138.184 77.1391 138.978 77.1391Z" fill="#ED442E"/>
<path d="M155.577 65.8968C155.577 65.8968 150.785 65.4649 147.951 66.1233C147.317 66.2718 146.414 66.1754 145.385 65.9006C141.818 64.952 136.748 61.873 136.287 59.4688C135.713 56.4678 134.642 57.7982 134.577 57.883C134.906 52.4142 141.431 52.2821 141.431 52.2821C154.21 51.9601 155.577 65.8968 155.577 65.8968Z" fill="#1F2A83"/>
<path d="M140.414 52.6012C140.414 52.6012 148.247 57.3249 148.28 60.7866C148.313 64.2484 145.076 65.8149 145.076 65.8149L150.224 67.0797C150.224 67.0797 153.657 65.6953 150.985 60.4897C148.313 55.2841 144.475 52.3554 140.414 52.6012Z" fill="#172472"/>
<path d="M142.868 85.1019L141.625 115.125L140.768 114.478L142.573 84.6411L142.868 85.1019Z" fill="#DB9200"/>
<path d="M158.299 27.108H117.658C116.462 27.108 115.485 28.315 115.485 29.7889V42.7057C115.485 44.1806 116.462 45.3866 117.658 45.3866H150.998L152.722 48.9351L153.407 45.3866H158.299C159.495 45.3866 160.473 44.1806 160.473 42.7057V29.788C160.473 28.315 159.495 27.108 158.299 27.108Z" fill="#1B65F8"/>
<path d="M153.081 31.5193H118.231C118.09 31.5193 117.977 31.6332 117.977 31.7738V32.6954C117.977 32.8359 118.09 32.9499 118.231 32.9499H153.081C153.222 32.9499 153.335 32.8359 153.335 32.6954V31.7738C153.335 31.6332 153.222 31.5193 153.081 31.5193Z" fill="white"/>
<path d="M153.081 34.2542H118.231C118.09 34.2542 117.977 34.3681 117.977 34.5087V35.4302C117.977 35.5708 118.09 35.6847 118.231 35.6847H153.081C153.222 35.6847 153.335 35.5708 153.335 35.4302V34.5087C153.335 34.3681 153.222 34.2542 153.081 34.2542Z" fill="white"/>
<path d="M139.443 36.9882H118.231C118.09 36.9882 117.977 37.1021 117.977 37.2427V38.1643C117.977 38.3048 118.09 38.4188 118.231 38.4188H139.443C139.584 38.4188 139.698 38.3048 139.698 38.1643V37.2427C139.698 37.1021 139.584 36.9882 139.443 36.9882Z" fill="white"/>
<path d="M83.4121 0H124.054C125.249 0 126.228 1.20694 126.228 2.68091V15.5987C126.228 17.0726 125.249 18.2796 124.054 18.2796H90.7135L88.9889 21.8271L88.3054 18.2796H83.4121C82.2167 18.2796 81.2382 17.0726 81.2382 15.5987V2.68091C81.2382 1.2079 82.2167 0 83.4121 0Z" fill="#00D569"/>
<path d="M86.333 6.55815H121.183C121.324 6.55815 121.437 6.44421 121.437 6.30365V5.38206C121.437 5.2415 121.324 5.12756 121.183 5.12756H86.333C86.1924 5.12756 86.0785 5.2415 86.0785 5.38206V6.30365C86.0785 6.44421 86.1924 6.55815 86.333 6.55815Z" fill="white"/>
<path d="M86.333 9.29302H121.183C121.324 9.29302 121.437 9.17907 121.437 9.03852V8.11693C121.437 7.97637 121.324 7.86243 121.183 7.86243H86.333C86.1924 7.86243 86.0785 7.97637 86.0785 8.11693V9.03852C86.0785 9.17907 86.1924 9.29302 86.333 9.29302Z" fill="white"/>
<path d="M86.2838 12.0279H107.496C107.637 12.0279 107.75 11.9139 107.75 11.7734V10.8518C107.75 10.7112 107.637 10.5973 107.496 10.5973H86.2838C86.1432 10.5973 86.0293 10.7112 86.0293 10.8518V11.7734C86.0293 11.9139 86.1432 12.0279 86.2838 12.0279Z" fill="white"/>
<path d="M139.492 52.5781C139.492 52.5781 150.019 51.7616 151.67 67.4923H154.406C154.406 67.4923 152.892 53.5595 143.47 52.2802C143.47 52.2802 140.9 51.7674 139.492 52.5781Z" fill="#ED442E"/>
<path d="M149.258 58.8596C149.258 58.8596 150.85 57.8956 152.036 59.4081C152.036 59.4081 154.431 64.4325 153.881 66.4753C153.332 68.518 151.61 66.0347 151.61 66.0347C151.61 66.0347 151.179 62.6 149.258 58.8596Z" fill="#D30F00"/>
<path d="M156.447 68.9508C156.447 72.0694 154.002 74.597 150.984 74.597C149.763 74.5967 148.578 74.176 147.63 73.4055C146.967 72.8678 146.435 72.1884 146.07 71.4174C145.705 70.6465 145.518 69.8036 145.523 68.9508C145.523 65.8332 147.968 63.3075 150.984 63.3075C151.849 63.3105 152.7 63.5211 153.466 63.9216C154.232 64.3219 154.89 64.9005 155.387 65.6086C156.08 66.5847 156.451 67.7534 156.447 68.9508Z" fill="#ED442E"/>
<path d="M156.447 68.9509C156.447 72.0695 154.002 74.5971 150.984 74.5971C149.762 74.5969 148.578 74.1761 147.63 73.4056C155.969 73.929 155.389 65.6106 155.389 65.6106C156.081 66.5865 156.451 67.7544 156.447 68.9509Z" fill="#D30F00"/>
<path d="M146.144 65.0977L145.385 65.9007C141.818 64.9521 136.748 61.8731 136.287 59.4688C135.713 56.4679 134.642 57.7982 134.577 57.883C134.609 57.7866 135.259 56.0206 136.199 57.4974C137.166 59.008 142.647 66.0916 146.144 65.0977Z" fill="#1A2A6B"/>
<path d="M134.398 75.295C132.752 72.9871 131.908 70.2002 132.602 68.4505C133.567 66.0308 133.381 64.1857 133.223 62.3975C133.282 62.5594 134.562 66.1504 133.564 68.7137C132.729 70.8547 133.927 74.1516 134.398 75.295Z" fill="#FF897D"/>
<path d="M142.821 81.8965L142.869 84.9264C142.869 84.9264 146.666 83.435 149.714 80.3589C149.714 80.3589 149.95 79.9184 150.191 80.5768C150.432 81.2352 151.97 83.3444 152.408 83.5864C152.408 83.5864 146.5 87.2496 144.809 88.8537C144.809 88.8537 144.128 89.2528 144.149 88.3303C144.171 87.4077 142.867 85.1018 142.867 85.1018C142.867 85.1018 141.843 85.9366 140.174 85.9588C140.174 85.9588 139.933 86.0687 140.174 85.3216C140.415 84.5745 140.218 83.3223 140.218 83.3223C140.218 83.3223 142.217 82.7294 142.435 82.2898C142.654 81.8502 142.821 81.8965 142.821 81.8965Z" fill="#FFC552"/>
<path fill-rule="evenodd" clip-rule="evenodd" d="M149.305 113.528C149.305 113.528 150.356 114.798 149.594 118.533H168.836C168.836 118.533 170.523 118.07 169.482 114.107C169.486 114.107 160.641 119.136 149.305 113.528Z" fill="#F99911"/>
<path d="M143.667 118.532C143.667 118.532 140.142 117.555 137.342 118.243C135.148 118.784 133.074 117.953 131.645 117.675C131.252 117.599 130.906 117.566 130.621 117.616C129.302 117.846 125.511 116.133 129.039 113.728C132.566 111.323 134.311 111.521 135.562 112.048C136.813 112.575 141.564 114.747 143.64 114.183C143.64 114.183 143.684 114.361 143.736 114.651C143.909 115.53 144.188 117.434 143.667 118.532Z" fill="#F87B67"/>
<path fill-rule="evenodd" clip-rule="evenodd" d="M149.248 112.945C149.248 112.945 150.411 114.667 150.694 116.6C150.978 118.533 154.088 118.528 154.088 118.528H149.596C149.596 118.528 150.644 116.003 148.895 112.697L149.248 112.945Z" fill="#ED8100"/>
<path d="M105.443 129.818C105.443 129.818 124.888 128.047 128.446 132.471C132.004 136.896 155.199 123.201 155.199 123.201H124.111C124.111 123.201 117.759 122.742 105.443 129.818Z" fill="#0A5CE0"/>
<path opacity="0.64" fill-rule="evenodd" clip-rule="evenodd" d="M143.668 118.532C143.668 118.532 140.142 117.555 137.342 118.243C135.148 118.784 133.074 117.953 131.645 117.675C134.982 118.005 137.166 117.736 137.166 117.736C143.025 117.862 143.722 114.76 143.74 114.652C143.909 115.53 144.188 117.434 143.668 118.532Z" fill="#E54F48"/>
<path fill-rule="evenodd" clip-rule="evenodd" d="M143.823 115.125C143.823 115.125 143.843 117.342 143.051 117.478C142.26 117.614 140.767 118.048 140.767 118.048L143.667 118.53C143.667 118.53 144.225 117.686 143.823 115.125Z" fill="#E54F48"/>
<path d="M186.875 117.581C188.44 116.697 191.125 114.09 190.677 112.255C190.625 112.022 190.519 111.805 190.369 111.62C190.218 111.435 190.027 111.286 189.81 111.188C188.773 110.706 187.289 111.284 187.123 111.356L187.618 112.386C187.975 112.241 188.85 112.001 189.263 112.193C189.323 112.222 189.375 112.266 189.414 112.319C189.453 112.373 189.478 112.436 189.487 112.502C189.748 113.571 187.647 115.824 186.24 116.618L186.875 117.581Z" fill="#D30F00"/>
<path d="M187.707 110.234H180.774C180.745 110.234 180.716 110.239 180.689 110.25C180.662 110.262 180.637 110.278 180.617 110.298C180.596 110.318 180.58 110.344 180.569 110.371C180.557 110.398 180.552 110.426 180.552 110.455V115.716C180.552 116.452 180.844 117.156 181.363 117.676C181.883 118.195 182.588 118.487 183.323 118.487H185.155C185.889 118.487 186.595 118.195 187.115 117.676C187.634 117.156 187.926 116.452 187.926 115.716V110.455C187.926 110.398 187.903 110.341 187.863 110.299C187.821 110.258 187.765 110.235 187.707 110.234Z" fill="#ED442E"/>
<path d="M182.95 97.5155C183.01 97.5724 182.434 97.9975 182.049 99.002C181.828 99.5823 181.737 100.205 181.781 100.825C181.802 101.187 181.875 101.544 181.998 101.885C182.122 102.252 182.308 102.593 182.549 102.896C182.788 103.21 183.098 103.479 183.371 103.786C183.655 104.084 183.868 104.441 183.997 104.831C184.234 105.603 184.067 106.321 183.844 106.84C183.669 107.256 183.411 107.632 183.086 107.945C182.856 108.164 182.7 108.243 182.682 108.225C182.663 108.206 182.778 108.077 182.963 107.839C183.222 107.505 183.425 107.132 183.566 106.735C183.738 106.244 183.847 105.593 183.627 104.956C183.505 104.623 183.313 104.32 183.064 104.069C182.808 103.785 182.49 103.516 182.217 103.162C181.947 102.822 181.741 102.437 181.607 102.024C181.477 101.645 181.404 101.249 181.393 100.849C181.362 100.175 181.492 99.5033 181.774 98.8901C181.957 98.4785 182.219 98.1074 182.545 97.796C182.781 97.5801 182.934 97.4952 182.95 97.5155Z" fill="#A1C6E5"/>
<path d="M186.391 96.5235C186.412 96.5437 186.305 96.7009 186.102 96.9717C185.899 97.2426 185.586 97.6253 185.26 98.1286C184.935 98.6318 184.601 99.2632 184.489 100.024C184.425 100.414 184.438 100.813 184.53 101.199C184.64 101.609 184.839 101.988 185.115 102.311C185.394 102.662 185.715 102.986 185.996 103.341C186.39 103.798 186.648 104.357 186.74 104.953C186.833 105.549 186.757 106.16 186.519 106.715C186.336 107.184 186.038 107.6 185.652 107.923C185.55 108.011 185.437 108.085 185.316 108.146C185.234 108.187 185.189 108.203 185.181 108.191C185.174 108.178 185.204 108.139 185.267 108.076C185.363 107.99 185.453 107.899 185.539 107.803C185.853 107.46 186.09 107.054 186.235 106.612C186.457 105.968 186.466 105.27 186.264 104.62C186.134 104.244 185.931 103.897 185.67 103.597C185.402 103.269 185.08 102.948 184.779 102.571C184.467 102.201 184.243 101.763 184.124 101.293C184.025 100.855 184.017 100.4 184.101 99.9582C184.249 99.1186 184.646 98.4515 185.012 97.955C185.304 97.5656 185.626 97.1993 185.976 96.8609C186.222 96.6247 186.369 96.5042 186.391 96.5235Z" fill="#A1C6E5"/>
<path fill-rule="evenodd" clip-rule="evenodd" d="M73.0498 102.209C75.267 101.252 75.616 103.728 74.6317 105.68C73.9665 107.001 71.5671 110.383 69.9514 113.261H68.1073C68.7339 108.907 70.7583 103.198 73.0498 102.209Z" fill="#1F2A83"/>
<path fill-rule="evenodd" clip-rule="evenodd" d="M68.7657 113.261C70.338 107.987 73.9598 103.017 73.9713 102.997C73.9788 102.986 73.9881 102.978 73.9988 102.971C74.0096 102.964 74.0217 102.96 74.0342 102.957C74.0467 102.955 74.0595 102.956 74.072 102.959C74.0843 102.962 74.096 102.967 74.1063 102.975C74.1271 102.989 74.1412 103.011 74.1455 103.037C74.1499 103.062 74.1441 103.087 74.1294 103.109C74.115 103.129 70.5318 108.047 68.9633 113.261H68.7657Z" fill="white"/>
<path fill-rule="evenodd" clip-rule="evenodd" d="M68.3696 94.3891C66.1369 92.1998 64.6099 94.9752 64.9223 97.7631C65.2173 100.407 67.795 109.481 67.4875 113.296H68.3667C70.3728 108.407 71.2289 97.1915 68.3696 94.3891Z" fill="#00D569"/>
<path fill-rule="evenodd" clip-rule="evenodd" d="M68.0437 113.297C69.9003 105.585 66.9187 94.9223 66.909 94.8847C66.9012 94.8517 66.8808 94.8231 66.852 94.8051C66.8234 94.7871 66.7888 94.781 66.7557 94.7883C66.74 94.792 66.7253 94.799 66.7124 94.8086C66.6994 94.8183 66.6885 94.8305 66.6804 94.8445C66.6723 94.8584 66.6671 94.8739 66.6651 94.8899C66.6632 94.906 66.6644 94.9222 66.669 94.9377C66.6786 94.9733 69.6642 105.651 67.7892 113.29L68.0437 113.297Z" fill="white"/>
<path fill-rule="evenodd" clip-rule="evenodd" d="M62.8727 99.2304C60.5312 98.1122 60.0771 100.743 61.0768 102.871C61.901 104.637 65.4148 109.819 66.8136 113.178L67.9704 113.138C67.8451 108.434 65.6366 100.546 62.8727 99.2304Z" fill="#1B65F8"/>
<path fill-rule="evenodd" clip-rule="evenodd" d="M67.5501 113.153C66.4897 106.821 61.8769 100.057 61.8625 100.032C61.8469 100.009 61.8232 99.9938 61.7962 99.9881C61.7693 99.9823 61.7411 99.9881 61.7179 100.003C61.7066 100.01 61.697 100.02 61.6894 100.03C61.6819 100.042 61.6767 100.055 61.6741 100.068C61.6715 100.082 61.6716 100.095 61.6743 100.109C61.677 100.121 61.6823 100.134 61.6899 100.145C61.7063 100.169 66.2863 106.893 67.3467 113.159L67.5501 113.153Z" fill="white"/>
<path d="M65.0456 112.321H71.9335C72.033 112.321 72.1283 112.36 72.1987 112.431C72.269 112.501 72.3085 112.596 72.3085 112.696V114.396C72.3085 114.445 72.2988 114.494 72.28 114.539C72.2612 114.585 72.2337 114.626 72.199 114.66C72.1642 114.695 72.123 114.723 72.0776 114.741C72.0322 114.761 71.9835 114.77 71.9344 114.77H65.0475C64.9481 114.77 64.8527 114.731 64.7823 114.66C64.7121 114.59 64.6725 114.495 64.6725 114.395V112.693C64.673 112.594 64.7126 112.5 64.7824 112.43C64.8523 112.36 64.9469 112.321 65.0456 112.321Z" fill="#FFB100"/>
<path fill-rule="evenodd" clip-rule="evenodd" d="M70.7516 113.704H66.2266L65.0457 114.77L66.0106 118.488H68.4891H70.9676L71.9325 114.77L70.7516 113.704Z" fill="#FFB100"/>
<path fill-rule="evenodd" clip-rule="evenodd" d="M65.0457 114.77L65.2442 115.535H71.7349L71.9325 114.77H65.0457Z" fill="#D18B00"/>
<path fill-rule="evenodd" clip-rule="evenodd" d="M147.614 147.783H152.059L159.386 134.63L168.113 134.976L159.533 149.501C159.428 149.711 159.266 149.888 159.066 150.011C158.866 150.134 158.635 150.198 158.399 150.196H147.614V147.783Z" fill="#75A5C6"/>
<path fill-rule="evenodd" clip-rule="evenodd" d="M146.985 147.783H150.461L158.636 133.844C158.747 133.657 158.906 133.503 159.096 133.396C159.286 133.29 159.501 133.234 159.719 133.236H166.996C167.16 133.226 167.324 133.251 167.478 133.307C167.633 133.364 167.774 133.451 167.894 133.564C168.013 133.676 168.108 133.812 168.174 133.964C168.238 134.114 168.272 134.277 168.272 134.441C168.272 134.605 168.238 134.768 168.174 134.918C168.108 135.069 168.013 135.205 167.894 135.318C167.774 135.431 167.633 135.519 167.478 135.575C167.324 135.631 167.16 135.656 166.996 135.646H160.441L152.315 149.503C152.21 149.713 152.049 149.889 151.848 150.013C151.648 150.135 151.418 150.2 151.183 150.198H146.981L146.985 147.783Z" fill="#A1C6E5"/>
<path fill-rule="evenodd" clip-rule="evenodd" d="M203.369 122.709L207.647 200.234H205.749L199.998 126.36H167.781L162.031 200.234H160.132L164.411 122.709H203.369Z" fill="#3F4154"/>
<path fill-rule="evenodd" clip-rule="evenodd" d="M183.692 118.487H59.2606C58.1635 118.487 57.266 119.548 57.266 120.842C57.266 122.136 58.1635 123.196 59.2606 123.196H183.692C184.79 123.196 185.688 122.135 185.688 120.842C185.688 119.547 184.79 118.487 183.692 118.487Z" fill="#A1C6E5"/>
<path fill-rule="evenodd" clip-rule="evenodd" d="M205.045 118.487H152.4C151.303 118.487 150.406 119.548 150.406 120.842C150.406 122.136 151.303 123.196 152.4 123.196H205.045C206.142 123.196 207.04 122.135 207.04 120.842C207.042 119.547 206.144 118.487 205.045 118.487Z" fill="#6197B5"/>
<path d="M61.5501 15.1513C61.0575 14.7088 60.7075 14.1593 60.3875 13.5886C59.6194 12.2362 59.2588 10.6905 59.3492 9.1378C59.4378 7.46478 60.0296 5.85753 61.0471 4.5265C62.0645 3.19548 63.4602 2.20274 65.0514 1.67828C66.0282 1.34398 67.0615 1.20605 68.0918 1.27244C70.043 1.40643 71.7618 2.1063 73.2194 3.43567C74.5907 4.65915 75.5027 6.3146 75.8039 8.12751C76.2155 10.5144 75.6574 12.6863 74.2065 14.6269C74.075 14.8263 73.9122 15.0034 73.7245 15.1513C73.622 14.8035 73.4512 14.4795 73.2224 14.1981C72.9935 13.9168 72.711 13.6837 72.3913 13.5125C71.8638 13.2164 71.3132 12.9637 70.7448 12.7567C70.4373 12.6478 70.1423 12.4935 69.8097 12.4627C69.3913 12.1137 69.32 11.6529 69.3499 11.141C69.3614 10.9309 69.4154 10.8701 69.6188 10.8884C70.177 10.9395 70.5202 10.6426 70.7313 10.1597C70.9129 9.71689 71.0248 9.24856 71.0629 8.77147C71.1471 7.8543 71.1455 6.93127 71.0581 6.0144C71.4495 5.79075 71.7406 5.49287 71.8225 5.02629C71.945 4.32835 71.4572 3.60341 70.8277 3.65933C70.4527 3.6921 70.2493 3.6198 69.9697 3.34602C69.3759 2.7599 68.2249 2.79268 67.5732 3.32096C67.4932 3.38555 67.4459 3.42314 67.3438 3.34988C67.0801 3.17348 66.7599 3.10228 66.4463 3.15033C65.8158 3.21877 65.2683 3.45399 64.9511 4.03722C64.8181 4.28111 64.7429 4.53079 64.5375 4.7583C64.1278 5.21138 64.2801 5.83702 64.7978 6.17732C64.8614 6.21877 64.9183 6.24769 64.927 6.33638C65.0321 7.47873 65.6105 8.47552 65.9209 9.55521C65.9209 10.1519 65.9045 10.7506 65.9334 11.3464C65.9526 11.5567 65.9201 11.7687 65.8386 11.9636C65.7571 12.1584 65.6291 12.3305 65.4659 12.4646C65.3984 12.4328 65.3415 12.4714 65.2817 12.4906C64.7147 12.673 64.1585 12.8877 63.6159 13.1336C62.6837 13.5578 61.8431 14.0745 61.5501 15.1513Z" fill="#00D569"/>
<path d="M69.8079 12.4598C70.1404 12.4907 70.4354 12.6449 70.743 12.7539C71.3113 12.9608 71.862 13.2136 72.3895 13.5096C72.7091 13.6809 72.9917 13.9139 73.2206 14.1952C73.4494 14.4766 73.6201 14.8006 73.7227 15.1485C73.314 15.6941 72.776 16.0951 72.2189 16.4682C70.7216 17.4863 68.9253 17.9705 67.1192 17.8429C64.9733 17.7069 63.135 16.847 61.6398 15.2844C61.6054 15.2423 61.5754 15.1967 61.5501 15.1485C61.8393 14.0717 62.6838 13.555 63.6141 13.124C64.1566 12.8781 64.7129 12.6635 65.2799 12.481C65.3397 12.4618 65.3965 12.4232 65.464 12.455C65.5739 12.7442 65.8178 12.9023 66.0771 13.0151C66.5682 13.2362 67.1007 13.3506 67.6393 13.3506C68.1779 13.3506 68.7103 13.2362 69.2015 13.0151C69.4598 12.9177 69.7057 12.7548 69.8079 12.4598ZM67.42 16.6359C67.3998 16.7844 67.4991 16.8432 67.6282 16.8528C67.6559 16.8571 67.684 16.8551 67.7109 16.8474C67.7377 16.8396 67.7626 16.826 67.7836 16.8077C67.8047 16.7894 67.8216 16.7666 67.8331 16.7412C67.8445 16.7156 67.8502 16.688 67.85 16.66C67.8577 16.5048 67.7622 16.4325 67.608 16.4248C67.4537 16.4171 67.4229 16.5039 67.42 16.6359ZM67.42 15.5591C67.42 15.6931 67.4807 15.7606 67.6205 15.7519C67.7603 15.7433 67.85 15.6729 67.85 15.5341C67.8527 15.5041 67.8485 15.4739 67.8378 15.4459C67.8271 15.4177 67.8101 15.3924 67.7883 15.3718C67.7663 15.3512 67.74 15.3358 67.7112 15.3268C67.6826 15.3179 67.6522 15.3156 67.6224 15.3201C67.5928 15.3209 67.5638 15.3279 67.5372 15.3407C67.5105 15.3535 67.4869 15.3718 67.4677 15.3944C67.4486 15.4169 67.4346 15.4433 67.4263 15.4717C67.4181 15.5 67.416 15.5298 67.42 15.5591ZM67.6417 14.2095C67.5861 14.208 67.532 14.2281 67.491 14.2657C67.4499 14.3033 67.4252 14.3555 67.4219 14.411C67.4194 14.4403 67.4229 14.4697 67.4322 14.4976C67.4416 14.5254 67.4565 14.5511 67.4761 14.5729C67.4958 14.5948 67.5196 14.6125 67.5463 14.6247C67.573 14.637 67.6019 14.6436 67.6313 14.6443C67.6606 14.645 67.6898 14.6396 67.717 14.6286C67.7443 14.6175 67.769 14.601 67.7895 14.58C67.81 14.5591 67.8261 14.5341 67.8367 14.5067C67.8473 14.4792 67.8521 14.45 67.8509 14.4206C67.8509 14.3647 67.829 14.311 67.79 14.271C67.7509 14.231 67.6976 14.2079 67.6417 14.2066V14.2095Z" fill="#ED442E"/>
<path d="M69.8078 12.4599C69.7057 12.7549 69.4598 12.913 69.2015 13.0238C68.7103 13.245 68.1779 13.3593 67.6393 13.3593C67.1007 13.3593 66.5682 13.245 66.0771 13.0238C65.8178 12.911 65.5739 12.7539 65.464 12.4637C65.6272 12.3296 65.7552 12.1576 65.8367 11.9627C65.9182 11.7678 65.9507 11.5559 65.9315 11.3455C65.9026 10.7497 65.9209 10.1511 65.919 9.55435C66.1263 9.403 66.3596 9.27575 66.4425 9.00872C66.4849 8.87472 66.5186 8.74362 66.3287 8.67228C66.0633 8.56646 65.8438 8.37033 65.7088 8.11848C65.574 7.86664 65.5323 7.57523 65.5912 7.29567C65.611 7.19147 65.6582 7.09444 65.7281 7.01465C65.798 6.93487 65.888 6.87522 65.9887 6.84188C66.0893 6.80855 66.1971 6.80274 66.3008 6.82508C66.4045 6.84741 66.5003 6.89705 66.5784 6.96887C66.6478 7.02864 66.7037 7.1048 66.7712 7.16167C66.9331 7.29085 67.0941 7.4904 67.3255 7.37183C67.5569 7.25325 67.4759 7.01707 67.4634 6.82138C67.4344 6.3789 67.4518 6.35673 67.9078 6.3519C68.9682 6.34034 70.0286 6.33359 71.0524 6.01257C71.1398 6.92944 71.1414 7.85247 71.0572 8.76964C71.0191 9.24673 70.9073 9.71504 70.7256 10.1578C70.5145 10.6398 70.1713 10.9377 69.6131 10.8866C69.4097 10.8683 69.3557 10.929 69.3442 11.1392C69.3181 11.6501 69.3895 12.1109 69.8078 12.4599Z" fill="#F87B67"/>
<path d="M71.0562 6.01154C70.0305 6.33256 68.9711 6.33932 67.9116 6.35089C67.4557 6.35571 67.4383 6.37788 67.4672 6.82036C67.4798 7.01316 67.5511 7.25705 67.3294 7.3708C67.1077 7.48455 66.937 7.28983 66.7751 7.16065C66.7037 7.10281 66.6478 7.02666 66.5823 6.96785C66.5042 6.89602 66.4084 6.84638 66.3047 6.82405C66.201 6.80172 66.0932 6.80753 65.9926 6.84085C65.8918 6.87419 65.8019 6.93384 65.732 7.01363C65.6621 7.09341 65.6149 7.19044 65.5951 7.29465C65.5362 7.57421 65.5779 7.86561 65.7128 8.11745C65.8477 8.3693 66.0672 8.56543 66.3326 8.67126C66.5254 8.7426 66.4888 8.8737 66.4463 9.0077C66.3634 9.27473 66.1301 9.40198 65.9229 9.55333C65.6125 8.47364 65.0341 7.47684 64.929 6.33449C64.9203 6.2458 64.8634 6.21689 64.7998 6.17544C64.2821 5.83513 64.125 5.21142 64.5395 4.7564C64.7449 4.5289 64.8201 4.27922 64.9531 4.03532C65.2703 3.4521 65.8207 3.21689 66.4483 3.14844C66.7619 3.1004 67.0821 3.1716 67.3458 3.34799C67.4479 3.42126 67.4952 3.38365 67.5752 3.31906C68.2269 2.79079 69.3779 2.75802 69.9717 3.34414C70.2503 3.61792 70.4537 3.69022 70.8297 3.65744C71.4592 3.60153 71.947 4.32645 71.8246 5.0244C71.7388 5.49483 71.4476 5.78404 71.0562 6.01154Z" fill="#18011E"/>
<g opacity="0.53">
<path opacity="0.53" d="M286.103 180.676C286.103 180.676 289.352 165.913 295.707 167.389C302.062 168.865 291.308 178.493 286.103 180.676Z" fill="#00D569"/>
<path opacity="0.49" d="M286.877 175.421C286.877 175.421 287.569 168.366 290.197 162.419C292.2 157.888 295.867 152.322 298.357 154.397C302.195 157.595 298.226 162.035 296.421 164.356C294.484 166.845 291.579 169.335 286.877 175.421Z" fill="#00D569"/>
<path opacity="0.49" d="M283.696 172.516C283.696 172.516 276.369 156.334 276.369 146.513C276.369 136.693 285.36 140.427 286.051 147.067C286.742 153.706 285.356 166.707 283.696 172.516Z" fill="#00D569"/>
<path opacity="0.53" d="M282.036 176.112C282.036 176.112 282.451 164.633 280.376 157.855C278.302 151.077 272.77 152.456 272.077 155.366C271.385 158.275 272.493 165.186 282.036 176.112Z" fill="#00D569"/>
<path opacity="0.53" d="M287.06 167.221C287.06 167.221 285.421 155.846 287.018 148.871C288.614 141.897 294.865 142.638 295.926 145.449C296.987 148.26 296.476 155.265 287.06 167.221Z" fill="#00D569"/>
<path opacity="0.53" d="M283.271 187.774L283.083 187.756C283.116 186.771 283.145 185.807 283.172 184.863C283.035 180.572 281.837 171.445 275.548 157.293C275.542 157.271 275.545 157.247 275.555 157.227C275.564 157.207 275.582 157.191 275.602 157.181C275.623 157.172 275.646 157.17 275.668 157.177C275.69 157.183 275.709 157.196 275.721 157.216C281.14 169.408 282.787 177.887 283.229 182.768C283.875 157.463 282.492 148.802 282.476 148.712C282.476 148.69 282.485 148.668 282.499 148.65C282.514 148.633 282.534 148.622 282.556 148.619C282.579 148.615 282.602 148.619 282.621 148.63C282.641 148.641 282.656 148.659 282.663 148.68C282.679 148.777 284.141 157.922 283.361 184.877C283.419 186.785 283.276 187.744 283.271 187.774Z" fill="url(#paint0_linear)"/>
<path opacity="0.53" d="M284.558 185.585H284.546C284.522 185.581 284.499 185.568 284.484 185.549C284.469 185.529 284.461 185.505 284.464 185.48C284.472 185.416 285.343 179.033 293.287 171.037C293.305 171.024 293.327 171.017 293.35 171.019C293.372 171.021 293.394 171.032 293.409 171.047C293.425 171.063 293.435 171.084 293.438 171.106C293.44 171.128 293.434 171.151 293.422 171.17C285.528 179.116 284.66 185.437 284.649 185.503C284.646 185.525 284.635 185.545 284.618 185.56C284.602 185.575 284.581 185.584 284.558 185.585Z" fill="url(#paint1_linear)"/>
<path opacity="0.49" d="M282.166 180.097C282.166 180.097 279.701 165.183 273.277 166.322C266.852 167.46 277.08 177.643 282.166 180.097Z" fill="#00D569"/>
<path opacity="0.53" d="M283.451 185.081C283.427 185.081 283.403 185.073 283.385 185.056C283.367 185.04 283.356 185.017 283.354 184.993C283.354 184.93 282.817 178.57 275.353 170.217C275.343 170.209 275.333 170.198 275.327 170.185C275.32 170.172 275.316 170.159 275.316 170.144C275.316 170.131 275.318 170.116 275.324 170.104C275.33 170.09 275.338 170.079 275.348 170.07C275.359 170.06 275.371 170.053 275.385 170.05C275.398 170.045 275.413 170.044 275.426 170.046C275.441 170.049 275.454 170.053 275.466 170.061C275.477 170.069 275.487 170.079 275.495 170.091C283.004 178.496 283.538 184.916 283.542 184.98C283.542 185.004 283.534 185.027 283.517 185.046C283.501 185.064 283.478 185.075 283.454 185.077L283.451 185.081Z" fill="url(#paint2_linear)"/>
<path opacity="0.53" d="M284.05 190.528C284.05 190.407 284.05 190.249 284.05 190.058C284.176 179.719 286.331 168.094 291.674 148.85C291.683 148.83 291.7 148.812 291.721 148.804C291.741 148.794 291.765 148.792 291.787 148.798C291.809 148.804 291.828 148.818 291.841 148.836C291.854 148.856 291.86 148.878 291.857 148.901C286.98 166.465 284.762 177.675 284.318 187.351C285.163 181.054 288.063 167.618 294.543 159.318C294.559 159.303 294.581 159.293 294.604 159.292C294.627 159.291 294.65 159.299 294.667 159.312C294.685 159.327 294.698 159.346 294.703 159.369C294.708 159.391 294.704 159.415 294.693 159.435C287.032 169.245 284.396 186.253 284.239 190.044C284.239 190.204 284.239 190.365 284.239 190.526L284.05 190.528Z" fill="url(#paint3_linear)"/>
<path opacity="0.64" d="M277.65 194.077C277.65 194.866 280.566 195.506 284.162 195.506C287.759 195.506 290.673 194.866 290.673 194.077C290.673 193.287 287.758 192.647 284.162 192.647C280.566 192.647 277.65 193.284 277.65 194.077Z" fill="#C7D0E0"/>
<path opacity="0.53" d="M288.805 186.297C288.805 189.451 287.989 192.233 286.743 193.891H281.389C280.143 192.233 279.327 189.451 279.327 186.297C279.326 185.506 279.379 184.717 279.485 183.933H288.643C288.75 184.717 288.805 185.506 288.805 186.297Z" fill="#B9D2EA"/>
<path opacity="0.1" d="M288.805 186.297C288.805 189.451 287.989 192.233 286.743 193.891H281.389C280.143 192.233 279.327 189.451 279.327 186.297C279.326 185.506 279.379 184.717 279.485 183.933H288.643C288.75 184.717 288.805 185.506 288.805 186.297Z" fill="#8BB2CC"/>
<path opacity="0.53" d="M278.05 183.789L289.956 183.571L290.095 185.748L278.12 186.038L278.05 183.789Z" fill="#B9D2EA"/>
</g>
</g>
<defs>
<linearGradient id="paint0_linear" x1="30865.3" y1="78803" x2="31537.2" y2="78803" gradientUnits="userSpaceOnUse">
<stop stop-color="#F3F6FD" stop-opacity="0"/>
<stop offset="0.98" stop-color="#E2EEFA"/>
</linearGradient>
<linearGradient id="paint1_linear" x1="35238.6" y1="30954.8" x2="36075.1" y2="30954.8" gradientUnits="userSpaceOnUse">
<stop stop-color="#F3F6FD" stop-opacity="0"/>
<stop offset="0.98" stop-color="#E2EEFA"/>
</linearGradient>
<linearGradient id="paint2_linear" x1="31535.2" y1="31836.2" x2="32236.1" y2="31836.2" gradientUnits="userSpaceOnUse">
<stop stop-color="#F3F6FD" stop-opacity="0"/>
<stop offset="0.98" stop-color="#E2EEFA"/>
</linearGradient>
<linearGradient id="paint3_linear" x1="41735.6" y1="84612.4" x2="42914.8" y2="84612.4" gradientUnits="userSpaceOnUse">
<stop stop-color="#F3F6FD" stop-opacity="0"/>
<stop offset="0.98" stop-color="#E2EEFA"/>
</linearGradient>
<clipPath id="clip0">
<rect width="300" height="200.321" fill="white"/>
</clipPath>
</defs>
</svg>
