<svg width="608" height="126" viewBox="0 0 608 126" fill="none" xmlns="http://www.w3.org/2000/svg">
<g opacity="0.03">
<path d="M359.835 38.6458C362.872 26.8964 361.539 17.7617 355.951 12.1737C351.838 8.06032 345.865 6.25398 338.198 6.80065C331.411 7.28599 323.601 9.60344 314.978 13.6799C311.836 13.2591 308.67 13.0476 305.5 13.0468C286.815 13.0468 268.895 20.4696 255.682 33.6821C242.47 46.8946 235.047 64.8146 235.047 83.5C235.048 86.6698 235.259 89.8361 235.68 92.9779C231.603 101.601 229.287 109.411 228.801 116.197C228.253 123.864 230.06 129.838 234.174 133.951C237.812 137.589 242.952 139.424 249.341 139.424C253.161 139.369 256.958 138.835 260.645 137.833C274.16 148.991 291.349 154.71 308.855 153.875C326.361 153.041 342.927 145.712 355.32 133.319C367.713 120.927 375.042 104.361 375.877 86.8548C376.712 69.349 370.993 52.1603 359.836 38.6445L359.835 38.6458ZM338.569 12.0064C344.658 11.5716 349.265 12.8688 352.26 15.864C354.935 18.5386 357.46 23.79 355.552 33.9228C355.473 33.8429 355.396 33.7617 355.317 33.6821C346.66 24.9848 335.87 18.7144 324.028 15.4987C329.357 13.5035 334.293 12.312 338.57 12.0064H338.569ZM294.503 19.1975L292.515 28.1369C292.375 28.7671 292.474 29.4268 292.792 29.9886C293.11 30.5504 293.625 30.9743 294.237 31.1784L308.656 35.9849L310.853 42.5736C311.036 43.1239 311.398 43.5975 311.881 43.9193L318.179 48.1182L316.248 55.8406L300.23 67.2824L293.961 63.1028L283.581 55.3187C283.079 54.9418 282.457 54.7589 281.831 54.8034C281.204 54.8479 280.615 55.1169 280.171 55.5611L272.342 63.3892C272.1 63.6315 271.908 63.9192 271.777 64.2358C271.646 64.5524 271.578 64.8917 271.578 65.2344V77.2003L267.501 81.2774L254.952 86.2972C254.462 86.4933 254.042 86.8333 253.75 87.2725L248.531 95.1006C248.246 95.529 248.094 96.0322 248.094 96.5469V108.289L245.876 109.953C242.168 101.627 240.256 92.6137 240.266 83.5C240.266 51.2775 263.75 24.4407 294.503 19.1975H294.503ZM237.864 130.261C234.869 127.266 233.571 122.66 234.006 116.57C234.312 112.292 235.504 107.357 237.499 102.029C240.715 113.871 246.985 124.661 255.682 133.318C255.762 133.397 255.843 133.474 255.923 133.553C245.79 135.461 240.539 132.936 237.864 130.261ZM270.893 123.431L266.886 117.422L270.996 111.257L275.733 106.521L284.437 102.168L291.005 106.547C291.434 106.833 291.938 106.985 292.453 106.984H296.591L300.08 110.474C291.675 117.114 283.198 122.608 275.166 126.638L270.893 123.431ZM303.792 114.184L306.266 116.658C306.584 116.976 306.98 117.207 307.415 117.327C307.849 117.447 308.307 117.452 308.745 117.343L316.838 115.32L318.406 120.031L316.484 125.796L309.895 127.993C309.375 128.166 308.923 128.498 308.603 128.943C308.282 129.387 308.11 129.921 308.109 130.469V136.901L301.443 141.345C300.903 141.705 300.517 142.253 300.359 142.882L298.977 148.408C295.679 148.08 292.411 147.5 289.202 146.672L287.209 132.708C287.12 132.087 286.809 131.518 286.335 131.106C285.86 130.695 285.253 130.469 284.625 130.469H280.276L279.797 130.11C287.613 125.968 295.752 120.571 303.79 114.184H303.792ZM277.841 135.166C278.292 135.504 278.842 135.687 279.406 135.687H282.362L283.688 144.979C277.628 142.821 271.92 139.776 266.752 135.945C269.296 135.034 271.903 133.957 274.572 132.713L277.841 135.166ZM304.279 148.719L305.177 145.127L312.166 140.468C312.524 140.23 312.817 139.907 313.019 139.528C313.222 139.149 313.328 138.726 313.328 138.297V132.349L319.372 130.335C319.756 130.207 320.106 129.991 320.392 129.704C320.678 129.418 320.894 129.069 321.022 128.685L323.632 120.856C323.81 120.321 323.81 119.742 323.632 119.206L321.022 111.378C320.814 110.754 320.379 110.232 319.803 109.916C319.226 109.599 318.552 109.512 317.914 109.672L308.91 111.922L307.851 110.864C310.287 108.817 312.703 106.686 315.101 104.471L311.555 100.642C309.109 102.907 306.64 105.08 304.148 107.162L299.516 102.53C299.027 102.041 298.364 101.766 297.672 101.766H293.243L286.073 96.9852C285.69 96.73 285.246 96.5804 284.787 96.5518C284.328 96.5232 283.87 96.6164 283.458 96.8221L273.021 102.041C272.77 102.166 272.541 102.332 272.342 102.53L267.124 107.749C267.002 107.87 266.893 108.004 266.798 108.147L261.579 115.975C261.293 116.403 261.14 116.907 261.14 117.422C261.14 117.937 261.293 118.441 261.579 118.87L266.798 126.698C266.962 126.944 267.167 127.16 267.403 127.337L269.804 129.138C267.246 130.246 264.631 131.215 261.969 132.041C256.442 127.083 251.797 121.223 248.23 114.711L252.269 111.681C252.593 111.438 252.856 111.123 253.037 110.761C253.218 110.398 253.313 109.999 253.313 109.594V97.3368L257.643 90.8405L269.938 85.9228C270.266 85.7915 270.564 85.595 270.814 85.3451L276.033 80.1264C276.275 79.8841 276.467 79.5964 276.598 79.2798C276.729 78.9632 276.797 78.6239 276.797 78.2812V66.315L282.26 60.8516L290.888 67.3218C290.926 67.3508 290.965 67.3786 291.006 67.4054L298.834 72.6241C299.274 72.9179 299.794 73.0707 300.323 73.0621C300.853 73.0536 301.367 72.8843 301.798 72.5765L320.064 59.5296C320.568 59.1691 320.928 58.6407 321.078 58.039L323.688 47.6015C323.819 47.0792 323.785 46.5293 323.591 46.0271C323.396 45.5249 323.052 45.095 322.604 44.7964L315.521 40.0741L313.194 33.094C313.066 32.7098 312.85 32.3606 312.564 32.0742C312.277 31.7878 311.928 31.572 311.544 31.4439L298.12 26.9718L300.004 18.4995C301.817 18.3475 303.649 18.2656 305.5 18.2656C314.663 18.2625 323.723 20.1941 332.087 23.9339C340.452 27.6737 347.933 33.1375 354.04 39.9678C352.032 46.5307 348.713 53.6928 344.157 61.2821L348.632 63.9678C352.67 57.2389 355.789 50.7983 357.946 44.753C364.227 53.2164 368.353 63.082 369.967 73.4973L361.541 78.6664C360.959 79.0237 360.54 79.595 360.374 80.2578L355.502 99.7433L341.206 104.509C340.687 104.682 340.235 105.014 339.915 105.459C339.594 105.903 339.422 106.437 339.422 106.984V121.56L334.967 126.014C334.563 126.419 334.302 126.946 334.226 127.513C334.15 128.08 334.263 128.657 334.547 129.154L340.059 138.802C329.706 145.305 317.726 148.748 305.5 148.734C305.092 148.734 304.685 148.726 304.279 148.719ZM344.382 135.848L340.067 128.295L343.876 124.486C344.119 124.243 344.311 123.956 344.442 123.639C344.573 123.323 344.641 122.983 344.641 122.641V108.865L358.513 104.241C358.929 104.102 359.304 103.86 359.602 103.538C359.9 103.216 360.113 102.824 360.219 102.398L365.179 82.5573L370.592 79.2372C370.683 80.647 370.734 82.0674 370.734 83.5C370.734 93.6771 368.35 103.713 363.774 112.803C359.198 121.893 352.557 129.785 344.382 135.848Z" fill="#287AF5"/>
<path d="M352.469 93.9373V73.0623C352.469 72.4953 352.284 71.9438 351.943 71.4911C351.602 71.0385 351.122 70.7093 350.577 70.5534L332.311 65.3346C331.842 65.2003 331.345 65.2003 330.876 65.3346L312.611 70.5534C312.065 70.7093 311.586 71.0385 311.245 71.4911C310.903 71.9438 310.719 72.4953 310.719 73.0623V93.9373C310.719 94.5042 310.903 95.0557 311.245 95.5084C311.586 95.9611 312.065 96.2903 312.611 96.4462L330.876 101.665C331.345 101.799 331.842 101.799 332.311 101.665L350.577 96.4462C351.122 96.2903 351.602 95.9611 351.943 95.5084C352.284 95.0557 352.469 94.5042 352.469 93.9373ZM331.594 70.5573L340.361 73.0623L331.594 75.5673L322.827 73.0623L331.594 70.5573ZM315.938 76.5217L328.984 80.2495V95.6967L315.938 91.9692V76.5217ZM334.203 95.6967V80.2495L347.25 76.5217V91.9692L334.203 95.6967Z" fill="#287AF5"/>
<path d="M302.891 49.5781H308.109V54.7969H302.891V49.5781Z" fill="#287AF5"/>
<path d="M268.969 39.1406H274.188V44.3594H268.969V39.1406Z" fill="#287AF5"/>
<path d="M255.922 70.4531H261.141V75.6719H255.922V70.4531Z" fill="#287AF5"/>
<path d="M279.406 109.594H284.625V114.812H279.406V109.594Z" fill="#287AF5"/>
<path d="M349.859 112.203H355.078V117.422H349.859V112.203Z" fill="#287AF5"/>
</g>
<g opacity="0.04" clip-path="url(#clip0)">
<path d="M121.444 113.388C120.518 112.612 119.138 112.734 118.363 113.66L112.893 120.191L110.916 118.516C109.994 117.735 108.614 117.849 107.833 118.771C107.052 119.692 107.166 121.073 108.088 121.854L111.743 124.951C112.14 125.287 112.642 125.469 113.157 125.469C113.219 125.469 113.282 125.466 113.344 125.461C113.924 125.411 114.461 125.133 114.834 124.686L121.717 116.469C122.492 115.543 122.37 114.164 121.444 113.388Z" fill="#287AF5"/>
<path d="M204.367 79.649H201.223C198.59 79.5274 196.472 77.2845 194.022 74.6893C192.385 72.9553 190.632 71.0985 188.52 69.7223V51.0227C188.52 47.729 185.84 45.0493 182.547 45.0493H111.196C107.903 45.0493 105.223 47.729 105.223 51.0227V66.197C105.223 67.4051 106.202 68.3845 107.411 68.3845C108.619 68.3845 109.598 67.4051 109.598 66.197V51.0227C109.598 50.1565 110.33 49.4243 111.196 49.4243H135.403V68.7787C135.403 69.5738 135.834 70.3064 136.53 70.6921C136.86 70.8752 137.225 70.9662 137.59 70.9662C137.993 70.9662 138.396 70.8548 138.75 70.6337L146.874 65.5558L154.993 70.6334C155.667 71.055 156.517 71.0777 157.213 70.6923C157.909 70.3068 158.34 69.5743 158.34 68.7789V49.4243H182.547C183.413 49.4243 184.145 50.1563 184.145 51.0227V67.8678C183.434 67.7188 182.687 67.6293 181.897 67.6153C181.884 67.6151 181.871 67.6151 181.858 67.6151H176.316H172.012H169.533C169.522 67.6151 169.51 67.6151 169.499 67.6153C166.862 67.6563 165.507 68.8517 164.835 69.8473C163.791 71.3925 163.694 73.4853 164.561 75.7378C164.763 76.2636 165.009 76.7611 165.293 77.2285H148.705C145.141 77.2285 142.242 80.1281 142.242 83.6919C142.242 84.4248 142.364 85.1296 142.589 85.7867H142.009C138.445 85.7867 135.545 88.6862 135.545 92.2503C135.545 95.8144 138.445 98.7139 142.009 98.7139H142.588C142.364 99.3693 142.242 100.072 142.242 100.803C142.242 104.255 144.957 107.084 148.362 107.263C148.136 107.921 148.013 108.627 148.013 109.361C148.013 112.925 150.913 115.825 154.477 115.825H181.578C182.512 115.825 183.361 115.71 184.145 115.515V122.369C184.145 123.239 183.413 123.973 182.546 123.973H131.877C132.306 122.445 132.541 120.836 132.541 119.173C132.541 109.374 124.569 101.402 114.77 101.402C112.971 101.402 111.235 101.672 109.597 102.172V85.8641C109.597 84.656 108.618 83.6766 107.41 83.6766C106.202 83.6766 105.222 84.656 105.222 85.8641V104.196C100.284 107.357 97 112.887 97 119.173C97 128.976 104.972 136.951 114.771 136.951C121.216 136.951 126.87 133.5 129.986 128.349H182.547C185.84 128.349 188.52 125.666 188.52 122.369V113.363C189.003 113.018 189.465 112.663 189.913 112.318C191.845 110.83 193.513 109.544 196.169 109.544H204.368C206.922 109.544 209 107.469 209 104.917V84.2819C209 81.7271 206.922 79.649 204.367 79.649ZM153.965 64.8304L148.035 61.1211C147.325 60.6777 146.425 60.6775 145.715 61.1209L139.778 64.8318V49.4243H153.965V64.8304ZM114.771 132.576C107.384 132.576 101.375 126.563 101.375 119.173C101.375 111.786 107.384 105.777 114.771 105.777C122.157 105.777 128.167 111.786 128.167 119.173C128.167 126.563 122.157 132.576 114.771 132.576ZM204.625 104.917C204.625 105.052 204.505 105.169 204.367 105.169H196.169C192.022 105.169 189.483 107.126 187.242 108.853C185.359 110.304 183.872 111.45 181.579 111.45H154.477C153.326 111.45 152.389 110.513 152.389 109.361C152.389 108.209 153.326 107.273 154.477 107.273H161.738C162.946 107.273 163.926 106.293 163.926 105.085C163.926 103.877 162.946 102.898 161.738 102.898H148.705C147.554 102.898 146.617 101.958 146.617 100.803C146.617 99.6511 147.554 98.7142 148.705 98.7142H161.738C162.946 98.7142 163.926 97.7348 163.926 96.5267C163.926 95.3185 162.946 94.3392 161.738 94.3392H142.009C140.858 94.3392 139.921 93.4023 139.921 92.2505C139.921 91.0988 140.858 90.1619 142.009 90.1619H161.738C162.946 90.1619 163.926 89.1826 163.926 87.9744C163.926 86.7663 162.946 85.7869 161.738 85.7869H148.705C147.554 85.7869 146.617 84.8472 146.617 83.6922C146.617 82.5404 147.554 81.6038 148.705 81.6038H173.114H177.861H181.033C182.241 81.6038 183.22 80.6244 183.22 79.4163C183.22 78.2081 182.241 77.2288 181.033 77.2288H177.861H173.114C171.113 77.2288 169.359 76.028 168.645 74.1682C168.229 73.0872 168.342 72.4707 168.461 72.2957C168.579 72.1203 169.006 72.0006 169.551 71.9903H176.316H181.838C185.527 72.0641 188.108 74.7984 190.842 77.6929C193.701 80.7211 196.657 83.8523 201.094 84.0225C201.122 84.0236 201.15 84.024 201.178 84.024H204.368C204.507 84.024 204.625 84.1421 204.625 84.2817V104.917H204.625Z" fill="#287AF5"/>
<path d="M107.41 78.2212C108.618 78.2212 109.598 77.2357 109.598 76.0276C109.598 74.8194 108.618 73.8401 107.41 73.8401C106.202 73.8401 105.223 74.8194 105.223 76.0276V76.0401C105.223 77.248 106.202 78.2212 107.41 78.2212Z" fill="#287AF5"/>
</g>
<g opacity="0.03">
<path d="M506.69 86.6756L490.102 68.137C487.536 65.2702 483.859 63.6249 480.011 63.6249H465.161L466.566 50.9797C466.821 48.6858 466.083 46.3823 464.543 44.6639C463.004 42.9454 460.798 41.9583 458.49 41.9583H402.25C400.755 41.9583 399.542 43.1716 399.542 44.6666C399.542 46.1616 400.755 47.3749 402.25 47.3749H458.49C459.27 47.3749 459.987 47.6945 460.508 48.2768C461.028 48.8591 461.269 49.6052 461.182 50.3825L453.993 115.083H439.019C438.954 111.828 437.869 108.82 435.84 106.402C433.209 103.267 429.343 101.542 424.952 101.542C416.994 101.542 409.369 107.442 406.926 115.083H394.125C392.63 115.083 391.417 116.297 391.417 117.792C391.417 119.287 392.63 120.5 394.125 120.5H406.107C406.172 123.755 407.257 126.763 409.285 129.182C411.916 132.316 415.783 134.042 420.174 134.042C428.131 134.042 435.756 128.142 438.199 120.5H464.336C464.401 123.755 465.486 126.763 467.514 129.182C470.146 132.316 474.012 134.042 478.403 134.042C486.36 134.042 493.986 128.142 496.429 120.5H500.291C504.461 120.5 507.935 117.372 508.371 113.225L510.066 97.123C510.466 93.3299 509.235 89.522 506.69 86.6756ZM433.437 117.32C432.339 123.555 426.388 128.625 420.174 128.625C417.412 128.625 415.017 127.585 413.434 125.7C411.804 123.757 411.184 121.116 411.688 118.263C412.787 112.028 418.737 106.958 424.952 106.958C427.714 106.958 430.108 107.998 431.691 109.883C433.32 111.826 433.941 114.467 433.437 117.32ZM491.666 117.32C490.568 123.555 484.618 128.625 478.403 128.625C475.641 128.625 473.247 127.585 471.664 125.7C470.033 123.757 469.413 121.116 469.917 118.263C471.016 112.028 476.966 106.958 483.181 106.958C485.943 106.958 488.337 107.998 489.92 109.883C491.549 111.826 492.17 114.467 491.666 117.32ZM504.679 96.5569L502.984 112.659C502.838 114.041 501.681 115.083 500.291 115.083H497.248C497.183 111.828 496.098 108.82 494.07 106.402C491.438 103.267 487.572 101.542 483.181 101.542C475.224 101.542 467.598 107.442 465.155 115.083H459.442L464.56 69.0416H480.011C482.319 69.0416 484.527 70.0288 486.066 71.7499L502.655 90.2871C504.18 91.9947 504.918 94.2806 504.679 96.5569ZM481.435 75.3358C480.922 74.7765 480.198 74.4583 479.438 74.4583H472.667C471.259 74.4583 470.086 75.5375 469.968 76.9418L468.614 93.1918C468.552 93.9474 468.808 94.6922 469.319 95.2515C469.833 95.8081 470.554 96.1249 471.313 96.1249H494.334C495.408 96.1249 496.381 95.4898 496.813 94.5081C497.245 93.5236 497.056 92.3793 496.331 91.5871L481.435 75.3358ZM474.257 90.7083L475.159 79.8749H478.246L488.176 90.7083H474.257ZM442.875 63.6249H423.917C422.422 63.6249 421.209 62.4116 421.209 60.9166C421.209 59.4216 422.422 58.2083 423.917 58.2083H442.875C444.37 58.2083 445.584 59.4216 445.584 60.9166C445.584 62.4116 444.37 63.6249 442.875 63.6249ZM407.667 63.6249C406.172 63.6249 404.959 62.4116 404.959 60.9166C404.959 59.4216 406.172 58.2083 407.667 58.2083H413.084C414.579 58.2083 415.792 59.4216 415.792 60.9166C415.792 62.4116 414.579 63.6249 413.084 63.6249H407.667ZM437.459 74.4583C438.954 74.4583 440.167 75.6716 440.167 77.1666C440.167 78.6616 438.954 79.8749 437.459 79.8749H432.042C430.547 79.8749 429.334 78.6616 429.334 77.1666C429.334 75.6716 430.547 74.4583 432.042 74.4583H437.459ZM402.25 74.4583H421.209C422.704 74.4583 423.917 75.6716 423.917 77.1666C423.917 78.6616 422.704 79.8749 421.209 79.8749H402.25C400.755 79.8749 399.542 78.6616 399.542 77.1666C399.542 75.6716 400.755 74.4583 402.25 74.4583ZM394.125 93.4166C394.125 91.9216 395.339 90.7083 396.834 90.7083H432.042C433.537 90.7083 434.75 91.9216 434.75 93.4166C434.75 94.9116 433.537 96.1249 432.042 96.1249H396.834C395.339 96.1249 394.125 94.9116 394.125 93.4166ZM463.188 131.333C463.188 132.828 461.974 134.042 460.479 134.042H448.292C446.797 134.042 445.584 132.828 445.584 131.333C445.584 129.838 446.797 128.625 448.292 128.625H460.479C461.974 128.625 463.188 129.838 463.188 131.333ZM404.959 131.333C404.959 132.828 403.745 134.042 402.25 134.042H395.479C393.984 134.042 392.771 132.828 392.771 131.333C392.771 129.838 393.984 128.625 395.479 128.625H402.25C403.745 128.625 404.959 129.838 404.959 131.333Z" fill="#287AF5"/>
</g>
<g opacity="0.03">
<path d="M595.989 109.759C595.715 109.897 595.49 110.12 595.354 110.394L587.778 125.544C587.548 126.005 587.006 126.231 586.515 126.066C585.985 125.89 585.689 125.33 585.843 124.792L588.038 117.108C588.2 116.541 587.995 115.933 587.522 115.578C587.048 115.226 586.406 115.2 585.908 115.519L573.329 123.524C572.879 123.81 572.351 123.888 571.84 123.746C571.33 123.604 570.917 123.265 570.68 122.79C570.279 121.99 570.508 121.02 571.224 120.483L580.415 113.591C580.953 113.188 581.135 112.463 580.852 111.853C580.569 111.243 579.896 110.916 579.244 111.067L564.367 114.499C563.791 114.634 563.197 114.529 562.7 114.209C562.201 113.886 561.864 113.39 561.748 112.809C561.516 111.65 562.268 110.505 563.424 110.256L579.862 106.733C580.526 106.591 580.997 105.999 580.987 105.321C580.976 104.641 580.487 104.066 579.82 103.945L567.981 101.792C567.348 101.677 566.802 101.32 566.441 100.788C566.08 100.258 565.951 99.6179 566.077 98.988C566.315 97.8036 567.398 96.9789 568.602 97.087L582.291 98.2273C582.833 98.2871 583.371 97.9956 583.646 97.5136C583.919 97.0315 583.888 96.4343 583.566 95.985L578.122 88.3652C577.562 87.5818 577.65 86.5182 578.331 85.8371C579.058 85.1105 580.235 85.0693 581.01 85.7475L590.002 93.6162C590.404 93.966 590.967 94.0627 591.466 93.8664L605.685 88.1789L604.629 85.5385L591.219 90.9018L589.176 89.1145L584.053 61.4491L584.04 61.452C584.007 61.2714 583.952 61.0936 583.848 60.933C583.535 60.451 582.966 60.2064 582.396 60.3102L534.86 69.1102C534.489 69.1799 534.16 69.3917 533.947 69.7031L524.833 82.9578C524.62 83.2692 524.537 83.6503 524.607 84.0214L528.659 105.917L520.371 102.602L519.315 105.243L533.533 110.93C534.034 111.129 534.597 111.031 534.998 110.68L543.99 102.811C544.763 102.133 545.942 102.173 546.669 102.901C547.35 103.582 547.439 104.647 546.878 105.429L541.435 113.049C541.113 113.498 541.082 114.095 541.355 114.577C541.628 115.059 542.16 115.348 542.71 115.291L556.399 114.151C557.609 114.056 558.688 114.869 558.924 116.052C559.049 116.68 558.921 117.322 558.56 117.852C558.199 118.384 557.653 118.741 557.02 118.856L545.181 121.009C544.513 121.129 544.025 121.705 544.014 122.385C544.004 123.065 544.475 123.656 545.139 123.797L561.577 127.32C562.733 127.569 563.485 128.712 563.253 129.873C563.137 130.454 562.798 130.952 562.301 131.273C561.803 131.593 561.212 131.698 560.633 131.563L545.757 128.131C545.106 127.981 544.432 128.307 544.149 128.917C543.866 129.527 544.047 130.251 544.584 130.653L553.775 137.546C554.49 138.084 554.721 139.055 554.32 139.854C554.082 140.329 553.67 140.667 553.159 140.81C552.646 140.95 552.119 140.874 551.672 140.588L539.091 132.583C538.555 132.243 537.852 132.298 537.375 132.728C536.902 133.156 536.771 133.847 537.055 134.418L539.899 140.106C540.333 140.972 539.98 142.031 539.113 142.463C538.695 142.672 538.218 142.706 537.772 142.559C537.327 142.411 536.966 142.098 536.755 141.677L529.646 127.458C529.508 127.184 529.285 126.959 529.01 126.823L520.479 122.557L519.207 125.101L527.314 129.155L534.212 142.95C534.762 144.049 535.706 144.869 536.872 145.257C537.35 145.417 537.842 145.496 538.331 145.496C539.036 145.496 539.736 145.331 540.385 145.007C542.653 143.871 543.577 141.103 542.443 138.833L541.894 137.737L550.144 142.985C551.264 143.697 552.639 143.904 553.917 143.548C555.196 143.194 556.269 142.31 556.862 141.124C557.877 139.092 557.296 136.631 555.48 135.27L551.669 132.412L559.993 134.333C561.324 134.64 562.692 134.401 563.842 133.66C564.992 132.918 565.773 131.771 566.042 130.429C566.542 127.923 565.042 125.47 562.66 124.696L567.997 123.707C568.044 123.825 568.079 123.946 568.136 124.063C568.729 125.249 569.803 126.133 571.081 126.487C572.358 126.84 573.734 126.635 574.854 125.924L584.274 119.929L583.108 124.013C582.535 126.019 583.637 128.108 585.615 128.766C586.016 128.901 586.427 128.965 586.832 128.965C588.271 128.965 589.65 128.161 590.322 126.818L597.684 112.092L605.792 108.038L604.519 105.495L595.989 109.759ZM572.702 73.6716L558.48 76.3049L565.315 66.3645L579.537 63.7312L572.702 73.6716ZM547.296 78.3751L554.131 68.4348L561.361 67.0954L554.526 77.0357L547.296 78.3751ZM554.226 79.9833L557.072 95.3623L548.685 96.9164L545.837 81.5359L554.226 79.9833ZM535.956 71.7989L550.176 69.1656L543.341 79.106L529.121 81.7393L535.956 71.7989ZM542.119 100.67L533.782 107.966L531.783 107.167L527.661 84.9015L543.04 82.0549L546.147 98.8316C546.219 99.2241 546.455 99.534 546.761 99.7402C545.2 99.2369 543.428 99.5255 542.119 100.67ZM556.164 111.319L545.535 112.203L549.194 107.08C550.565 105.162 550.35 102.557 548.682 100.889C548.282 100.49 547.822 100.187 547.334 99.9578C547.405 99.9691 547.471 99.9947 547.545 99.9947C547.63 99.9947 547.718 99.9876 547.805 99.9706L558.989 97.9003C559.36 97.8306 559.689 97.6188 559.902 97.3074C560.115 96.996 560.198 96.6149 560.128 96.2438L557.023 79.4657L572.402 76.6191L573.029 80.0089L575.826 79.4927L575.046 75.284L581.881 65.3422L585.723 86.0959L582.881 83.609C580.984 81.9511 578.102 82.045 576.318 83.828C574.65 85.4973 574.435 88.1022 575.806 90.0189L579.464 95.1419L568.836 94.2575C566.187 94.0342 563.806 95.8301 563.285 98.4335C563.007 99.817 563.292 101.222 564.085 102.389C564.879 103.557 566.08 104.339 567.469 104.592L572.242 105.459L562.825 107.478C560.671 107.94 559.148 109.757 558.915 111.847C558.088 111.435 557.145 111.237 556.164 111.319ZM567.775 120.856L555.553 123.12L552.757 122.52L557.53 121.653C558.92 121.4 560.121 120.618 560.913 119.45C561.432 118.685 561.709 117.815 561.777 116.918C562.784 117.386 563.905 117.524 565.004 117.271L573.327 115.35L569.517 118.208C568.62 118.883 568.025 119.828 567.775 120.856Z" fill="#287AF5"/>
<path d="M526.953 69.7969H529.797C529.797 65.8768 532.986 62.6875 536.906 62.6875H538.328V59.8438H536.906C531.418 59.8438 526.953 64.3099 526.953 69.7969Z" fill="#287AF5"/>
</g>
<g opacity="0.03">
<path d="M58.3184 108.155C58.2521 107.851 58.0678 107.585 57.8058 107.416C57.5439 107.247 57.2257 107.189 56.921 107.254L54.775 107.717C54.6224 107.748 54.4774 107.809 54.3485 107.896C54.2195 107.984 54.1093 108.096 54.024 108.226C53.9387 108.356 53.8802 108.502 53.8518 108.655C53.8234 108.808 53.8256 108.966 53.8585 109.118C53.8913 109.27 53.954 109.414 54.043 109.542C54.132 109.67 54.2455 109.778 54.3769 109.862C54.5083 109.946 54.655 110.002 54.8085 110.029C54.9619 110.055 55.1191 110.051 55.2708 110.016L57.4175 109.553C57.7223 109.487 57.9884 109.303 58.1574 109.041C58.3263 108.779 58.3843 108.46 58.3184 108.155Z" fill="#287AF5"/>
<path d="M50.6834 108.599L44.734 109.883C44.5814 109.914 44.4364 109.974 44.3075 110.062C44.1785 110.149 44.0682 110.261 43.983 110.391C43.8977 110.522 43.8392 110.668 43.8108 110.821C43.7823 110.974 43.7846 111.131 43.8175 111.283C43.8503 111.435 43.913 111.58 44.002 111.707C44.091 111.835 44.2045 111.944 44.3359 112.027C44.4673 112.111 44.614 112.168 44.7674 112.194C44.9209 112.22 45.0781 112.216 45.2298 112.181L51.1793 110.898C51.4806 110.829 51.7425 110.644 51.9084 110.383C52.0743 110.122 52.1308 109.806 52.0656 109.504C52.0004 109.202 51.8188 108.937 51.5601 108.768C51.3014 108.599 50.9865 108.538 50.6834 108.599Z" fill="#287AF5"/>
<path d="M32.0776 116.656C30.6452 116.965 29.3364 117.691 28.3169 118.743C27.2973 119.796 26.6128 121.127 26.3498 122.568C26.0868 124.01 26.2572 125.497 26.8394 126.841C27.4216 128.186 28.3895 129.328 29.6207 130.122C30.8518 130.917 32.2909 131.328 33.756 131.305C35.2211 131.282 36.6463 130.824 37.8515 129.991C39.0566 129.157 39.9875 127.985 40.5264 126.623C41.0654 125.26 41.1881 123.768 40.8792 122.336C40.4632 120.417 39.3029 118.741 37.6529 117.676C36.0028 116.611 33.9978 116.244 32.0776 116.656ZM34.7053 128.839C33.7277 129.05 32.7095 128.966 31.7795 128.599C30.8494 128.231 30.0493 127.596 29.4803 126.773C28.9112 125.951 28.5989 124.978 28.5827 123.978C28.5665 122.978 28.8472 121.996 29.3893 121.156C29.9314 120.315 30.7105 119.654 31.6282 119.257C32.5458 118.859 33.5608 118.742 34.5447 118.922C35.5286 119.101 36.4373 119.568 37.1558 120.263C37.8743 120.959 38.3704 121.852 38.5813 122.83C38.8623 124.141 38.6121 125.509 37.8855 126.636C37.1589 127.762 36.0152 128.555 34.7053 128.839Z" fill="#287AF5"/>
<path d="M82.9092 113.271L81.9061 108.619C81.8735 108.468 81.8116 108.325 81.7237 108.198C81.6359 108.071 81.5239 107.962 81.3941 107.879C81.2643 107.795 81.1193 107.738 80.9674 107.71C80.8154 107.682 80.6595 107.685 80.5086 107.717L76.0789 108.673L68.1568 71.9313C68.0908 71.6267 67.9066 71.3608 67.6447 71.1919C67.3829 71.023 67.0647 70.9648 66.76 71.0303L43.2014 76.1097L30.0178 78.9531L25.7124 58.9896C25.6557 58.7269 25.5106 58.4916 25.3015 58.3228C25.0923 58.1539 24.8316 58.0618 24.5629 58.0618H4.2373C4.08287 58.0617 3.92994 58.092 3.78725 58.1511C3.64456 58.2101 3.5149 58.2968 3.40571 58.4059C3.29651 58.5151 3.2099 58.6448 3.15084 58.7875C3.09179 58.9302 3.06144 59.0831 3.06152 59.2375V63.9964C3.06152 64.3083 3.1854 64.6073 3.4059 64.8278C3.6264 65.0483 3.92547 65.1722 4.2373 65.1722H19.7717L29.5428 110.481C26.9829 111.261 24.6994 112.756 22.9614 114.791C21.2234 116.826 20.1034 119.315 19.7335 121.965C19.3636 124.616 19.7592 127.317 20.8737 129.75C21.9881 132.182 23.775 134.246 26.0235 135.697C28.2721 137.148 30.8886 137.926 33.5646 137.938C36.2406 137.951 38.8645 137.199 41.1269 135.77C43.3894 134.341 45.196 132.294 46.3339 129.872C47.4717 127.45 47.8934 124.753 47.5491 122.1L82.0075 114.668C82.3123 114.602 82.5785 114.418 82.7476 114.156C82.9167 113.894 82.9748 113.576 82.9092 113.271ZM36.7628 110.228L32.5857 90.8688L44.6204 88.2733L46.3867 96.4547C46.435 96.6799 46.5485 96.8859 46.713 97.0471C46.8775 97.2082 47.0858 97.3174 47.3119 97.3611C47.3856 97.3755 47.4605 97.3827 47.5356 97.3826C47.7279 97.3825 47.9173 97.3354 48.0871 97.2452C48.257 97.155 48.4021 97.0245 48.5098 96.8652L51.6717 92.189L56.1014 95.1882C56.2956 95.3197 56.5247 95.39 56.7593 95.3902C56.9938 95.3904 57.223 95.3204 57.4175 95.1893C57.612 95.0582 57.7628 94.8719 57.8505 94.6544C57.9383 94.4369 57.959 94.1981 57.91 93.9688L56.1457 85.7874L68.1803 83.1919L73.7831 109.169L44.8071 115.417C42.8123 112.803 39.967 110.968 36.7628 110.228ZM51.7731 76.6667L53.5993 85.1323L54.9934 91.5957L52.0157 89.5801C51.7573 89.4053 51.4401 89.3404 51.1338 89.3995C50.8275 89.4586 50.5572 89.6369 50.3824 89.8952L48.106 93.2647L44.8468 78.1602L51.7731 76.6667ZM67.6845 80.8934L55.6499 83.4875L54.0716 76.1708L66.1062 73.5754L67.6845 80.8934ZM42.5483 78.6561L44.1265 85.9735L32.0919 88.5703L30.5137 81.2515L42.5483 78.6561ZM20.7204 62.8207H5.41309V60.4133H23.6135L27.9666 80.5985L34.2822 109.887C33.4667 109.847 32.6492 109.88 31.8393 109.983L21.87 63.7485C21.8133 63.4857 21.6683 63.2503 21.4591 63.0815C21.2499 62.9127 20.9892 62.8206 20.7204 62.8207ZM36.1064 135.322C33.846 135.811 31.4915 135.618 29.3406 134.769C27.1897 133.919 25.3391 132.451 24.0229 130.549C22.7067 128.648 21.984 126.399 21.9462 124.086C21.9085 121.774 22.5574 119.503 23.8108 117.559C25.0643 115.616 26.8659 114.088 28.988 113.168C31.11 112.249 33.457 111.98 35.732 112.394C38.0071 112.809 40.1081 113.889 41.7692 115.498C43.4302 117.107 44.5768 119.173 45.0638 121.434C45.7131 124.463 45.1344 127.627 43.4546 130.23C41.7748 132.834 39.131 134.665 36.103 135.322H36.1064ZM47.0579 119.802C46.8183 119.021 46.5105 118.263 46.1381 117.537L79.8589 110.264L80.3668 112.616L47.0579 119.802Z" fill="#287AF5"/>
</g>
<defs>
<clipPath id="clip0">
<rect width="112" height="112" fill="white" transform="translate(97 35)"/>
</clipPath>
</defs>
</svg>
