<svg width="22" height="22" viewBox="0 0 22 22" fill="none" xmlns="http://www.w3.org/2000/svg">
<circle opacity="0.25" cx="11.0007" cy="10.9997" r="9.16667" fill="white"/>
<path d="M10.5425 20.1557C10.7953 20.1682 11.0007 19.9618 11.0007 19.7087V12.8337H12.834C13.3402 12.8337 13.7507 12.4233 13.7507 11.917C13.7507 11.4107 13.3402 11.0003 12.834 11.0003H11.0007V9.16699C11.0007 8.66073 11.4111 8.25033 11.9173 8.25033H12.834C13.3402 8.25033 13.7507 7.83992 13.7507 7.33366C13.7507 6.8274 13.3402 6.41699 12.834 6.41699H11.9173C10.3985 6.41699 9.16732 7.64821 9.16732 9.16699V11.0003H8.25065C7.74439 11.0003 7.33398 11.4107 7.33398 11.917C7.33398 12.4233 7.74439 12.8337 8.25065 12.8337H9.16732V19.609C9.16732 19.827 9.32067 20.016 9.53589 20.0506C9.86587 20.1036 10.2017 20.139 10.5425 20.1557Z" fill="white"/>
</svg>
