<svg width="23" height="23" viewBox="0 0 23 23" fill="none" xmlns="http://www.w3.org/2000/svg">
<path opacity="0.25" d="M20.1245 7.1875C20.6037 14.375 15.3328 20.125 8.62451 20.125C6.3131 20.125 4.00169 19.8153 2.18828 18.9468C1.77297 18.748 1.9353 18.1939 2.39478 18.1635C4.62778 18.0154 6.47564 17.4822 7.66618 16.2917C10.5413 13.4167 11.0204 12.4583 11.7531 8.64797C11.589 8.19187 11.4995 7.70013 11.4995 7.1875C11.4995 4.80577 13.4303 2.875 15.812 2.875C17.2669 2.875 18.5536 3.59549 19.3346 4.69915L20.9803 4.46406C21.3903 4.40549 21.6765 4.85958 21.4467 5.20421L20.1245 7.1875Z" fill="white"/>
<path d="M7.66686 16.2913C2.47614 14.5611 1.58077 8.14498 2.51322 4.79819C2.6227 4.40521 3.13362 4.40316 3.33955 4.75531C4.93181 7.47818 7.95935 8.9984 11.7538 8.64759C17.7294 8.64759 16.2919 19.1663 7.66686 16.2913Z" fill="white"/>
</svg>
